<svg width="261" height="325" viewBox="0 0 261 325" fill="none" xmlns="http://www.w3.org/2000/svg">
<g clip-path="url(#clip0_704_618)">
<rect width="261" height="325" rx="16" fill="#FDEFEA"/>
<rect x="61.9131" y="44" width="7.33452" height="7.33452" rx="2" transform="rotate(12.2732 61.9131 44)" fill="#FFD9BD"/>
<rect x="58.5591" y="54" width="7.33452" height="7.33452" rx="2" transform="rotate(12.2732 58.5591 54)" fill="#FFD9BD"/>
<rect x="-16.5625" y="277" width="44.3966" height="44.3966" rx="2" transform="rotate(12.2732 -16.5625 277)" fill="#FFD9BD" fill-opacity="0.3"/>
<rect x="236.438" y="180" width="44.3966" height="44.3966" rx="2" transform="rotate(12.2732 236.438 180)" fill="#FFD9BD" fill-opacity="0.3"/>
<rect x="50.5591" y="44.6958" width="7.33452" height="7.33452" rx="2" transform="rotate(12.2732 50.5591 44.6958)" fill="#FFD9BD"/>
<rect x="199.913" y="142" width="7.33452" height="7.33452" rx="2" transform="rotate(12.2732 199.913 142)" fill="#FFD9BD"/>
<rect x="196.559" y="152" width="7.33452" height="7.33452" rx="2" transform="rotate(12.2732 196.559 152)" fill="#FFD9BD"/>
<rect x="188.559" y="142.696" width="7.33452" height="7.33452" rx="2" transform="rotate(12.2732 188.559 142.696)" fill="#FFD9BD"/>
<g clip-path="url(#clip1_704_618)">
<path d="M48.4158 177.895H14.3066L14.9091 160.925L14.9264 160.412L14.9308 160.305L42.9788 159.005L47.0066 158.819L47.1234 160.402L47.6376 167.368L47.6385 167.379L47.8246 169.909C47.8246 169.91 47.8246 169.91 47.8246 169.91L47.9068 171.011L48.4158 177.895Z" fill="#E2B897"/>
<path d="M32.1591 177.895H14.2935L14.6137 160.648L14.6207 160.304L14.9271 160.411L18.1957 161.55L26.317 164.379C26.317 164.379 26.3213 164.38 26.33 164.383L31.709 166.257L32.1591 177.895Z" fill="#E2B897"/>
<path d="M35.6608 115.573L25.8576 116.738L25.6169 110.045L25.6005 109.584L25.5693 108.704L33.5894 107.751L34.1113 107.688L34.5502 109.921L35.6608 115.573Z" fill="#F8BD8C"/>
<path d="M24.3488 114.544C24.3488 114.544 12.926 119.37 12.6092 120.335C12.2915 121.301 11.0225 124.035 11.0225 124.035C11.0225 124.035 16.5746 137.709 15.1472 142.374C13.7198 147.039 14.6711 154.76 14.6711 157.173C14.6711 159.586 13.7189 160.552 15.464 161.195C17.2091 161.838 22.9205 161.517 26.093 161.195C29.2656 160.873 35.7707 161.294 37.1982 161.566C38.6264 161.838 47.1927 160.39 47.1927 160.39C47.1927 160.39 48.3033 154.278 47.9856 151.22C47.6679 148.164 48.0999 140.925 48.0427 139.798C47.9856 138.672 48.5863 138.19 48.0479 135.455C47.5095 132.72 50.2068 117.76 50.2068 117.76L37.0389 112.894L24.3488 114.544Z" fill="#31185E"/>
<path d="M30.314 113.98L28.6667 119.566L21.418 115.857L23.1752 113.98H30.314Z" fill="#2A1656"/>
<path d="M28.7462 119.754L21.2031 115.895L23.1188 113.848H30.4878L28.7462 119.754ZM21.6325 115.82L28.5869 119.378L30.1399 114.111H23.2313L21.6325 115.82Z" fill="#1D1647"/>
<path d="M28.9009 113.98L31.1221 119.566L39.3905 113.662L37.4161 111.504L28.9009 113.98Z" fill="#2A1656"/>
<path d="M31.0624 119.769L28.7261 113.894L37.4568 111.355L39.5871 113.683L31.0624 119.769ZM29.0749 114.066L31.181 119.363L39.1941 113.642L37.3746 111.653L29.0749 114.066Z" fill="#1D1647"/>
<path d="M16.6757 117.958C16.6757 117.958 21.5561 119.875 21.1086 139.282L38.8877 135.145L41.0673 144.277C41.0673 144.277 21.5561 152.839 16.4922 152.697C11.4283 152.554 8.151 129.151 9.19408 126.581C10.2363 124.013 10.5228 120.354 16.4809 118.071L16.6757 117.958Z" fill="#31185E"/>
<path d="M39.8289 135.608L44.4089 133.87L43.2732 140.883L39.6921 141.065L38.9087 136.098L39.8289 135.608Z" fill="#F8BD8C"/>
<path d="M25.5465 138.517L21.8027 139.392L21.6538 138.471L21.4062 136.947L21.6625 137.044L25.5465 138.517Z" fill="#F8BD8C"/>
<path d="M46.0544 118.968L43.1208 140.137L24.4934 137.597L22.293 146.911C22.293 146.911 47.5217 153.121 52.5077 151.427C57.4946 149.734 55.1478 126.448 53.8286 123.484C52.5077 120.521 51.617 118.203 49.8571 117.638C48.0964 117.075 46.0544 118.968 46.0544 118.968Z" fill="#31185E"/>
<path d="M34.5498 109.92C34.1577 110.832 33.4747 111.678 32.4169 112.064C30.0866 112.912 27.1712 111.139 25.6165 110.045L25.6001 109.584C25.7343 109.605 25.8866 109.623 26.058 109.638C27.0846 109.724 28.6168 109.697 30.5446 109.208C31.9235 108.859 32.9086 108.294 33.5898 107.75L34.1118 107.689L34.5498 109.92Z" fill="#EAB186"/>
<path d="M35.6849 99.0488C36.1125 104.532 33.5571 109.221 29.5865 109.539C25.6159 109.858 22.0504 105.67 21.6227 100.187C21.1951 94.704 24.0673 90.001 28.0379 89.6824C32.0094 89.3647 35.2572 93.5655 35.6849 99.0488Z" fill="#F8BD8C"/>
<path d="M30.2566 111.075C26.4556 111.649 22.7299 107.665 21.931 102.189C21.8548 101.662 21.8106 101.14 21.7847 100.626C22.6728 105.948 26.3413 109.776 30.0722 109.216C33.4992 108.702 35.8087 104.661 35.6442 99.8535C35.6633 99.9439 35.6763 100.033 35.6884 100.124C36.4882 105.6 34.0575 110.503 30.2566 111.075Z" fill="#1A1A1A"/>
<path d="M24.6126 86.9289C24.6126 86.9289 24.5676 91.0043 25.5683 91.5941C26.5689 92.1839 27.7133 91.1113 28.6222 90.9507C29.5311 90.7901 31.3697 90.6312 32.6586 91.7696C33.9467 92.9081 35.0529 96.2277 35.0529 96.2277L35.336 97.3398C35.336 97.3398 36.0891 97.532 36.1687 96.4866C36.2484 95.4412 36.0363 91.0569 36.1687 90.6286C36.3012 90.1994 36.2484 89.771 35.7723 89.2883C35.2962 88.8055 34.6885 88.0551 34.8729 87.7329C35.0581 87.4108 35.851 86.5805 35.0841 85.8563C34.3172 85.1322 30.6157 84.6767 29.9284 85.32C29.2403 85.9634 26.6754 83.497 24.6126 86.9289Z" fill="#1A1A1A"/>
<path d="M23.9122 87.2369C23.9122 87.2369 20.3034 87.6389 20.2238 90.8567C20.2238 90.8567 19.7875 91.5808 18.915 92.7473C18.0424 93.9139 19.0734 95.8844 19.3114 97.0509C19.5495 98.2174 20.0385 99.182 20.0117 99.5305C19.9849 99.8789 20.6453 100.55 21.2409 100.281C21.8364 100.013 21.9689 99.297 21.9689 99.297C21.9689 99.297 22.0217 94.7574 22.683 93.9533C23.3444 93.1493 24.468 92.3585 25.1154 92.0232C25.7629 91.6879 25.9084 91.0577 25.9084 90.9778C25.9084 90.8971 25.0886 86.5005 25.0886 86.5005L23.9122 87.2369Z" fill="#1A1A1A"/>
<path d="M23.1176 101.02C23.6145 102.057 23.4327 103.185 22.7099 103.542C21.988 103.898 20.9994 103.346 20.5017 102.309C20.0048 101.273 20.1866 100.144 20.9094 99.7876C21.6322 99.4321 22.6207 99.9834 23.1176 101.02Z" fill="#F8BD8C"/>
<path d="M37.1294 99.6027C36.9996 100.748 36.2473 101.6 35.4492 101.507C34.6511 101.414 34.1101 100.41 34.2399 99.2656C34.3698 98.1202 35.122 97.2679 35.9201 97.361C36.7182 97.454 37.2593 98.4581 37.1294 99.6027Z" fill="#F8BD8C"/>
<path d="M26.2418 97.5293C25.7483 97.5609 25.2255 97.6276 24.7356 97.7312C24.2465 97.8347 23.7557 97.9839 23.3895 98.2139L23.3713 98.2253C23.1774 98.3473 22.9238 98.2868 22.8035 98.0902C22.6858 97.8971 22.7412 97.6443 22.9281 97.5196C23.4588 97.1668 24.0032 97.0044 24.5434 96.8666C25.0887 96.7349 25.6194 96.6498 26.1838 96.5962C26.4374 96.5725 26.6616 96.7613 26.6858 97.0176C26.7092 97.2747 26.5231 97.5021 26.2703 97.5258C26.266 97.5258 26.2625 97.5266 26.2582 97.5266L26.2418 97.5293Z" fill="#1A1A1A"/>
<path d="M25.8218 99.5211C25.8798 99.9205 25.6582 100.285 25.3258 100.335C24.9934 100.385 24.6766 100.101 24.6186 99.7019C24.5606 99.3025 24.7822 98.9383 25.1146 98.8882C25.447 98.8373 25.7638 99.1208 25.8218 99.5211Z" fill="#1A1A1A"/>
<path d="M30.4346 97.0209C30.9228 96.9384 31.4457 96.8831 31.9469 96.8717C32.4463 96.8603 32.9579 96.8919 33.3656 97.0323L33.3864 97.0393C33.602 97.1131 33.8365 96.9963 33.9093 96.7769C33.9811 96.5619 33.8694 96.3284 33.6608 96.2503C33.0653 96.0282 32.4983 95.9957 31.9408 95.9861C31.3808 95.9825 30.8441 96.022 30.2831 96.1002C30.0312 96.1353 29.8547 96.3705 29.8884 96.6259C29.923 96.8813 30.155 97.0604 30.4069 97.0253C30.4113 97.0244 30.4147 97.0244 30.419 97.0235L30.4346 97.0209Z" fill="#1A1A1A"/>
<path d="M31.2885 98.8642C31.3214 99.2671 31.6191 99.5708 31.9533 99.5427C32.2883 99.5146 32.5332 99.1662 32.5003 98.7633C32.4674 98.3604 32.1697 98.0567 31.8355 98.0848C31.5014 98.1129 31.2564 98.4614 31.2885 98.8642Z" fill="#1A1A1A"/>
<path d="M26.7275 108.572C26.9362 108.716 27.6624 108.539 27.897 108.488C28.2969 108.402 28.754 108.247 29.005 107.896C29.2915 107.494 29.1582 106.889 29.1227 106.43C29.1123 106.3 29.1348 105.938 29.0275 105.83C29.0275 105.83 30.0758 105.67 30.0853 105.669C29.9918 105.683 30.2723 107.182 30.3164 107.304C30.4359 107.63 30.7588 107.815 31.0773 107.896C31.4097 107.981 31.7715 107.991 32.1117 107.966C32.1957 107.959 33.0146 107.888 33.0224 107.801C33.0163 107.875 32.9627 107.934 32.9124 107.987C32.3784 108.541 31.7871 109.039 31.1959 109.53C31.1959 109.53 28.393 109.771 28.3142 109.69C28.2355 109.611 26.731 108.574 26.7275 108.572Z" fill="#1A1A1A"/>
<path d="M31.9479 104.624C31.58 105.287 30.7992 105.841 29.8159 106.033C28.5088 106.29 27.29 105.84 26.8208 105.003C26.8208 104.99 26.8338 104.978 26.8459 104.965C27.0112 104.823 27.1826 104.701 27.3661 104.598L31.2052 104.134C31.503 104.199 31.7696 104.315 31.9479 104.624Z" fill="#FCFCFC"/>
<path d="M26.4796 109.102C26.3973 108.291 26.1688 105.696 26.5029 104.924V104.871L26.6172 104.741C26.8284 104.557 27.0154 104.426 27.2136 104.315C27.836 103.945 28.6116 103.732 29.4495 103.702C29.91 103.681 30.3636 103.698 30.799 103.749L30.9072 103.762C31.031 103.777 31.1522 103.792 31.2743 103.818C31.5816 103.885 31.9694 104.017 32.223 104.46C32.4861 104.916 32.5995 105.409 32.7086 105.887C32.7363 106.01 32.7649 106.133 32.7952 106.254C32.9787 106.996 33.0358 107.625 32.9744 108.232L32.3433 108.166C32.3961 107.635 32.3442 107.078 32.1797 106.411C32.1486 106.286 32.12 106.159 32.0897 106.032C31.9867 105.581 31.8897 105.156 31.6742 104.784C31.5703 104.601 31.4197 104.507 31.1401 104.447C31.0371 104.424 30.9358 104.412 30.8337 104.4L30.7229 104.387C30.3247 104.339 29.904 104.325 29.4755 104.344C28.7397 104.37 28.0663 104.553 27.5278 104.872C27.372 104.959 27.2292 105.058 27.0855 105.179L27.0803 105.186C26.8959 105.473 26.9479 107.407 27.1123 109.035L26.4796 109.102Z" fill="#1A1A1A"/>
<path d="M28.2923 102.33C28.2612 102.33 28.2318 102.313 28.2162 102.283C28.1937 102.24 28.2101 102.187 28.2517 102.165L28.9338 101.796C29.151 101.679 29.2714 101.467 29.2411 101.256L28.8948 98.8187C28.8879 98.7704 28.9208 98.7265 28.9684 98.7195C29.0151 98.7134 29.0593 98.7458 29.0662 98.7941L29.4125 101.232C29.4532 101.517 29.2965 101.799 29.0151 101.951L28.333 102.32C28.32 102.326 28.3062 102.33 28.2923 102.33Z" fill="#1A1A1A"/>
<path d="M32.1884 174.689C32.0949 174.689 32.0178 174.614 32.0152 174.518C31.9477 171.612 31.772 166.891 31.5842 166.386C30.9548 166.006 27.8472 165.022 26.2675 164.548C26.1757 164.521 26.1238 164.422 26.1506 164.329C26.1775 164.236 26.2744 164.184 26.3662 164.211C26.5575 164.269 31.07 165.626 31.8032 166.11C31.9174 166.186 32.0603 166.28 32.2308 170.451C32.313 172.469 32.3606 174.49 32.3615 174.51C32.3641 174.607 32.2879 174.687 32.1927 174.69C32.1918 174.689 32.1901 174.689 32.1884 174.689Z" fill="#666B6D"/>
<path d="M21.5803 139.568C21.5439 139.568 21.5084 139.556 21.4781 139.534C21.4357 139.503 21.4097 139.454 21.4071 139.401C21.382 138.879 20.6887 130.541 20.6817 130.457C20.674 130.36 20.7441 130.275 20.8393 130.267C20.9345 130.259 21.0185 130.33 21.0263 130.428C21.0531 130.747 21.6365 137.764 21.7387 139.168C22.709 138.905 26.8762 137.78 28.5442 137.445C28.6377 137.426 28.7295 137.488 28.7477 137.583C28.7658 137.678 28.7052 137.771 28.6118 137.789C26.7394 138.165 21.6763 139.548 21.6261 139.562C21.6106 139.565 21.595 139.568 21.5803 139.568Z" fill="#1D1647"/>
<path d="M17.0446 152.518C16.4958 152.518 15.9946 152.461 15.5817 152.324C13.0983 151.499 11.399 144.731 11.328 144.443C11.3047 144.349 11.3609 144.254 11.4536 144.23C11.5462 144.206 11.6405 144.263 11.6639 144.357C11.6812 144.426 13.3865 151.225 15.6899 151.99C18.028 152.767 23.6624 150.742 23.7186 150.722C23.8087 150.688 23.9073 150.737 23.9402 150.828C23.9723 150.919 23.9255 151.019 23.8355 151.053C23.639 151.124 19.7558 152.518 17.0446 152.518Z" fill="#1D1647"/>
<path d="M30.6151 148.548C30.5519 148.548 30.4905 148.513 30.4602 148.451C30.4178 148.364 30.4515 148.259 30.5372 148.216L35.8063 145.539C35.892 145.495 35.9959 145.531 36.0383 145.617C36.0807 145.704 36.0469 145.809 35.9612 145.852L30.6922 148.529C30.6679 148.542 30.6411 148.548 30.6151 148.548Z" fill="#1D1647"/>
<path d="M42.9538 140.226C42.9442 140.226 42.9356 140.225 42.9261 140.223C42.8317 140.209 42.7677 140.118 42.7824 140.022L44.2384 130.811C44.2531 130.715 44.3431 130.649 44.4366 130.665C44.5309 130.68 44.595 130.77 44.5803 130.866L43.1243 140.078C43.1104 140.165 43.0369 140.226 42.9538 140.226Z" fill="#1D1647"/>
<path d="M45.5116 151.592C45.5029 151.592 45.4934 151.591 45.4847 151.59L36.7575 150.216C36.6631 150.202 36.5982 150.112 36.6129 150.016C36.6276 149.921 36.7159 149.855 36.8103 149.87L45.5375 151.243C45.6319 151.258 45.6968 151.348 45.6821 151.444C45.6691 151.53 45.5955 151.592 45.5116 151.592Z" fill="#1D1647"/>
<path d="M89.1924 97.5801L87.6187 103.406L91.011 107.434L95.8577 104.971L95.6551 98.8326L89.1924 97.5801Z" fill="#F8BD8C"/>
<path d="M106.51 149V177.895H92.0571V149.732L105.562 149.048L106.51 149Z" fill="#31185E"/>
<path d="M96.7548 150.343L96.2606 151.73L95.7741 153.099L94.1363 157.696L92.0571 163.532L88.7192 177.895H75.6439C75.6517 177.935 75.6552 177.955 75.6552 177.955L73.8599 177.999L73.872 177.894L74.5922 172.011L74.6978 171.149L74.98 168.841L75.2449 166.681L75.4448 165.048L76.3797 157.408L76.6342 155.328L77.2445 150.343H96.7548Z" fill="#31185E"/>
<path d="M87.9893 102.336C87.9893 102.336 80.8843 106.735 77.7524 108.28C74.6215 109.826 72.5743 112.085 71.8515 113.392C71.1287 114.7 69.4424 115.889 69.5636 116.721C69.6839 117.553 66.7936 121.119 66.1911 124.091C65.5886 127.063 64.5049 136.93 64.5049 137.286C64.5049 137.642 66.4318 145.845 66.4318 145.845C66.4318 145.845 72.0921 151.551 73.2962 152.859C74.5003 154.167 78.1134 156.307 78.5956 156.307C79.0777 156.307 82.0884 154.286 81.968 152.265C81.8477 150.244 81.0046 144.42 80.1615 143.468C79.5019 142.725 78.696 142.053 78.0874 141.057C77.9178 140.78 77.7637 140.476 77.6321 140.14C77.0296 138.594 78.7159 134.909 78.7159 134.909C78.7159 134.909 84.1356 121.833 83.8941 120.05C83.6534 118.266 85.46 111.967 84.9778 110.303C84.4965 108.637 87.9893 102.336 87.9893 102.336Z" fill="#C5A2FD"/>
<path d="M107.138 118.378C107.138 118.378 108.342 135.145 108.222 137.999C108.101 140.852 107.516 142.516 108.23 145.726C108.944 148.935 108.6 149.886 108.23 151.075C107.861 152.263 103.284 152.144 103.284 152.144L81.839 150.878L73.7783 139.068L84.2559 106.021L87.9893 102.336C87.9893 102.336 92.2647 106.021 95.8172 103.822C95.8172 103.822 105.692 109.469 107.077 110.539C108.463 111.609 107.138 118.378 107.138 118.378Z" fill="#C5A2FD"/>
<path d="M107.218 110.975C107.218 110.975 110.671 114.462 110.591 116.76C110.51 119.058 111.474 127.616 111.314 130.073C111.153 132.53 111.554 132.609 111.876 134.432C112.197 136.255 113.521 139.9 113.642 143.942C113.763 147.984 115.509 150.897 114.304 152.917C113.1 154.938 112.197 155.532 112.197 155.532C112.197 155.532 111.895 152.448 111.354 152.147C110.812 151.847 108.23 151.074 108.23 151.074L105.372 119.058L107.218 110.975Z" fill="#C5A2FD"/>
<path d="M88.4153 98.3911C88.0691 97.5722 90.7248 102.925 93.4359 102.624C95.761 102.367 95.858 98.0093 95.858 98.0093C95.858 98.0093 95.0322 99.3856 92.5781 99.3891C89.841 99.3917 88.4153 98.3911 88.4153 98.3911Z" fill="#EAB186"/>
<path d="M100.67 91.4597C100.607 92.6359 99.8378 93.5496 98.9523 93.5013C98.0659 93.4531 97.3985 92.4603 97.4617 91.2842C97.524 90.108 98.2935 89.1943 99.1791 89.2426C100.065 89.2908 100.732 90.2835 100.67 91.4597Z" fill="#F2B588"/>
<path d="M87.8352 90.74C87.7729 91.9162 87.0033 92.8299 86.1178 92.7816C85.2314 92.7333 84.564 91.7406 84.6272 90.5644C84.6895 89.3883 85.4591 88.4745 86.3446 88.5228C87.2301 88.572 87.8975 89.5647 87.8352 90.74Z" fill="#F2B588"/>
<path d="M99.9461 91.4035C99.1056 96.411 96.2421 100.713 92.2957 100.497C88.3493 100.281 86.2778 96.554 85.6546 90.6205C85.1084 85.4156 89.3586 81.3113 93.305 81.5272C97.2522 81.7431 100.813 86.238 99.9461 91.4035Z" fill="#F8BD8C"/>
<path d="M90.8892 83.496C90.9005 83.8269 90.8503 84.3606 90.8823 84.5212C90.9697 84.9636 91.1991 85.3945 91.5705 85.599C91.8267 85.7404 92.1236 85.7614 92.411 85.7693C93.4593 85.7974 94.5543 85.3392 95.5601 85.3866C96.0233 85.4086 96.3747 85.7483 96.7677 86.0151C97.4948 86.5066 98.8322 86.3916 98.8331 86.3916C99.5187 87.3633 99.5844 88.8116 100.284 89.7095C100.452 89.6033 100.603 89.4637 100.762 89.3294C101.702 88.5272 101.757 88.3815 101.452 87.1228C101.208 86.1151 101.877 85.6851 102.215 84.8775C102.679 83.7698 103.487 82.7446 102.664 81.8818C101.595 80.7601 100.818 79.8586 100.137 78.3911C99.7567 77.5721 99.2469 76.6777 98.4133 76.5206C97.0689 76.2669 96.0458 77.7644 94.6928 76.8506C94.2002 76.518 93.7267 76.0888 93.1494 76.0142C92.5504 75.936 91.9652 76.2599 91.4778 76.6505C90.8693 77.1377 90.317 77.7091 89.6072 78.0215C88.436 78.5376 87.09 78.7439 86.1283 79.7077C85.4851 80.3519 85.1311 81.2262 84.8065 82.0881C84.5321 82.8184 84.0447 83.6584 83.9737 84.4439C83.8932 85.3278 84.4013 87.222 85.0913 87.7811C85.4245 88.0514 85.6704 88.6966 85.6704 88.6966C85.6704 88.6966 86.7307 86.7173 86.9091 86.2652C87.0874 85.8132 87.9608 84.6449 88.5624 84.2157C89.164 83.7874 89.3657 83.6303 89.8401 83.4047C90.1526 83.2537 90.8684 82.9018 90.8892 83.496Z" fill="#31185E"/>
<path d="M89.5785 90.4071C89.5603 90.7547 89.2669 91.0216 88.9241 91.0031C88.5813 90.9847 88.3182 90.6871 88.3363 90.3396C88.3545 89.992 88.648 89.7251 88.9908 89.7436C89.3335 89.762 89.5967 90.0596 89.5785 90.4071Z" fill="#1B191B"/>
<path d="M96.996 90.8139C96.9778 91.1615 96.6844 91.4283 96.3416 91.4099C95.9988 91.3914 95.7356 91.0939 95.7538 90.7463C95.772 90.3987 96.0654 90.1319 96.4082 90.1503C96.7519 90.1687 97.015 90.4663 96.996 90.8139Z" fill="#1B191B"/>
<path d="M87.4631 88.5929C87.3012 88.5921 87.1472 88.4938 87.0814 88.3331C86.9931 88.1181 87.0935 87.8706 87.3056 87.7802C89.3121 86.9331 90.8278 87.7442 90.891 87.7784C91.0935 87.8899 91.1689 88.1462 91.0598 88.3516C90.9499 88.5561 90.6997 88.6333 90.4963 88.5227C90.4383 88.4911 89.2454 87.8758 87.6258 88.5605C87.573 88.5824 87.5176 88.5938 87.4631 88.5929Z" fill="#31185E"/>
<path d="M95.0105 88.8615C94.8486 88.8501 94.7014 88.743 94.646 88.578C94.5707 88.3577 94.6867 88.1172 94.904 88.0408C96.959 87.3237 98.421 88.2304 98.4825 88.269C98.6781 88.3928 98.737 88.6543 98.6149 88.8518C98.4929 89.0493 98.2384 89.1099 98.0419 88.987C97.9865 88.9519 96.8335 88.2611 95.1749 88.8413C95.1204 88.858 95.065 88.865 95.0105 88.8615Z" fill="#31185E"/>
<path d="M100.184 89.5719C100.184 89.571 100.184 89.571 100.184 89.5719C100.17 89.4798 100.126 89.3955 100.064 89.3305C100.049 89.3147 100.033 89.3007 100.016 89.2884C100.016 89.2875 100.015 89.2875 100.015 89.2875C99.9819 89.2621 99.9464 89.2419 99.9075 89.227C99.7612 89.1708 99.5578 89.1058 99.2903 89.0462C99.1327 89.0102 98.8808 88.9619 98.5692 88.9119C98.2706 88.8627 97.9165 88.8118 97.5382 88.7697H97.5356C96.9946 88.7091 96.4034 88.6643 95.8511 88.6652H95.8503C95.549 88.6661 95.2591 88.6801 94.995 88.7126C94.9085 88.724 94.8271 88.7346 94.7518 88.7468C93.7563 88.9022 93.7113 89.1497 93.72 89.2875C93.7217 89.3095 93.6992 89.3226 93.681 89.3112C93.4724 89.1796 93.2266 89.1251 92.9859 89.1111C92.7461 89.0979 92.4951 89.126 92.2735 89.234C92.2545 89.2436 92.2337 89.2278 92.2371 89.2059C92.2623 89.0602 92.2363 88.7802 91.0287 88.4949C91.0054 88.4888 90.9811 88.4835 90.9569 88.4791C90.6487 88.4115 90.3033 88.3633 89.9441 88.3317H89.9432C89.5217 88.2939 89.0819 88.2773 88.663 88.2746H88.6621C88.0432 88.2694 87.4727 88.2948 87.0763 88.3238C86.9231 88.3352 86.7975 88.3457 86.7041 88.3571C86.4158 88.3905 86.1942 88.4361 86.0349 88.4765C85.9518 88.4976 85.8817 88.5432 85.8289 88.6064L85.828 88.6073C85.7657 88.6784 85.7268 88.7688 85.7216 88.868C85.7216 88.8759 85.7207 88.8838 85.7207 88.8917C85.7207 89.0593 85.8133 89.2191 85.9665 89.2831C86.0297 89.3095 86.0964 89.356 86.1544 89.435C86.3076 89.6421 86.3466 89.8186 86.5301 89.9055C86.5405 89.9098 86.5456 89.9186 86.5448 89.9292C86.5162 90.3391 86.5205 91.0377 86.679 91.5661C86.7802 91.9006 86.9291 92.1656 87.1403 92.3745C87.3412 92.5764 87.6 92.7256 87.9263 92.8345C88.244 92.9407 88.611 93.0047 88.9763 93.0241C89.3598 93.0451 89.7424 93.0179 90.0662 92.9389C90.7682 92.7669 91.3023 92.2604 91.5672 91.5143C91.8087 90.835 91.9065 90.167 91.8892 89.7764C91.9446 89.794 91.9948 89.7834 92.045 89.7404L92.0519 89.7396C92.0623 89.7308 92.0753 89.7211 92.0848 89.7097C92.1688 89.6307 92.4371 89.4324 92.966 89.4604C93.4958 89.4903 93.7399 89.7159 93.8152 89.8036C93.8238 89.8159 93.8143 89.8265 93.823 89.837H93.8065C93.8446 89.8756 93.8991 89.8958 93.9494 89.8949C93.9658 89.8949 93.9797 89.9063 93.9779 89.9239C93.9269 90.3154 93.9701 90.9737 94.1329 91.6565C94.3172 92.4281 94.7985 92.9898 95.4789 93.2373C95.7914 93.3514 96.1714 93.4199 96.5549 93.441C96.9211 93.4612 97.2933 93.4375 97.6188 93.3672C97.823 93.3225 98.0048 93.2602 98.1658 93.1785C98.5432 92.9863 98.8073 92.6844 98.9934 92.242C99.2072 91.7338 99.2834 91.0404 99.2981 90.6296C99.2981 90.6182 99.3059 90.6103 99.3154 90.6068C99.5058 90.5409 99.5465 90.3689 99.7205 90.1793C99.7811 90.1135 99.8443 90.0749 99.9014 90.0538C99.9698 90.0292 100.03 89.988 100.076 89.9353C100.115 89.8905 100.146 89.837 100.165 89.7799C100.177 89.744 100.184 89.7053 100.186 89.6658C100.186 89.6579 100.187 89.6509 100.187 89.6421C100.189 89.6149 100.187 89.593 100.184 89.5719ZM91.4278 91.4634C91.1802 92.163 90.6842 92.6361 90.0307 92.795C89.4273 92.9433 88.6024 92.902 87.9783 92.694C87.671 92.5913 87.4303 92.4535 87.2442 92.2666C87.0546 92.0761 86.9213 91.833 86.8278 91.5231C86.6547 90.9491 86.6764 90.1618 86.7144 89.801V89.7975C86.769 89.5693 86.9049 89.1366 87.1975 88.9119C87.2399 88.8794 87.2858 88.8522 87.3351 88.8285C87.8605 88.5906 88.9685 88.4809 90.0558 88.7223C91.1439 88.9636 91.5542 89.2542 91.7126 89.5781C91.7178 89.5895 91.7238 89.6009 91.7299 89.6123C91.7965 89.9125 91.7031 90.6875 91.4278 91.4634ZM99.1526 90.483C99.1518 90.8446 99.0895 91.6302 98.8566 92.1823C98.6757 92.6115 98.4255 92.8933 98.055 93.0679C97.9174 93.1329 97.7624 93.1838 97.5893 93.2215C96.947 93.3602 96.1221 93.3102 95.5378 93.0969C94.9067 92.8678 94.4635 92.3429 94.2904 91.6206C94.0991 90.8192 94.0887 90.038 94.1865 89.7475C94.1943 89.7378 94.2004 89.7273 94.2073 89.7159C94.3986 89.4113 94.8375 89.1673 95.9446 89.0462C96.9739 88.9329 97.9875 89.1234 98.5251 89.3876C98.5657 89.4069 98.6038 89.428 98.6385 89.4482C99.0072 89.6667 99.1197 90.2118 99.1526 90.4786V90.483Z" fill="#1B191B"/>
<path d="M92.3511 97.0115C91.5772 97.0115 91.0466 96.6498 91.0379 96.6446C91.0085 96.6235 91.0007 96.5831 91.0215 96.5533C91.0422 96.5234 91.0821 96.5155 91.1115 96.5366C91.1643 96.5735 92.4168 97.4205 93.8936 96.3435C93.923 96.3224 93.9629 96.3286 93.9845 96.3584C94.0053 96.3883 93.9992 96.4295 93.9698 96.4506C93.382 96.878 92.8211 97.0115 92.3511 97.0115Z" fill="black"/>
<path d="M92.5078 94.5859C92.4957 94.5859 92.4836 94.5824 92.4732 94.5754C92.4602 94.5675 92.1598 94.37 92.1347 94.1269C92.1131 93.9092 92.2022 92.805 92.2066 92.7585C92.2092 92.7225 92.2412 92.6953 92.2767 92.6979C92.3122 92.7006 92.339 92.733 92.3364 92.769C92.3044 93.1623 92.2481 93.9487 92.2646 94.1128C92.2793 94.2621 92.4706 94.4165 92.5433 94.4631C92.5736 94.4824 92.5823 94.5236 92.5632 94.5543C92.5502 94.5754 92.5295 94.5859 92.5078 94.5859Z" fill="black"/>
<path d="M76.9552 127.357C76.9301 127.357 76.905 127.352 76.8816 127.34C76.795 127.299 76.7587 127.194 76.7994 127.107C76.9881 126.703 78.5644 121.914 78.5912 121.546C78.5981 121.449 78.6821 121.376 78.7765 121.383C78.8717 121.39 78.9435 121.475 78.9366 121.571C78.9046 122.01 77.2806 126.895 77.1119 127.256C77.0824 127.32 77.0201 127.357 76.9552 127.357Z" fill="#9E4AFF"/>
<path d="M93.4539 104.746C92.7821 104.746 91.9684 104.619 91.0093 104.265C90.8838 104.218 89.1223 103.308 88.77 103.125C88.6851 103.082 88.6514 102.975 88.6946 102.889C88.7379 102.803 88.8427 102.768 88.9275 102.813C89.7239 103.225 91.0258 103.894 91.1288 103.936C94.2087 105.073 95.6837 103.71 95.6976 103.696C95.7668 103.629 95.8767 103.633 95.9417 103.702C96.0075 103.772 96.0049 103.883 95.9365 103.95C95.8906 103.994 95.0908 104.746 93.4539 104.746Z" fill="#9E4AFF"/>
<path d="M92.0571 163.707C92.0372 163.707 92.0181 163.704 91.9982 163.697C91.9082 163.663 91.8614 163.563 91.8943 163.472L93.9727 157.635C94.0056 157.544 94.1043 157.496 94.1943 157.53C94.2843 157.563 94.3311 157.663 94.2982 157.754L92.2198 163.591C92.1947 163.662 92.128 163.707 92.0571 163.707Z" fill="#9E4AFF"/>
<path d="M152.595 108.821L142.235 109.007L142.968 100.421H151.68L152.595 108.821Z" fill="#F8BD8C"/>
<path d="M154.697 94.0306C154.697 99.6402 151.366 104.188 147.258 104.188C143.149 104.188 139.818 99.6402 139.818 94.0306C139.818 91.702 139.266 88.134 140.231 86.4206C141.591 84.0069 144.854 83.8734 147.257 83.8734C149.647 83.8734 152.476 83.3091 153.837 85.7009C154.817 87.4204 154.697 91.6844 154.697 94.0306Z" fill="#1A1A1A"/>
<path d="M155.83 89.7595C155.83 89.7595 156.624 81.8871 155.402 80.5854C154.182 79.2837 154.862 78.9116 153.545 78.5394C152.229 78.1672 152.21 77.4852 150.04 77.4852C149.666 77.4852 149.484 77.2377 147.407 77.2377C146.736 77.2377 145.637 76.6795 144.081 77.5476C142.524 78.4156 141.532 77.207 140.411 78.6711C139.289 80.136 138.863 79.3452 137.886 81.6387C136.91 83.9322 138.192 85.0478 138.436 87.5274C138.68 90.007 139.964 91.9907 139.964 91.9907L155.483 91.486L155.83 89.7595Z" fill="#1A1A1A"/>
<path d="M154.697 92.3822C154.697 97.9918 151.366 102.539 147.258 102.539C143.149 102.539 139.818 97.9918 139.818 92.3822C139.818 90.0535 139.266 86.4855 140.231 84.7722C141.591 82.3584 144.854 82.225 147.257 82.225C149.647 82.225 152.476 81.6606 153.837 84.0525C154.817 85.7728 154.697 90.0369 154.697 92.3822Z" fill="#F8BD8C"/>
<path d="M141.333 92.9525C141.429 94.1445 140.895 95.1618 140.139 95.225C139.383 95.2882 138.693 94.3727 138.596 93.1807C138.5 91.9888 139.034 90.9715 139.789 90.9083C140.545 90.846 141.236 91.7606 141.333 92.9525Z" fill="#F8BD8C"/>
<path d="M153.055 92.8649C152.884 94.048 153.354 95.0978 154.105 95.2093C154.855 95.3208 155.602 94.4518 155.772 93.2686C155.943 92.0854 155.473 91.0357 154.722 90.9242C153.972 90.8127 153.225 91.6817 153.055 92.8649Z" fill="#F8BD8C"/>
<path d="M145.049 87.2966C144.869 87.2913 144.711 87.2966 144.545 87.3027C144.38 87.3089 144.217 87.3212 144.053 87.337C143.726 87.3694 143.4 87.4151 143.075 87.4792C142.75 87.5459 142.425 87.6266 142.106 87.739C141.787 87.854 141.473 87.9988 141.178 88.1901C141.039 88.2814 140.968 88.457 141.016 88.6264C141.074 88.8344 141.288 88.9546 141.493 88.8958L141.513 88.8897C141.788 88.8098 142.071 88.7475 142.358 88.6931C142.647 88.643 142.942 88.6018 143.238 88.5702C143.536 88.5412 143.835 88.5202 144.135 88.5061C144.286 88.4982 144.437 88.4938 144.586 88.4894C144.734 88.4833 144.892 88.4833 145.026 88.4815H145.043C145.353 88.4763 145.607 88.2244 145.617 87.9066C145.624 87.5801 145.371 87.3062 145.049 87.2966Z" fill="#1A1A1A"/>
<path d="M152.818 88.1911C152.523 87.9989 152.208 87.8549 151.89 87.7399C151.57 87.6276 151.246 87.5468 150.921 87.4801C150.596 87.4152 150.269 87.3695 149.943 87.3379C149.779 87.3221 149.616 87.3099 149.451 87.3037C149.284 87.2976 149.127 87.2923 148.947 87.2976C148.638 87.3072 148.386 87.5626 148.38 87.8804C148.375 88.2078 148.633 88.4772 148.955 88.4825H148.97C149.104 88.4843 149.262 88.4843 149.41 88.4904C149.559 88.4957 149.71 88.5001 149.861 88.5071C150.161 88.5211 150.461 88.5422 150.758 88.5712C151.055 88.6036 151.349 88.644 151.638 88.694C151.925 88.7485 152.207 88.8108 152.484 88.8907L152.504 88.8968C152.664 88.9424 152.84 88.8801 152.935 88.7318C153.049 88.5501 152.997 88.3078 152.818 88.1911Z" fill="#1A1A1A"/>
<path d="M144.051 91.309C144.051 91.6855 143.808 91.991 143.509 91.991C143.209 91.991 142.967 91.6855 142.967 91.309C142.967 90.9324 143.209 90.627 143.509 90.627C143.808 90.627 144.051 90.9324 144.051 91.309Z" fill="#1A1A1A"/>
<path d="M151.123 91.309C151.123 91.6855 150.88 91.991 150.581 91.991C150.281 91.991 150.039 91.6855 150.039 91.309C150.039 90.9324 150.281 90.627 150.581 90.627C150.88 90.627 151.123 90.9324 151.123 91.309Z" fill="#1A1A1A"/>
<path d="M147.27 95.4595C147.269 95.4595 147.269 95.4595 147.268 95.4595C147.189 95.456 146.488 95.4174 146.329 95.1909C146.295 95.1426 146.287 95.0874 146.304 95.0312C146.4 94.7117 146.759 92.6007 146.762 92.5797C146.766 92.556 146.788 92.5393 146.812 92.5437C146.836 92.5481 146.852 92.5709 146.848 92.5946C146.833 92.6815 146.485 94.7327 146.387 95.0566C146.378 95.0874 146.382 95.1137 146.4 95.14C146.514 95.3033 147.068 95.363 147.273 95.3717C147.297 95.3726 147.315 95.3937 147.314 95.4174C147.313 95.4411 147.294 95.4595 147.27 95.4595Z" fill="#2C2A30"/>
<path d="M138.907 83.0929C138.907 83.0929 140.572 85.5225 142.125 85.0959C143.677 84.6694 144.56 82.8674 145.295 83.6828C146.03 84.4982 147.306 84.3665 148.301 83.7302C149.297 83.0938 148.971 83.911 150.278 84.119C151.585 84.327 152.221 83.9154 153.177 85.146C154.134 86.3757 155.114 85.7885 154.788 84.119C154.461 82.4496 152.239 78.8658 150.278 79.8892C148.317 80.9144 138.907 83.0929 138.907 83.0929Z" fill="#1A1A1A"/>
<path d="M154.676 88.893C154.644 88.8834 154.612 88.8764 154.579 88.8685C154.08 88.7508 153.533 88.6798 152.974 88.6438C152.408 88.6078 151.831 88.6078 151.281 88.6367C151.28 88.6367 151.28 88.6367 151.279 88.6367C150.204 88.6929 149.234 88.8535 148.661 89.0449C148.196 89.2002 147.648 89.4214 147.181 89.4214C146.716 89.4214 146.168 89.2002 145.703 89.0449C145.08 88.8369 143.988 88.6648 142.8 88.6245H142.8C142.799 88.6245 142.799 88.6245 142.798 88.6245C142.217 88.6051 141.613 88.6166 141.03 88.6719C140.558 88.7157 140.1 88.7877 139.68 88.8948C139.678 88.8948 139.676 88.8948 139.676 88.8957C139.544 88.929 139.417 88.965 139.293 89.0045L139.353 90.128C139.353 90.128 139.521 90.0912 139.666 90.1938C139.691 90.2114 139.715 90.2333 139.738 90.2606C139.777 90.3071 139.811 90.3694 139.836 90.4519C139.863 90.5458 139.9 90.7073 139.945 90.9092C140.013 91.2094 140.101 91.5982 140.216 91.9809C140.353 92.4496 140.528 92.9087 140.744 93.1869C140.897 93.3835 141.093 93.5345 141.316 93.6495C142.011 94.0102 142.962 94.0208 143.66 93.9901C144.9 93.9356 145.712 93.3765 146.059 92.4286C146.141 92.2039 146.214 91.9871 146.281 91.7843C146.499 91.1278 146.653 90.6081 146.822 90.4124C146.943 90.2737 147.077 90.2632 147.182 90.2632C147.289 90.2632 147.423 90.2737 147.543 90.4124C147.707 90.602 147.857 91.097 148.064 91.7264C148.137 91.9467 148.218 92.1828 148.307 92.4286C148.653 93.3756 149.466 93.9356 150.705 93.9901C151.4 94.0199 152.344 94.0102 153.037 93.6556C153.263 93.5407 153.464 93.3879 153.62 93.1878C153.906 92.82 154.119 92.131 154.273 91.5254C154.327 91.3121 154.374 91.1084 154.414 90.9338C154.461 90.7222 154.499 90.5511 154.528 90.4537C154.56 90.3457 154.609 90.272 154.665 90.2219C154.676 90.2105 154.688 90.2017 154.7 90.1938C154.845 90.092 155.01 90.1298 155.01 90.1298L155.07 89.0063C154.944 88.9633 154.812 88.9264 154.676 88.893ZM145.503 92.4286C145.17 93.0649 144.61 93.3897 143.77 93.4976C142.931 93.6056 141.926 93.4388 141.421 93.1325C141.392 93.1158 141.365 93.0956 141.338 93.0746C141.06 92.8472 140.881 92.3847 140.763 91.9634C140.717 91.794 140.681 91.6325 140.652 91.4947C140.636 91.4183 140.618 91.3296 140.602 91.2313V91.2305C140.505 90.6678 140.436 89.8164 140.878 89.5057C141.397 89.1397 142.704 89.1125 143.57 89.1669C144.223 89.2073 145.635 89.3837 145.901 89.8972C146.093 90.2667 145.943 91.1453 145.743 91.801C145.665 92.0599 145.579 92.2837 145.503 92.4286ZM153.711 91.4955C153.707 91.5113 153.704 91.528 153.7 91.5438C153.598 92.0257 153.404 92.7577 153.031 93.0693C153.003 93.0939 152.973 93.115 152.942 93.1334C152.435 93.4397 151.432 93.6065 150.593 93.4985C149.753 93.3906 149.193 93.0658 148.861 92.4294C148.776 92.2679 148.678 92.0073 148.592 91.7106C148.407 91.0663 148.278 90.2509 148.461 89.8989C148.728 89.3846 150.14 89.209 150.793 89.1687C151.658 89.1142 152.966 89.1414 153.485 89.5075C153.953 89.8366 153.848 90.7732 153.744 91.3305C153.733 91.3893 153.721 91.4455 153.711 91.4955Z" fill="#1A1A1A"/>
<path d="M163.276 109.004C163.276 109.004 169.412 111.579 170.664 113.082C171.917 114.585 176.175 127.411 176.175 134.141C176.175 140.872 177.176 151.205 176.175 153.151C175.172 155.096 170.664 164.74 167.659 166.966C164.653 169.191 163.421 169.025 163.421 169.025L162.687 159.007L165.906 143.158L164.272 119.278L163.276 109.004Z" fill="#E2B897"/>
<path d="M147.048 163.628C146.74 165.087 146.349 170.809 145.991 177.101C145.977 177.365 145.962 177.63 145.947 177.895H130.393C130.222 168.321 130.54 159.126 130.54 159.126C130.54 159.126 130.686 159.134 130.951 159.15C131.086 159.159 131.252 159.169 131.446 159.183C131.464 159.185 131.483 159.186 131.503 159.187C131.507 159.187 131.51 159.187 131.514 159.188C132.925 159.287 135.682 159.513 138.489 159.934C139.955 160.155 141.435 160.428 142.744 160.764C144.58 161.234 146.079 161.829 146.727 162.573C146.772 162.625 146.813 162.676 146.85 162.729V162.73C146.874 162.766 146.897 162.8 146.917 162.837C147.057 163.084 147.107 163.347 147.048 163.628Z" fill="#755FAA"/>
<path d="M163.421 160.762V177.895H146.204L146.054 177.218L145.991 177.1L142.606 170.796L138.723 163.659L138.083 162.482L138.01 162.347L137.148 160.762H163.421Z" fill="#755FAA"/>
<path d="M142.236 104.636H152.596L153.939 107.092L163.277 108.975C163.277 108.975 169.503 112.004 169.686 112.495C169.869 112.987 172.066 138.365 171.15 144.587C170.234 150.809 170.784 157.686 169.868 160.796C168.952 163.907 131.967 162.106 131.967 162.106C131.967 162.106 124.46 115.934 126.84 113.805C129.22 111.677 141.182 108.375 141.579 107.665C141.976 106.956 142.236 104.636 142.236 104.636Z" fill="#FF7C90"/>
<path d="M171.149 144.848C170.234 151.111 170.784 158.032 169.867 161.163C169.537 162.29 164.699 163.819 158.427 163.98C153.676 164.102 148.118 162.684 143.397 162.569C143.04 162.56 142.687 162.552 142.338 162.545C136.485 162.422 131.965 162.482 131.965 162.482C131.965 162.482 124.458 116.008 126.838 113.866C128.926 111.987 138.385 109.199 140.947 108.061L148.371 121.351L154.855 107.296L163.274 109.005C163.274 109.005 169.5 112.053 169.683 112.547C169.867 113.042 172.065 138.585 171.149 144.848Z" fill="#E2B897"/>
<path d="M163.24 137.061C163.146 137.061 163.069 136.984 163.067 136.888L162.957 128.931C162.943 127.938 162.519 124.922 162.516 124.892C162.502 124.797 162.567 124.707 162.663 124.694C162.756 124.681 162.845 124.747 162.858 124.843C162.876 124.968 163.289 127.911 163.304 128.927L163.414 136.884C163.416 136.981 163.339 137.06 163.244 137.062C163.242 137.061 163.241 137.061 163.24 137.061Z" fill="#B08174"/>
<path d="M144.706 98.0188C144.871 98.8781 146.028 99.4855 147.363 99.3881C148.523 99.3038 149.444 98.714 149.658 97.9907L144.706 98.0188Z" fill="white"/>
<path d="M148.477 121.538C148.415 121.538 148.358 121.504 148.327 121.449L144.795 115.128C144.748 115.044 144.777 114.937 144.86 114.888C144.943 114.841 145.049 114.87 145.096 114.954L148.463 120.979L152.642 111.92C152.682 111.832 152.785 111.794 152.872 111.836C152.959 111.877 152.996 111.981 152.955 112.069L148.634 121.436C148.606 121.496 148.548 121.535 148.484 121.537C148.482 121.537 148.48 121.538 148.477 121.538Z" fill="#B08174"/>
<path d="M157.473 164.16C155.438 164.16 152.988 164 150.391 163.484C143.93 162.198 139.541 162.6 139.498 162.605C139.401 162.613 139.317 162.543 139.309 162.447C139.3 162.35 139.369 162.264 139.465 162.255C139.509 162.251 143.949 161.844 150.458 163.14C157.078 164.457 162.815 163.416 162.867 163.404C162.96 163.382 163.053 163.442 163.075 163.536C163.096 163.63 163.038 163.725 162.946 163.746C162.914 163.753 160.723 164.16 157.473 164.16Z" fill="#1D1647"/>
<path d="M148.407 174.081C148.311 174.081 148.233 174.002 148.233 173.906V169.164C148.233 169.152 148.234 169.139 148.237 169.128L148.787 166.504C148.806 166.409 148.898 166.347 148.992 166.368C149.085 166.389 149.145 166.482 149.125 166.576L148.58 169.183V173.906C148.58 174.003 148.503 174.081 148.407 174.081Z" fill="#1D1647"/>
<path d="M63.0921 100.745C63.0921 100.745 65.2362 99.9406 67.1753 100.945C69.2398 102.015 70.2872 103.084 70.7624 112.07C71.2368 121.055 71.184 125.549 71.2368 126.244C71.2896 126.939 54.3579 126.725 54.3579 126.725V104.369L63.0921 100.745Z" fill="#0B0635"/>
<path d="M54.543 126.331C54.543 126.331 45.9231 127.283 46.085 142.345C46.2477 157.407 43.0804 156.356 45.6703 167.084C45.6703 167.084 51.5272 168.285 54.8841 165.858L54.5439 136.232V126.331H54.543Z" fill="#FCFCFC"/>
<path d="M75.5545 178L75.5666 177.895H47.9185C48.1946 176.219 48.8256 173.742 49.603 171.011C49.6748 170.758 49.7484 170.501 49.8228 170.244L49.8272 170.229C50.1007 169.282 50.3898 168.311 50.685 167.339L50.6989 167.292C52.0406 162.869 53.5069 158.426 54.3094 156.031C54.3102 156.029 54.3102 156.028 54.3102 156.027C54.4998 155.464 54.6522 155.013 54.756 154.704V154.703C54.8625 154.394 54.9196 154.225 54.9196 154.225H72.9108C72.9628 154.377 73.0545 154.769 73.1775 155.35V155.351C73.2086 155.496 73.2406 155.652 73.2753 155.82C73.631 157.555 74.179 160.458 74.7572 163.599C74.7581 163.6 74.7581 163.6 74.7572 163.601C74.8022 163.845 74.8472 164.088 74.8931 164.334C75.1519 165.743 75.4142 167.184 75.667 168.576C75.6964 168.739 75.7259 168.901 75.7544 169.063C75.8176 169.413 75.8808 169.758 75.9423 170.099C75.9475 170.129 75.9535 170.159 75.9579 170.188C76.0158 170.508 76.073 170.823 76.1284 171.133C76.1829 171.432 76.2349 171.725 76.2877 172.012C76.8451 175.115 77.2667 177.491 77.3385 177.894C77.3463 177.935 77.3498 177.955 77.3498 177.955L75.5545 178Z" fill="#FF7C90"/>
<path d="M54.9352 126.681C54.9352 126.681 51.026 127.832 51.5532 136.165C52.0804 144.497 47.6466 154.829 54.0315 156.031L71.6228 155.809C73.2822 155.787 74.6161 154.417 74.6161 152.735V126.494L70.9285 125.845L54.9352 126.681Z" fill="#FCFCFC"/>
<path d="M65.6985 123.676L59.3335 123.871L59.5516 118.328H65.3816L65.6985 123.676Z" fill="#F8BD8C"/>
<path d="M58.7822 122.858H66.907C67.4316 122.858 67.8843 123.253 67.9908 123.804L68.4521 126.186L57.2734 126.626L57.6889 123.858C57.7755 123.281 58.2386 122.858 58.7822 122.858Z" fill="#FCFCFC"/>
<path d="M65.4999 120.334C65.139 121.112 64.4759 121.884 63.5324 121.991C61.911 122.175 60.3304 120.352 59.5496 119.343C59.3938 119.141 59.3185 118.973 59.2319 118.858C59.3661 118.939 59.5739 119.079 59.9487 119.22C60.5737 119.458 61.531 119.705 62.8035 119.703C63.7254 119.702 64.43 119.479 64.939 119.22L65.4316 119.212L65.4999 120.334Z" fill="#EAB186"/>
<path d="M68.2337 111.818C68.3714 116.273 65.7528 119.972 62.3855 120.079C59.0183 120.186 56.1755 116.661 56.0379 112.206C55.9003 107.751 58.5188 104.052 61.8861 103.945C65.2542 103.838 68.0961 107.363 68.2337 111.818Z" fill="#F8BD8C"/>
<path d="M69.6233 112.305C69.6233 113.228 68.8338 114.118 68.1829 114.118C67.5319 114.118 67.0039 113.371 67.0039 112.448C67.0039 111.526 67.8687 110.778 68.5196 110.778C69.1714 110.778 69.6233 111.383 69.6233 112.305Z" fill="#F8BD8C"/>
<path d="M65.9885 109.423C65.9392 109.423 65.8899 109.415 65.8405 109.399C64.5317 108.964 63.6704 109.36 63.634 109.376C63.3986 109.488 63.1147 109.386 63.003 109.147C62.8913 108.908 62.9874 108.624 63.222 108.508C63.2713 108.484 64.4434 107.922 66.1357 108.484C66.385 108.566 66.5209 108.838 66.4387 109.091C66.3738 109.294 66.1885 109.423 65.9885 109.423Z" fill="black"/>
<path d="M56.8921 110.185C56.7398 110.185 56.5909 110.112 56.4991 109.975C56.3528 109.756 56.4056 109.46 56.6194 109.309C56.6645 109.279 57.7387 108.541 59.4959 108.836C59.7547 108.879 59.9296 109.128 59.8872 109.389C59.8448 109.652 59.5981 109.828 59.341 109.785C57.9828 109.559 57.1899 110.081 57.157 110.103C57.0756 110.158 56.983 110.185 56.8921 110.185Z" fill="black"/>
<path d="M62.1112 113.982H61.6369C61.5927 113.982 61.5581 113.946 61.5581 113.902V112.097C61.5581 112.053 61.5936 112.017 61.6369 112.017C61.681 112.017 61.7157 112.053 61.7157 112.097V113.822H62.1112C62.1554 113.822 62.19 113.858 62.19 113.902C62.19 113.946 62.1554 113.982 62.1112 113.982Z" fill="black"/>
<path d="M59.1051 111.706C59.1051 112.077 58.8688 112.378 58.5779 112.378C58.2862 112.378 58.0508 112.077 58.0508 111.706C58.0508 111.334 58.2871 111.033 58.5779 111.033C58.8688 111.034 59.1051 111.335 59.1051 111.706Z" fill="black"/>
<path d="M65.236 111.034C65.236 111.406 64.9997 111.707 64.7088 111.707C64.4171 111.707 64.1816 111.406 64.1816 111.034C64.1816 110.663 64.418 110.363 64.7088 110.363C65.0005 110.362 65.236 110.663 65.236 111.034Z" fill="black"/>
<path d="M60.2148 116.216C60.3932 117.041 61.3505 117.577 62.4109 117.423C63.332 117.29 64.0349 116.677 64.1656 115.966L60.2148 116.216Z" fill="#FCFCFC"/>
<path d="M62.9301 100.57C64.5852 103.936 60.5894 105.145 59.0763 106.967C57.423 108.958 56.2795 112.89 56.3686 115.507C56.6119 122.649 58.9932 128.375 54.3483 134.911C55.3108 130.942 53.8471 127.908 52.6265 124.305C51.2839 120.343 51.3065 116.282 51.7704 112.166C52.1193 109.064 52.2335 104.047 54.5335 101.706C55.8536 100.36 61.8749 98.4246 62.9301 100.57Z" fill="#0B0635"/>
<path d="M62.5474 103.971C62.5474 103.971 63.2875 105.291 64.946 106.103C67.2945 107.252 67.7974 111.035 67.7974 111.035L68.7505 110.508L66.9058 103.47L62.5474 103.971Z" fill="#0B0635"/>
<path d="M76.1403 170.165L74.9708 169.777C74.9708 169.777 74.8254 169.567 74.9864 169.298C75.1474 169.03 75.5309 169.039 75.717 169.058C75.9039 169.077 76.2909 169.225 76.2909 169.225C76.2909 169.225 76.7488 168.694 77.218 168.453C77.218 168.453 77.0959 167.801 77.3132 167.376C77.3132 167.376 76.8328 166.879 76.8847 166.146C76.8847 166.146 76.8354 166.059 76.7627 165.923C76.7012 165.951 76.5826 166.005 76.5064 166.05C76.4 166.112 76.3904 166.465 76.4328 166.677C76.4753 166.889 76.522 167.561 76.4554 167.946C76.3887 168.33 76.0996 168.591 75.6676 168.577C75.2357 168.562 75.2218 168.133 75.1379 167.752C75.0539 167.371 75.0903 167.014 75.1197 166.328C75.15 165.643 74.9743 165.299 74.8453 164.652C74.7163 164.004 74.7631 163.483 74.7631 163.483C74.8202 162.943 75.0323 162.29 75.0885 162.121C75.0262 161.731 75.0314 161.364 75.1534 161.09C75.3733 160.599 74.6592 157.017 74.6592 157.017L78.2697 157.431L77.9338 161.483C77.9338 161.483 79.0644 163.882 79.4383 164.961C79.8123 166.038 80.0849 166.607 80.0321 167.143C80.0321 167.143 79.4833 169.298 78.9198 169.775C78.3424 170.263 77.0578 171.119 76.6821 171.149C76.2779 171.18 75.2028 171.034 75.2028 171.034C75.2028 171.034 74.963 171.023 74.7847 170.924C74.7847 170.924 74.6116 170.927 74.7449 170.56C74.8799 170.194 75.2504 170.285 76.1403 170.165Z" fill="#F8BD8C"/>
<path d="M72.627 126.117C72.627 126.117 77.6796 125.75 79.4593 132.936C81.2391 140.122 81.0521 142.815 80.9578 147.392C80.8643 151.969 86.1281 161.005 81.3499 166.829C81.3499 166.829 77.3048 164.787 73.5575 164.011C73.5575 164.011 72.9022 163.286 73.277 155.734C73.6519 148.182 72.627 126.117 72.627 126.117Z" fill="#FCFCFC"/>
<path d="M50.698 167.292C50.698 167.292 49.197 167.386 48.9053 167.382C48.9053 167.382 48.9269 169.504 49.8012 170.226L49.822 170.244L50.698 167.292Z" fill="#EAB186"/>
<path d="M53.1588 152.085C53.0714 152.085 52.996 152.018 52.9865 151.928C52.9796 151.857 52.8125 150.169 53.1908 148.407C53.3847 147.503 53.2523 146.983 53.0514 146.194C52.8731 145.493 52.6515 144.621 52.5615 143.145C52.3667 139.967 53.531 138.176 53.5803 138.101C53.634 138.02 53.7413 137.999 53.821 138.054C53.9006 138.108 53.9214 138.217 53.8677 138.298C53.8496 138.325 52.7208 140.082 52.9077 143.124C52.996 144.566 53.2133 145.42 53.3882 146.107C53.5933 146.914 53.7413 147.497 53.531 148.481C53.1648 150.189 53.331 151.874 53.3328 151.891C53.3423 151.988 53.2739 152.074 53.1787 152.084C53.1709 152.084 53.1648 152.085 53.1588 152.085Z" fill="#CCDDE7"/>
<path d="M72.7687 154.788C72.7626 154.788 72.7566 154.788 72.7505 154.787C72.6553 154.778 72.586 154.691 72.5964 154.594C72.7384 153.209 72.8449 151.962 72.7194 150.73C72.6536 150.084 72.5748 149.436 72.4986 148.809C72.329 147.417 72.1541 145.977 72.1177 144.516C72.1151 144.419 72.1905 144.339 72.2865 144.336C72.3818 144.332 72.4614 144.41 72.464 144.507C72.5003 145.952 72.6665 147.32 72.8431 148.767C72.9193 149.395 72.9989 150.045 73.0647 150.694C73.1937 151.959 73.0855 153.226 72.9418 154.631C72.9314 154.721 72.8561 154.788 72.7687 154.788Z" fill="#CCDDE7"/>
<path d="M64.4745 156.205H54.0315C53.9363 156.205 53.8584 156.126 53.8584 156.03C53.8584 155.933 53.9363 155.854 54.0315 155.854H64.4745C64.5697 155.854 64.6476 155.933 64.6476 156.03C64.6476 156.126 64.5697 156.205 64.4745 156.205Z" fill="#DC4070"/>
<path d="M207.13 99.7759H198.541V107.63H207.13V99.7759Z" fill="#F8BD8C"/>
<path d="M207.13 100.417V102.859C206.501 103.504 205.641 104.015 204.56 104.115C202.238 104.326 199.968 102.578 198.541 101.224V100.414C198.547 100.416 198.554 100.418 198.561 100.42C199.609 100.736 201.208 101.066 203.341 101.064C204.884 101.062 206.064 100.766 206.915 100.42L207.13 100.417Z" fill="#EAB186"/>
<path d="M196.974 93.0747C197.08 94.3869 196.575 95.4998 195.844 95.5613C195.114 95.6227 194.434 94.6081 194.328 93.2958C194.221 91.9836 194.727 90.8707 195.457 90.8092C196.188 90.7487 196.867 91.7624 196.974 93.0747Z" fill="#F2B588"/>
<path d="M211.098 93.3449C210.944 94.6528 210.23 95.6411 209.502 95.5533C208.774 95.4655 208.308 94.3341 208.461 93.0263C208.615 91.7185 209.33 90.7301 210.058 90.8179C210.786 90.9057 211.252 92.0371 211.098 93.3449Z" fill="#F2B588"/>
<path d="M202.786 102.513C206.636 102.513 209.757 98.2937 209.757 93.0888C209.757 87.8839 206.636 83.6646 202.786 83.6646C198.936 83.6646 195.815 87.8839 195.815 93.0888C195.815 98.2937 198.936 102.513 202.786 102.513Z" fill="#F8BD8C"/>
<path d="M201.071 79.2467C200.864 79.2467 198.996 77.8581 196.59 80.1719C194.184 82.4856 194.737 82.037 194.073 82.6541C193.409 83.2711 193.575 83.9224 192.689 84.4938C191.804 85.0661 191.639 85.3461 192.026 86.0193C192.412 86.6926 192.683 87.3658 191.829 87.8143C190.975 88.2628 190.642 88.3752 191.085 88.7675C191.528 89.1599 191.155 89.6795 192.15 89.8471C193.146 90.0157 193.685 90.1228 193.851 90.5528C194.017 90.9829 194.39 90.9829 194.888 91.1515C195.386 91.32 195.469 91.4043 195.635 91.6562C195.801 91.9089 195.98 91.8247 195.98 91.8247C195.98 91.8247 196.986 89.3354 197.037 88.2663C197.088 87.1973 197.419 88.2909 198.208 87.1973C198.996 86.1036 199.157 86.1958 199.826 85.3356C200.496 84.4754 200.099 85.0152 200.647 84.4025C201.196 83.7908 201.071 79.2467 201.071 79.2467Z" fill="#E2B897"/>
<path d="M202.842 95.9078C202.762 95.9078 202.704 95.9051 202.682 95.9043C202.637 95.9025 202.601 95.863 202.604 95.8165C202.606 95.77 202.644 95.7322 202.69 95.7366C203.019 95.7524 203.59 95.7164 203.722 95.5567C203.848 95.4031 203.788 94.5183 203.704 93.9399C203.697 93.8942 203.729 93.8512 203.774 93.8442C203.82 93.8372 203.861 93.8697 203.868 93.9153C203.904 94.1602 204.07 95.3969 203.85 95.6646C203.673 95.8788 203.122 95.9078 202.842 95.9078Z" fill="#080305"/>
<path d="M200.532 97.7993H205.137C205.137 97.7993 203.671 100.246 201.408 98.6621C201.331 98.6068 200.532 97.7993 200.532 97.7993Z" fill="white"/>
<path d="M201.138 90.001C200.867 90.0299 200.584 90.0519 200.31 90.0738C200.034 90.0984 199.759 90.1203 199.487 90.1493C199.216 90.1783 198.947 90.2143 198.682 90.252C198.418 90.2959 198.16 90.345 197.902 90.3995L197.885 90.403C197.703 90.4407 197.525 90.3222 197.488 90.137C197.458 89.986 197.53 89.8377 197.657 89.7684C197.934 89.6174 198.228 89.5165 198.522 89.4418C198.817 89.3708 199.115 89.3277 199.412 89.3023C199.709 89.2821 200.005 89.276 200.3 89.2935C200.596 89.3102 200.885 89.3409 201.184 89.4094C201.343 89.4454 201.443 89.606 201.407 89.7675C201.379 89.8956 201.273 89.986 201.151 89.9992L201.138 90.001Z" fill="#080305"/>
<path d="M204.437 89.409C204.737 89.3405 205.024 89.3089 205.321 89.2931C205.616 89.2765 205.912 89.2817 206.209 89.3019C206.506 89.3274 206.804 89.3704 207.099 89.4415C207.394 89.5161 207.688 89.617 207.964 89.768C208.127 89.8575 208.188 90.0647 208.1 90.2306C208.029 90.3657 207.879 90.4324 207.737 90.4026L207.72 90.3991C207.462 90.3455 207.203 90.2955 206.939 90.2516C206.673 90.2139 206.405 90.1779 206.134 90.1489C205.862 90.12 205.588 90.0971 205.311 90.0734C205.037 90.0506 204.754 90.0296 204.483 90.0006L204.47 89.9988C204.308 89.9813 204.19 89.8338 204.208 89.6697C204.222 89.5389 204.317 89.4371 204.437 89.409Z" fill="#080305"/>
<path d="M199.854 92.3241C199.854 92.7463 199.597 93.0886 199.28 93.0886C198.964 93.0886 198.707 92.7463 198.707 92.3241C198.707 91.9019 198.964 91.5596 199.28 91.5596C199.597 91.5596 199.854 91.9019 199.854 92.3241Z" fill="#080305"/>
<path d="M206.725 92.3241C206.725 92.7463 206.468 93.0886 206.151 93.0886C205.834 93.0886 205.577 92.7463 205.577 92.3241C205.577 91.9019 205.834 91.5596 206.151 91.5596C206.468 91.5596 206.725 91.9019 206.725 92.3241Z" fill="#080305"/>
<path d="M199.891 82.4882C199.891 82.4882 200.057 85.7929 203.128 86.6074C203.128 86.6074 203.999 86.517 204.663 87.7845C205.327 89.0519 204.622 88.9159 205.41 89.3231C206.199 89.7304 206.116 89.2775 207.361 89.8208C208.605 90.3641 208.191 90.7372 209.103 91.2752C210.015 91.8124 211.8 91.4051 212.049 90.9531C212.298 90.5002 212.713 90.365 212.837 89.9121C212.962 89.4592 212.837 87.4676 212.837 87.4676C212.837 87.4676 211.343 86.381 210.846 85.1135C210.348 83.846 211.012 83.3027 209.933 82.4882C208.855 81.6736 207.195 80.9495 206.863 80.587C206.531 80.2245 206.116 78.4146 204.706 78.505C203.295 78.5954 201.552 78.4532 200.93 78.5015C200.307 78.5498 199.976 79.0931 199.893 79.6821C199.809 80.2701 199.891 82.4882 199.891 82.4882Z" fill="#E2B897"/>
<path d="M220.851 177.895H204.937C204.615 173.673 204.333 169.353 204.292 166.781C204.283 166.263 204.292 165.479 204.292 165.479L203.539 177.895H185.46C185.474 174.406 185.657 170.151 186.149 165.111C186.166 164.939 186.184 164.765 186.202 164.593C186.37 162.919 186.572 161.16 186.816 159.315C186.901 158.656 186.992 157.984 187.089 157.302C187.192 156.577 187.301 155.84 187.416 155.09C187.5 154.536 187.589 153.975 187.681 153.408C187.724 153.141 187.768 152.871 187.813 152.602V152.601C187.892 152.128 187.971 151.651 188.056 151.168C188.217 150.231 188.388 149.278 188.568 148.306H218.01C218.01 148.306 218.137 148.822 218.336 149.753C218.407 150.073 218.484 150.442 218.568 150.856C218.568 150.859 218.569 150.86 218.569 150.863C218.584 150.936 218.6 151.01 218.614 151.086C218.793 151.968 218.998 153.035 219.211 154.254C219.377 155.2 219.547 156.237 219.715 157.346C219.99 159.176 220.256 161.206 220.474 163.36C220.509 163.712 220.544 164.068 220.578 164.427C220.967 168.68 221.152 173.354 220.851 177.895Z" fill="#FF7C90"/>
<path d="M215.048 107.976C215.048 107.976 221.492 110.022 222.807 111.215C224.122 112.409 228.593 122.596 228.593 127.941C228.593 133.287 229.645 141.494 228.593 143.039C227.542 144.584 222.807 152.245 219.651 154.012C216.495 155.779 215.201 155.647 215.201 155.647L214.429 147.689L217.809 135.102L216.095 116.134L215.048 107.976Z" fill="#755FAA"/>
<path d="M194.912 106.42C195.619 106.152 197.513 105.607 198.838 106.107C200.163 106.608 203.353 107.108 204.874 106.42C206.396 105.732 208.358 105.639 209.733 105.936C211.107 106.233 214.984 107.046 217.241 108.922C219.499 110.799 220.872 146.207 218.786 149.21C218.058 150.259 214.429 153.834 208.683 152.762C204.092 151.905 198.886 155.651 193.987 153.1C190.161 151.108 187.109 151.088 187.109 151.088C187.109 151.088 182.496 119.809 185.048 112.677C185.047 112.676 185.341 110.048 194.912 106.42Z" fill="#755FAA"/>
<path d="M204.292 165.655C204.29 165.655 204.288 165.655 204.286 165.655C204.191 165.651 204.115 165.57 204.119 165.473C204.148 164.569 204.632 163.924 205.364 162.947C205.902 162.228 206.573 161.333 207.307 160.012C207.354 159.927 207.459 159.897 207.542 159.945C207.625 159.992 207.655 160.099 207.608 160.184C206.862 161.526 206.184 162.431 205.639 163.158C204.923 164.114 204.49 164.691 204.464 165.483C204.462 165.58 204.385 165.655 204.292 165.655Z" fill="#1D1647"/>
<path d="M195.033 106.901C195.033 106.901 189.774 110.166 187.505 111.52C185.237 112.874 183.754 114.854 183.23 115.999C182.706 117.145 181.485 118.186 181.572 118.916C181.66 119.645 179.566 122.77 179.13 125.374C178.693 127.978 177.908 136.624 177.908 136.937C177.908 137.249 179.304 144.437 179.304 144.437C179.304 144.437 183.405 149.436 184.277 150.583C185.15 151.728 187.768 153.603 188.117 153.603C188.465 153.603 190.647 151.833 190.559 150.061C190.472 148.29 189.862 143.186 189.251 142.353C188.773 141.702 188.188 141.114 187.748 140.24C187.625 139.997 187.513 139.731 187.418 139.436C186.982 138.082 188.203 134.853 188.203 134.853C188.203 134.853 192.13 123.395 191.955 121.833C191.78 120.27 193.089 114.749 192.74 113.291C192.392 111.832 195.033 106.901 195.033 106.901Z" fill="#755FAA"/>
<path d="M196.921 154.1C193.854 154.1 192.464 152.41 192.405 152.336C192.344 152.261 192.355 152.15 192.43 152.089C192.504 152.028 192.613 152.039 192.673 152.115C192.695 152.141 194.118 153.853 197.209 153.745C199.885 153.651 201.234 153.322 202.318 153.057C202.541 153.003 202.752 152.951 202.967 152.904C204.923 152.469 207.634 151.952 208.599 152.496C208.682 152.543 208.712 152.649 208.666 152.734C208.62 152.819 208.515 152.849 208.431 152.803C207.468 152.261 204.137 153.003 203.042 153.247C202.831 153.294 202.621 153.345 202.399 153.399C201.3 153.667 199.932 154 197.221 154.096C197.12 154.098 197.019 154.1 196.921 154.1Z" fill="#1D1647"/>
<path d="M188.203 138.572C188.124 138.572 188.051 138.516 188.034 138.432C187.639 136.541 187.841 134.841 188.632 133.378C189.36 132.034 189.829 130.672 190.326 129.23C190.617 128.385 190.918 127.512 191.274 126.65C191.312 126.56 191.413 126.518 191.501 126.556C191.59 126.594 191.631 126.696 191.594 126.786C191.242 127.638 190.942 128.506 190.653 129.346C190.173 130.738 189.677 132.177 188.936 133.548C188.185 134.934 187.996 136.553 188.373 138.361C188.393 138.455 188.333 138.548 188.24 138.569C188.227 138.57 188.215 138.572 188.203 138.572Z" fill="#1D1647"/>
<path d="M202.144 106.961C200.828 106.961 198.587 106.215 198.486 106.181C198.395 106.15 198.346 106.051 198.376 105.959C198.406 105.867 198.504 105.817 198.595 105.847C198.621 105.856 201.214 106.719 202.389 106.598C203.052 106.529 203.497 106.546 203.792 106.557C203.982 106.564 204.146 106.57 204.192 106.54C204.273 106.487 204.38 106.511 204.431 106.593C204.483 106.674 204.46 106.783 204.379 106.835C204.242 106.924 204.068 106.918 203.779 106.907C203.494 106.896 203.063 106.881 202.424 106.946C202.336 106.957 202.243 106.961 202.144 106.961Z" fill="#1D1647"/>
<path d="M246.831 122.388C245.351 124.318 243.024 125.891 240.556 125.962C240.321 125.968 239.919 125.996 239.383 126.039C235.458 126.354 224.36 127.536 219.458 128.064C217.994 128.22 217.082 128.321 217.078 128.321C216.49 128.385 216.046 126.215 216.025 125.896C215.951 124.789 216.34 123.715 216.868 122.765C217.406 121.798 218.582 120.674 218.148 119.458C217.765 118.379 216.295 118.153 215.657 117.208C215.198 116.526 215.271 115.587 215.633 114.849C216.166 113.757 217.163 112.841 218.241 112.337C219.17 111.904 219.969 111.398 220.386 110.52C220.48 110.326 220.553 110.113 220.606 109.877C220.896 108.556 220.631 106.892 221.52 105.732C222.26 104.766 224.058 103.748 225.751 101.818C226.017 101.513 226.29 101.228 226.567 100.96C226.628 100.9 226.692 100.84 226.755 100.782C228.182 99.454 229.705 98.6333 230.985 98.5473C232.572 98.4402 235.215 98.815 235.797 100.37C236.379 101.925 237.119 101.711 238.071 102.3C239.023 102.89 241.191 103.373 241.683 106.733C241.963 108.627 241.682 109.521 241.673 110.158C241.669 110.525 241.754 110.806 242.088 111.145C242.202 111.262 242.347 111.385 242.53 111.522C244.152 112.738 245.844 113.737 246.832 115.312C247.816 116.883 248.312 120.458 246.831 122.388Z" fill="#231347"/>
<path d="M246.83 122.387C245.35 124.317 243.023 125.889 240.554 125.96C240.32 125.967 239.917 125.995 239.382 126.038C239.52 125.244 239.638 124.305 239.57 123.674C239.435 122.387 239.355 122.958 239.073 122.1C238.792 121.243 239.638 119.885 239.566 118.883C239.496 117.883 238.369 117.24 237.873 115.452C237.381 113.666 238.454 112.544 238.454 112.544L241.67 110.157C241.666 110.524 241.751 110.805 242.085 111.143C242.199 111.261 242.345 111.384 242.527 111.521C244.149 112.736 245.842 113.736 246.829 115.311C247.816 116.882 248.311 120.457 246.83 122.387Z" fill="#31185E"/>
<path d="M234.888 124.986C234.286 125.254 233.578 125.502 232.788 125.664H229.072C228.527 125.551 227.964 125.381 227.387 125.141L227.431 123.105L227.733 118.286L227.757 117.905L227.812 117.033L234.024 117.203L234.127 118.024L234.329 119.633L234.768 123.14L234.888 124.986Z" fill="#F8BD8C"/>
<path d="M238.575 112.221C238.363 113.035 237.635 113.546 236.948 113.362C236.261 113.179 235.874 112.371 236.085 111.558C236.296 110.744 237.024 110.233 237.712 110.417C238.399 110.6 238.785 111.408 238.575 112.221Z" fill="#F8BD8C"/>
<path d="M246.327 126.948L245.079 156.535L235.866 156.83L218.165 157.395L216.755 126.464L227.432 123.105C227.432 123.105 229.974 125.038 234.769 123.141C234.884 123.095 235.39 123.192 236.132 123.378C237.287 123.669 239.013 124.175 240.72 124.695C241.495 125.268 242.275 125.833 243.822 126.001C244.58 126.084 245.469 126.443 246.327 126.948Z" fill="white"/>
<path d="M225.396 114.229C225.396 114.229 225.961 117.137 224.937 118.997C223.916 120.856 223.493 120.964 223.916 122.66C224.339 124.359 224.43 123.972 224.339 124.963C224.293 125.495 221.806 126.935 219.458 128.063C217.994 128.219 217.083 128.32 217.078 128.32C216.491 128.384 216.047 126.214 216.025 125.895C215.951 124.788 216.34 123.713 216.869 122.764C217.407 121.796 218.582 120.673 218.148 119.456C217.766 118.378 216.296 118.152 215.657 117.207C215.198 116.525 215.272 115.586 215.634 114.847C216.167 113.755 217.163 112.84 218.242 112.336C219.171 111.903 219.97 111.397 220.387 110.519C220.48 110.324 220.554 110.112 220.607 109.876C220.897 108.555 220.632 106.891 221.521 105.73C222.261 104.765 224.059 103.747 225.751 101.816C226.018 101.512 226.29 101.227 226.567 100.959C226.629 100.899 226.692 100.839 226.755 100.781L227.358 107.603L225.396 114.229Z" fill="#31185E"/>
<path d="M236.888 110.949C236.888 115.568 234.285 119.313 231.072 119.313C227.86 119.313 224.938 115.783 224.938 111.163C224.938 106.543 227.86 102.584 231.072 102.584C234.285 102.584 236.888 106.329 236.888 110.949Z" fill="#F8BD8C"/>
<path d="M228.703 108.716C228.55 108.668 228.346 108.622 228.159 108.59C227.967 108.557 227.774 108.532 227.579 108.52C227.191 108.492 226.8 108.504 226.415 108.555L226.409 108.556C226.189 108.585 225.988 108.428 225.96 108.205C225.932 107.987 226.08 107.787 226.291 107.751C226.732 107.676 227.179 107.645 227.623 107.661C227.845 107.667 228.067 107.688 228.288 107.717C228.514 107.749 228.72 107.784 228.968 107.853C229.206 107.918 229.347 108.168 229.282 108.409C229.217 108.65 228.971 108.794 228.733 108.728C228.728 108.726 228.724 108.725 228.719 108.723L228.703 108.716Z" fill="black"/>
<path d="M232.34 107.896C232.59 107.833 232.797 107.804 233.023 107.778C233.246 107.754 233.467 107.739 233.691 107.739C234.136 107.734 234.582 107.775 235.02 107.861C235.238 107.904 235.38 108.118 235.337 108.338C235.297 108.554 235.095 108.696 234.883 108.664L234.877 108.663C234.493 108.602 234.103 108.58 233.713 108.599C233.519 108.607 233.325 108.627 233.132 108.654C232.945 108.681 232.739 108.723 232.585 108.767L232.571 108.772C232.333 108.841 232.086 108.701 232.018 108.461C231.949 108.22 232.087 107.969 232.324 107.9C232.328 107.898 232.335 107.897 232.34 107.896Z" fill="black"/>
<path d="M228.358 110.048C228.358 110.397 228.113 110.68 227.811 110.68C227.51 110.68 227.265 110.396 227.265 110.048C227.265 109.699 227.51 109.416 227.811 109.416C228.113 109.416 228.358 109.7 228.358 110.048Z" fill="black"/>
<path d="M234.025 110.156C234.025 110.505 233.78 110.788 233.479 110.788C233.177 110.788 232.933 110.504 232.933 110.156C232.933 109.807 233.178 109.524 233.479 109.524C233.78 109.523 234.025 109.807 234.025 110.156Z" fill="black"/>
<path d="M226.353 111.163C226.796 111.874 226.64 112.78 226.003 113.188C225.367 113.597 224.491 113.352 224.048 112.641C223.604 111.93 223.76 111.023 224.397 110.615C225.034 110.207 225.91 110.452 226.353 111.163Z" fill="#F8BD8C"/>
<path d="M242.087 111.143C241.158 111.967 240.044 112.943 239.921 113.13C239.71 113.451 237.834 113.491 238.142 112.995C238.243 112.832 238.652 110.396 237.225 110.61C235.797 110.824 235.692 109.966 235.323 109.377C234.955 108.787 235.267 107.232 235.321 106.677C235.374 106.124 234.581 105.302 233.576 105.677C232.571 106.053 230.509 106.964 229.927 106.588C229.346 106.212 229.822 105.034 228.129 105.301C226.437 105.569 226.384 103.318 226.384 103.318L226.566 100.958C228.049 99.5257 229.648 98.6357 230.984 98.5453C232.571 98.4382 235.215 98.813 235.796 100.368C236.378 101.923 237.118 101.709 238.07 102.299C239.022 102.888 241.19 103.371 241.683 106.731C242.122 109.713 241.171 110.217 242.087 111.143Z" fill="#31185E"/>
<path d="M246.267 177.894H218.464C218.58 173.564 219.57 168.523 220.577 164.425C220.677 164.016 220.779 163.615 220.878 163.226C221.578 160.502 222.245 158.322 222.585 157.253C222.732 156.789 222.817 156.535 222.817 156.535L226.569 156.331L227.638 156.272L236.013 155.817L241.325 155.528C241.325 155.528 241.347 155.945 241.425 156.65C241.586 158.122 241.989 160.848 242.946 163.648C243.283 164.64 243.69 165.642 244.182 166.6C245.558 169.296 246.079 174.081 246.267 177.894Z" fill="#E2B897"/>
<path d="M226.283 123.052C226.375 123.034 226.457 123.112 226.448 123.205C226.314 124.605 225.466 133.379 225.272 133.774C225.06 134.203 224.848 135.991 224.778 137.42C224.708 138.85 224.708 139.351 224.778 141.353C224.848 143.355 225.06 145.499 225.272 146.857C225.483 148.215 226.364 153.023 226.418 154.363C226.47 155.704 226.523 156.302 226.788 157.478C227.052 158.653 227.475 159.779 227.37 160.583C227.264 161.387 216.318 164.657 216.318 164.657C216.318 164.657 215.208 163.907 215.049 162.727C214.891 161.548 214.151 160.958 213.992 159.725C213.833 158.491 213.427 151.255 214.274 147.769C215.12 144.283 211.947 141.709 212.088 141.138C212.229 140.565 212.194 130.504 213.199 129.538C214.204 128.573 216.727 126.214 218.698 125.999C220.669 125.785 221.394 124.927 222.452 124.23C223.351 123.639 225.622 123.177 226.283 123.052Z" fill="#C5A2FD"/>
<path d="M223.299 141.549C223.245 141.549 223.19 141.523 223.156 141.474C222.854 141.031 222.976 140.684 223.105 140.316C223.247 139.905 223.41 139.44 223.135 138.604C222.887 137.852 222.502 137.259 222.128 136.687C221.698 136.026 221.291 135.403 221.189 134.643C221.1 133.983 221.346 133.06 221.584 132.168C221.838 131.212 222.102 130.223 221.874 129.789C221.642 129.348 221.111 128.925 220.597 128.515C220.084 128.106 219.6 127.719 219.427 127.321C219.319 127.072 219.336 126.6 220.725 125.372C221.449 124.732 222.224 124.174 222.232 124.169C222.31 124.113 222.418 124.132 222.473 124.211C222.529 124.29 222.51 124.4 222.432 124.456C221.006 125.479 219.587 126.817 219.744 127.18C219.883 127.498 220.334 127.858 220.811 128.239C221.353 128.672 221.913 129.118 222.179 129.624C222.472 130.181 222.203 131.19 221.918 132.259C221.689 133.117 221.452 134.006 221.532 134.596C221.623 135.277 221.99 135.84 222.416 136.494C222.784 137.059 223.201 137.698 223.462 138.494C223.775 139.444 223.575 140.016 223.429 140.433C223.311 140.774 223.239 140.979 223.44 141.274C223.494 141.354 223.474 141.463 223.395 141.518C223.368 141.538 223.333 141.549 223.299 141.549Z" fill="#9E4AFF"/>
<path d="M213.198 129.648C212.916 130.253 209.371 133.943 209.008 136.629C208.646 139.316 207.377 140.324 207.482 143.682C207.588 147.04 207.165 148.16 208.646 149.839C210.126 151.518 210.126 152.974 211.184 155.101C212.242 157.228 211.087 158.236 213.197 159.579C215.308 160.923 216.154 153.758 217.74 152.415C219.327 151.072 218.374 151.265 217.74 149.041C217.105 146.817 214.462 144.69 214.356 143.907C214.251 143.123 215.026 142.125 215.202 141.507C215.344 141.008 216.682 129.36 216.894 127.898C217.105 126.435 215.778 127.36 215.778 127.36L213.198 129.648Z" fill="#C5A2FD"/>
<path d="M216.078 156.041C216.057 156.041 216.034 156.037 216.013 156.028C215.925 155.991 215.883 155.889 215.918 155.799C216.699 153.859 216.871 153.641 217.156 153.28C217.264 153.143 217.386 152.989 217.57 152.699C217.859 152.241 218.048 152.029 218.174 151.889C218.331 151.713 218.373 151.667 218.434 151.317C218.525 150.803 218.085 150.383 217.977 150.289C217.878 150.248 217.842 150.089 217.594 148.732C217.391 147.626 216.519 145.709 215.475 145.137C214.965 144.859 214.379 144.455 214.371 143.803C214.367 143.45 214.491 143.127 214.611 142.815L214.641 142.736C215.252 141.134 215.517 139.405 215.698 137.925C215.773 137.31 215.791 136.685 215.807 136.079C215.824 135.478 215.841 134.855 215.915 134.238C215.926 134.142 216.012 134.073 216.107 134.085C216.202 134.096 216.27 134.184 216.258 134.28C216.187 134.881 216.17 135.494 216.154 136.089C216.136 136.702 216.119 137.337 216.042 137.967C215.859 139.468 215.588 141.223 214.965 142.861L214.935 142.941C214.822 143.235 214.716 143.513 214.718 143.798C214.724 144.265 215.187 144.58 215.64 144.827C216.794 145.458 217.715 147.462 217.936 148.667C218.115 149.645 218.183 149.938 218.207 150.024C218.363 150.16 218.899 150.687 218.777 151.379C218.701 151.81 218.621 151.912 218.432 152.124C218.307 152.264 218.137 152.454 217.862 152.888C217.669 153.193 217.541 153.355 217.428 153.499C217.162 153.835 217.002 154.038 216.24 155.931C216.212 156 216.147 156.041 216.078 156.041ZM218.215 150.057H218.215H218.215Z" fill="#9E4AFF"/>
<path d="M227.638 156.448C227.547 156.448 227.47 156.375 227.465 156.282C227.459 156.185 227.533 156.102 227.628 156.097L237.59 155.549C237.682 155.544 237.767 155.618 237.773 155.715C237.778 155.812 237.704 155.895 237.609 155.9L227.647 156.448C227.644 156.448 227.641 156.448 227.638 156.448Z" fill="#B08174"/>
<path d="M248.245 147.77C249.09 151.255 248.685 158.492 248.527 159.725C248.369 160.958 247.628 161.548 247.469 162.727C247.34 163.686 246.584 164.361 246.304 164.581C246.241 164.631 246.159 164.645 246.082 164.622C244.898 164.266 235.247 161.338 235.149 160.583C235.042 159.779 235.466 158.653 235.729 157.477C235.782 157.241 235.827 157.029 235.865 156.829C236.015 156.032 236.058 155.434 236.1 154.363C236.153 153.023 237.033 148.216 237.245 146.857C237.456 145.499 237.668 143.354 237.739 141.352C237.809 139.35 237.809 138.85 237.739 137.42C237.668 135.99 237.456 134.203 237.245 133.774C237.056 133.391 236.29 125.173 236.129 123.428C236.127 123.412 236.127 123.394 236.129 123.377C236.143 123.237 236.273 123.131 236.418 123.156C237.202 123.289 239.221 123.674 240.065 124.23C240.291 124.381 240.503 124.538 240.716 124.694C241.492 125.267 242.272 125.831 243.819 126C244.577 126.083 245.466 126.442 246.325 126.947C247.613 127.705 248.833 128.796 249.44 129.776C250.577 131.609 250.145 134.244 250.234 136.295C250.3 137.814 250.063 139.654 250.429 141.137C250.572 141.711 247.399 144.283 248.245 147.77Z" fill="#C5A2FD"/>
<path d="M238.641 141.682C238.608 141.682 238.573 141.671 238.543 141.65C238.464 141.595 238.445 141.485 238.499 141.406C238.699 141.112 238.628 140.906 238.509 140.565C238.364 140.147 238.164 139.576 238.476 138.625C238.737 137.829 239.155 137.19 239.522 136.626C239.948 135.973 240.315 135.408 240.406 134.727C240.486 134.138 240.249 133.249 240.02 132.391C239.736 131.322 239.466 130.312 239.759 129.756C240.025 129.25 240.585 128.804 241.127 128.371C241.604 127.99 242.055 127.63 242.194 127.311C242.359 126.931 241.081 125.529 239.8 124.446C239.727 124.384 239.717 124.274 239.778 124.199C239.839 124.124 239.949 124.115 240.022 124.176C240.694 124.743 242.857 126.657 242.51 127.453C242.336 127.851 241.852 128.237 241.34 128.646C240.827 129.056 240.296 129.48 240.064 129.921C239.836 130.354 240.099 131.343 240.354 132.3C240.592 133.192 240.838 134.115 240.748 134.775C240.646 135.535 240.239 136.159 239.809 136.819C239.436 137.392 239.05 137.985 238.802 138.737C238.528 139.572 238.69 140.039 238.833 140.448C238.961 140.816 239.082 141.164 238.781 141.606C238.75 141.655 238.696 141.682 238.641 141.682Z" fill="#9E4AFF"/>
<path d="M249.278 129.648C249.561 130.253 253.105 133.943 253.468 136.629C253.831 139.316 255.1 140.324 254.994 143.682C254.889 147.04 255.312 148.16 253.831 149.839C252.351 151.518 252.35 152.974 251.293 155.101C250.235 157.228 251.39 158.236 249.279 159.579C247.169 160.923 246.322 153.758 244.736 152.415C243.15 151.072 244.102 151.265 244.736 149.041C245.371 146.817 248.015 144.69 248.12 143.907C248.226 143.123 247.45 142.125 247.274 141.507C247.133 141.008 245.794 129.36 245.582 127.898C245.371 126.435 246.698 127.36 246.698 127.36L249.278 129.648Z" fill="#C5A2FD"/>
<path d="M243.867 158.063C243.804 158.063 243.743 158.028 243.712 157.967C243.709 157.961 243.392 157.341 242.666 156.665C242.546 156.554 242.428 156.452 242.314 156.355C241.701 155.83 241.172 155.377 241.365 154.109C241.474 153.389 241.694 153.067 241.928 152.726C242.168 152.375 242.416 152.013 242.615 151.131C243.014 149.352 245.6 142.463 245.71 142.171C245.744 142.08 245.844 142.035 245.933 142.069C246.022 142.103 246.068 142.205 246.034 142.295C246.007 142.367 243.347 149.454 242.953 151.209C242.739 152.158 242.46 152.566 242.214 152.926C241.995 153.246 241.805 153.523 241.708 154.162C241.545 155.236 241.941 155.575 242.539 156.087C242.656 156.187 242.777 156.291 242.902 156.407C243.678 157.129 244.009 157.781 244.023 157.809C244.066 157.896 244.032 158.002 243.947 158.046C243.921 158.057 243.894 158.063 243.867 158.063Z" fill="#9E4AFF"/>
<path d="M231.58 177.275C231.484 177.275 231.406 177.196 231.406 177.099V166.691L229.166 164.792C229.093 164.73 229.083 164.62 229.144 164.545C229.206 164.47 229.315 164.461 229.389 164.523L231.69 166.474C231.729 166.508 231.753 166.557 231.753 166.609V177.098C231.753 177.197 231.675 177.275 231.58 177.275Z" fill="#B08174"/>
<path d="M234.328 119.632C233.875 120.257 233.195 120.792 232.299 120.882C230.471 121.065 228.686 119.344 227.733 118.286L227.757 117.905C227.852 117.944 227.96 117.986 228.084 118.027C228.82 118.272 229.945 118.526 231.442 118.524C232.526 118.523 233.355 118.294 233.954 118.027L234.127 118.024L234.328 119.632Z" fill="#EAB186"/>
<path d="M230.834 112.674H230.36C230.317 112.674 230.281 112.638 230.281 112.594V110.789C230.281 110.745 230.317 110.709 230.36 110.709C230.403 110.709 230.439 110.745 230.439 110.789V112.514H230.834C230.878 112.514 230.913 112.55 230.913 112.593C230.914 112.638 230.879 112.674 230.834 112.674Z" fill="black"/>
<path d="M230.527 115.706C230.165 115.706 229.791 115.64 229.423 115.503C229.378 115.486 229.355 115.436 229.372 115.391C229.388 115.345 229.437 115.321 229.482 115.339C230.571 115.744 231.732 115.493 232.305 114.731C232.334 114.692 232.388 114.684 232.426 114.714C232.464 114.743 232.471 114.798 232.443 114.837C232.02 115.399 231.307 115.706 230.527 115.706Z" fill="#1A1A1A"/>
<path d="M224.938 112.949C224.938 113.02 224.881 113.077 224.812 113.077C224.742 113.077 224.686 113.019 224.686 112.949C224.686 112.878 224.743 112.821 224.812 112.821C224.882 112.821 224.938 112.878 224.938 112.949Z" fill="black"/>
<path d="M237.193 112.993C237.193 113.064 237.136 113.121 237.067 113.121C236.998 113.121 236.94 113.063 236.94 112.993C236.94 112.922 236.997 112.865 237.067 112.865C237.137 112.865 237.193 112.922 237.193 112.993Z" fill="black"/>
<path d="M224.342 112.675C224.395 112.675 224.438 112.632 224.438 112.578C224.438 112.525 224.395 112.482 224.342 112.482C224.29 112.482 224.247 112.525 224.247 112.578C224.247 112.632 224.29 112.675 224.342 112.675Z" fill="black"/>
<path d="M186.428 121.077L183.437 124.687L182.486 125.834L174.039 136.029L174.536 121.814C175.689 121.742 176.589 120.773 176.589 119.602V114.828L182.587 115.049C182.668 115.596 182.749 116.144 182.831 116.692C182.845 116.785 182.858 116.878 182.872 116.97C182.875 116.984 182.876 116.997 182.878 117.011C182.925 117.325 182.953 117.696 182.988 118.086C182.995 118.165 183.002 118.245 183.01 118.325C183.148 119.73 183.447 121.262 185.082 121.159L186.428 121.077Z" fill="#F8BD8C"/>
<path d="M182.987 118.088C182.583 118.801 181.924 119.455 181.022 119.554C179.301 119.745 177.622 117.865 176.794 116.825C176.706 116.713 176.642 116.612 176.588 116.524V116.403C176.728 116.485 176.925 116.591 177.218 116.698C177.882 116.943 178.897 117.198 180.249 117.196C181.227 117.194 181.976 116.965 182.516 116.698L182.829 116.693C182.843 116.786 182.857 116.879 182.871 116.971C182.873 116.985 182.874 116.998 182.877 117.012C182.923 117.327 182.951 117.698 182.987 118.088Z" fill="#EAB186"/>
<path d="M185.674 113.621C185.674 113.621 192.834 112.834 189.921 103.748C187.006 94.6615 178.045 96.804 178.045 96.804C178.045 96.804 171.415 99.5434 170.614 105.302C169.812 111.061 174.62 112.641 174.62 112.641L185.674 113.621Z" fill="black"/>
<path d="M182.551 97.2693C182.551 97.2693 184.607 93.768 183.814 92.8894C183.022 92.0108 182.026 90.9908 180.024 91.3551C178.022 91.7202 177.597 93.732 177.789 94.4035C177.981 95.0758 178.474 96.4135 179.125 97.4993C179.778 98.5859 182.551 97.2693 182.551 97.2693Z" fill="black"/>
<path d="M174.447 109.563C174.038 113.922 176.377 117.715 179.672 118.034C182.968 118.352 185.971 115.076 186.382 110.716C186.791 106.356 184.452 102.564 181.157 102.245C177.861 101.926 174.857 105.202 174.447 109.563Z" fill="#F8BD8C"/>
<path d="M179.429 101.161C179.429 101.161 181.907 106.221 186.714 108.955C191.523 111.688 187.188 102.011 187.188 102.011L179.429 101.161Z" fill="black"/>
<path d="M172.625 109.078C172.625 110.074 173.477 111.035 174.179 111.035C174.881 111.035 175.45 110.228 175.45 109.233C175.45 108.237 174.517 107.431 173.815 107.431C173.112 107.43 172.625 108.083 172.625 109.078Z" fill="#F8BD8C"/>
<path d="M187.591 109.583C187.591 110.578 186.739 111.54 186.037 111.54C185.335 111.54 184.766 110.733 184.766 109.738C184.766 108.742 185.699 107.936 186.401 107.936C187.103 107.936 187.591 108.588 187.591 109.583Z" fill="#F8BD8C"/>
<path d="M177.406 108.89C177.406 109.275 177.642 109.587 177.932 109.587C178.222 109.587 178.457 109.274 178.457 108.89C178.457 108.504 178.222 108.193 177.932 108.193C177.642 108.192 177.406 108.504 177.406 108.89Z" fill="black"/>
<path d="M183.257 109.93C183.547 109.93 183.782 109.618 183.782 109.233C183.782 108.848 183.547 108.536 183.257 108.536C182.967 108.536 182.731 108.848 182.731 109.233C182.731 109.618 182.967 109.93 183.257 109.93Z" fill="black"/>
<path d="M178.809 107.275C178.767 107.281 178.723 107.28 178.678 107.274C177.503 107.097 176.783 107.462 176.753 107.478C176.557 107.581 176.301 107.537 176.185 107.38C176.069 107.223 176.131 107.012 176.326 106.908C176.366 106.886 177.345 106.372 178.865 106.599C179.088 106.633 179.228 106.811 179.177 106.998C179.135 107.146 178.983 107.256 178.809 107.275Z" fill="black"/>
<path d="M184.797 107.645C184.754 107.636 184.713 107.622 184.673 107.603C183.606 107.071 182.811 107.196 182.778 107.202C182.56 107.238 182.331 107.118 182.266 106.932C182.202 106.747 182.325 106.565 182.543 106.526C182.588 106.518 183.674 106.331 185.053 107.016C185.255 107.117 185.335 107.331 185.23 107.492C185.146 107.623 184.968 107.68 184.797 107.645Z" fill="black"/>
<path d="M180.59 111.674C180.5 111.674 180.411 111.646 180.339 111.591C180.116 111.426 180.105 111.31 180.131 111.044L180.238 109.923C180.243 109.881 180.28 109.851 180.321 109.854C180.362 109.859 180.392 109.896 180.388 109.938L180.28 111.059C180.257 111.298 180.265 111.35 180.427 111.469C180.489 111.516 180.57 111.533 180.649 111.516L180.929 111.456C180.969 111.447 181.01 111.474 181.018 111.515C181.027 111.556 181.001 111.597 180.96 111.605L180.68 111.665C180.65 111.671 180.619 111.674 180.59 111.674Z" fill="#080305"/>
<path d="M178.235 113.623C178.367 114.483 179.318 115.097 180.418 115.007C181.375 114.928 182.135 114.344 182.315 113.621L178.235 113.623Z" fill="white"/>
<path d="M174.102 110.413C174.19 110.464 174.22 110.578 174.169 110.667C174.119 110.756 174.006 110.786 173.919 110.735C173.831 110.684 173.801 110.57 173.852 110.481C173.902 110.393 174.014 110.362 174.102 110.413Z" fill="#080305"/>
<path d="M186.484 110.775C186.571 110.826 186.602 110.94 186.551 111.028C186.5 111.117 186.388 111.148 186.3 111.096C186.213 111.044 186.183 110.931 186.234 110.842C186.284 110.754 186.396 110.724 186.484 110.775Z" fill="#080305"/>
<path d="M190.759 163.09L185.752 165.284L182.865 162.204L189.16 157.598L191.84 162.66L190.759 163.09Z" fill="#F8BD8C"/>
<path d="M162.402 175.293L163.533 174.918C163.533 174.918 163.673 174.716 163.517 174.456C163.361 174.196 162.991 174.204 162.811 174.223C162.63 174.242 162.256 174.384 162.256 174.384C162.256 174.384 161.813 173.87 161.36 173.638C161.36 173.638 161.478 173.007 161.268 172.597C161.268 172.597 161.733 172.117 161.682 171.407C161.682 171.407 161.73 171.322 161.8 171.191C161.859 171.218 161.974 171.27 162.047 171.313C162.15 171.373 162.159 171.715 162.118 171.92C162.077 172.125 162.032 172.776 162.097 173.147C162.161 173.518 162.441 173.771 162.858 173.757C163.276 173.743 163.289 173.328 163.371 172.959C163.452 172.591 163.417 172.246 163.388 171.583C163.359 170.92 163.529 170.588 163.654 169.962C163.778 169.336 163.733 168.833 163.733 168.833C163.677 168.311 163.473 167.679 163.417 167.516C163.478 167.139 163.473 166.784 163.354 166.52C163.141 166.045 163.832 162.583 163.832 162.583L160.342 162.984L160.667 166.9C160.667 166.9 159.574 169.219 159.212 170.262C158.85 171.305 158.587 171.854 158.637 172.372C158.637 172.372 159.168 174.456 159.713 174.917C160.271 175.388 161.512 176.216 161.875 176.245C162.266 176.275 163.305 176.134 163.305 176.134C163.305 176.134 163.536 176.123 163.709 176.028C163.709 176.028 163.876 176.03 163.747 175.676C163.621 175.32 163.263 175.409 162.402 175.293Z" fill="#F8BD8C"/>
<path d="M168.46 124.361C168.46 124.361 165.441 126.034 165.004 128.396C164.566 130.758 163.11 134.093 162.308 135.481C161.506 136.871 160.487 139.719 160.341 140.692C160.196 141.664 158.156 155.626 158.738 158.961C159.321 162.295 158.869 164.888 159.993 165.352C161.118 165.815 164.712 165.352 164.712 165.352L169.958 132.934L168.46 124.361Z" fill="#ABABAB"/>
<path d="M190.322 177.895H161.353C161.419 177.328 161.491 176.741 161.569 176.139C161.659 175.446 161.757 174.73 161.865 173.996C161.929 173.564 161.995 173.126 162.065 172.682V172.681C162.38 170.694 162.762 168.587 163.23 166.401V166.401C163.26 166.259 163.29 166.118 163.321 165.976C163.321 165.975 163.321 165.974 163.322 165.973C163.355 165.82 163.388 165.669 163.423 165.516C163.425 165.504 163.428 165.492 163.431 165.48C163.579 164.814 163.735 164.141 163.9 163.464C163.996 163.065 164.095 162.663 164.198 162.261C164.614 160.628 165.079 158.971 165.598 157.305C165.598 157.305 165.598 157.305 165.598 157.304C165.69 157.009 165.783 156.714 165.879 156.418C165.879 156.418 165.964 156.334 166.193 156.207C166.701 155.925 167.915 155.431 170.465 155.18V155.18C170.469 155.18 170.473 155.179 170.477 155.179C171.721 155.057 173.282 154.994 175.233 155.042C177.396 155.094 180.038 155.283 183.258 155.68C183.258 155.68 183.435 156.306 183.739 157.305C184.015 158.211 184.395 159.426 184.839 160.758C185.249 161.986 185.713 163.312 186.202 164.591C186.256 164.733 186.31 164.874 186.365 165.015C187.002 166.648 187.675 168.174 188.317 169.273C189.256 170.879 189.911 174.327 190.322 177.895Z" fill="#190444"/>
<path d="M165.877 147.038C165.95 146.299 166.349 141.349 166.349 141.349C166.349 141.349 166.605 134.331 166.364 131.893C166.21 130.363 167.264 127.346 168.069 125.313C168.209 124.961 168.34 124.642 168.46 124.362L170.027 123.706L175.398 121.454C175.398 121.454 174.329 129.628 174.912 134.061C174.912 134.061 183.459 125.001 185.208 120.864C185.208 120.864 191.036 121.945 192.494 121.75C193.951 121.553 197.256 122.438 198.614 132.782C199.974 143.124 204.346 148.541 204.541 150.414C204.734 152.284 205.707 154.353 203.375 156.717C201.044 159.08 197.157 162.724 196.673 163.416C196.186 164.104 191.427 165.286 191.427 165.286L186.482 156.184C186.322 155.888 186.446 155.517 186.752 155.383C187.582 155.02 189.071 154.364 189.484 154.155C190.066 153.859 193.806 151.891 193.806 151.891C193.806 151.891 190.868 147.852 190.504 143.566C190.341 141.651 190.266 140.139 190.234 139.045C190.19 142.719 189.726 150.395 186.766 154.352L185.209 157.307H165.599C165.599 157.307 165.501 156.686 165.599 156.137C165.772 155.149 165.805 147.776 165.877 147.038Z" fill="#ABABAB"/>
<path d="M160.72 165.583C160.705 165.583 160.69 165.582 160.674 165.577L159.62 165.285C159.372 165.217 159.07 164.92 158.928 163.225C158.857 162.378 158.859 161.542 158.86 161.449L158.462 156.66C158.461 156.652 158.461 156.644 158.462 156.635L158.714 152.515C158.724 152.425 159.609 144.41 159.891 142.628C160.185 140.763 160.631 138.55 161.709 136.273C162.778 134.013 164.578 129.451 164.596 129.405C164.632 129.315 164.732 129.272 164.821 129.307C164.911 129.343 164.953 129.444 164.918 129.535C164.9 129.58 163.096 134.154 162.022 136.424C160.964 138.661 160.524 140.843 160.234 142.682C159.955 144.456 159.07 152.464 159.061 152.545L158.81 156.644L159.209 161.427C159.209 161.433 159.209 161.438 159.209 161.444C159.194 163.263 159.426 164.866 159.715 164.947L160.769 165.239C160.862 165.265 160.916 165.361 160.891 165.455C160.865 165.532 160.796 165.583 160.72 165.583Z" fill="#8E8D8E"/>
<path d="M165.305 154.017C165.259 154.017 165.212 153.997 165.178 153.96C165.123 153.898 164.63 153.241 164.559 149.223C164.488 145.203 165.29 142.204 165.504 141.897C165.56 141.818 165.668 141.8 165.746 141.856C165.824 141.912 165.842 142.02 165.787 142.099C165.641 142.338 164.834 145.213 164.905 149.216C164.973 153.017 165.411 153.689 165.439 153.727C165.497 153.799 165.491 153.905 165.423 153.969C165.389 154.001 165.348 154.017 165.305 154.017Z" fill="#8E8D8E"/>
<path d="M174.912 134.235C174.893 134.235 174.873 134.232 174.855 134.226C174.793 134.204 174.748 134.147 174.741 134.08C174.735 134.025 174.144 128.509 175.194 121.511C175.208 121.416 175.296 121.349 175.391 121.364C175.485 121.379 175.55 121.468 175.536 121.564C174.649 127.483 174.942 132.327 175.052 133.67C176.487 132.194 183.42 124.937 185.049 120.798C185.084 120.707 185.185 120.664 185.274 120.7C185.363 120.736 185.406 120.837 185.371 120.928C183.533 125.596 175.382 133.836 175.036 134.184C175.001 134.217 174.957 134.235 174.912 134.235Z" fill="#8E8D8E"/>
<path d="M196.672 163.589C196.633 163.589 196.593 163.576 196.56 163.548C196.488 163.486 196.477 163.375 196.539 163.3C196.557 163.28 198.266 161.229 201.49 158.341L201.603 158.24C202.717 157.243 204.103 156.003 204.537 154.534C205.075 152.707 204.688 150.547 203.387 148.111C202.31 146.094 201.468 143.92 200.654 141.816C200.566 141.59 200.479 141.365 200.391 141.139C200.356 141.049 200.4 140.947 200.489 140.912C200.578 140.877 200.679 140.921 200.714 141.011C200.801 141.237 200.888 141.462 200.976 141.689C201.786 143.782 202.624 145.947 203.691 147.944C205.038 150.464 205.434 152.716 204.868 154.635C204.406 156.2 202.978 157.478 201.831 158.504L201.719 158.604C198.516 161.473 196.821 163.506 196.804 163.526C196.771 163.568 196.721 163.589 196.672 163.589Z" fill="#8E8D8E"/>
<path d="M189.448 147.552C189.437 147.552 189.426 147.551 189.416 147.549C189.322 147.53 189.26 147.439 189.278 147.343C189.279 147.338 189.379 146.797 189.594 145.452C189.808 144.113 190.057 139.086 190.06 139.035C190.064 138.938 190.148 138.863 190.242 138.868C190.337 138.872 190.41 138.955 190.406 139.052C190.396 139.259 190.153 144.15 189.937 145.508C189.721 146.859 189.62 147.404 189.619 147.409C189.602 147.493 189.529 147.552 189.448 147.552Z" fill="#8E8D8E"/>
<path d="M178.978 123.43C178.722 123.43 178.477 123.398 178.241 123.332C176.625 122.882 176.086 120.996 176.081 120.977L176.164 120.953C176.169 120.972 176.695 122.811 178.265 123.247C179.706 123.647 181.544 122.781 183.729 120.669L183.789 120.732C181.934 122.526 180.32 123.43 178.978 123.43Z" fill="#080305"/>
<path d="M131.912 164.776C131.912 164.776 133.727 165.324 134.087 165.403C134.087 165.403 133.465 168.001 132.189 168.636L132.159 168.651L131.912 164.776Z" fill="#EAB186"/>
<path d="M130.344 123.246C130.344 123.246 130.817 122.878 131.424 123.42C134.658 126.303 134.347 131.321 134.302 132.609C134.257 133.896 135.419 138.593 136.03 140.356C136.641 142.118 137.381 143.161 137.833 146.229C138.285 149.296 137.832 155.361 137.883 156.108C137.935 156.856 138.526 160.486 138.836 161.481C139.067 162.225 138.8 164.486 137.995 164.849C137.189 165.212 136.666 165.685 133.701 165.313C130.736 164.941 131.495 163.944 131.446 162.555C131.398 161.168 130.967 159.928 130.954 159.31C130.941 158.692 130.823 157.524 130.828 155.972C130.834 154.421 130.94 155.024 130.641 153.521C130.341 152.018 128.191 144.419 128.97 142.547C129.749 140.676 126.832 134.402 126.879 133.929C126.926 133.456 126.175 129.157 126.175 129.157C126.175 129.157 126.814 127.134 127.832 125.689C128.85 124.245 130.197 123.444 130.344 123.246Z" fill="#1A1A1A"/>
<path d="M119.234 149.581V155.3L119.113 161.079L119.094 161.962C119.095 161.962 119.094 161.963 119.094 161.964L118.759 177.895H105.185L106.509 161.689L106.657 159.891L106.696 159.398L106.769 158.516C106.769 158.516 106.769 158.516 106.769 158.515L107.051 155.06L107.322 151.737L107.499 149.581H119.234Z" fill="#ABABAB"/>
<path d="M133.041 177.895H119.467L119.125 161.675C119.125 161.675 119.126 161.674 119.125 161.673L119.114 161.079L118.992 155.3V149.581H130.727L131.416 158.006V158.006L131.512 159.188L131.523 159.319V159.323L131.586 160.084V160.085L131.971 164.795L131.976 164.854L132.281 168.588L133.041 177.895Z" fill="#ABABAB"/>
<path d="M105.844 116.847C105.844 116.847 105.077 111.974 106.952 109.47C108.828 106.966 108.23 104.82 108.23 103.658C108.23 102.496 108.571 98.8293 110.191 97.4881C111.811 96.1469 112.493 93.196 117.778 94.2686C117.778 94.2686 119.142 93.4637 122.637 93.9104C126.132 94.3572 127.581 99.0074 127.752 99.9914C127.922 100.975 128.264 103.032 129.116 104.015C129.969 104.999 130.821 107.234 130.224 109.469C129.628 111.705 129.6 112.152 130.423 114.209C131.246 116.266 130.821 116.847 130.821 116.847C130.821 116.847 120.847 121.006 105.844 116.847Z" fill="#D1D1D3"/>
<path d="M123.02 120.603H114.698L115.546 114.715L115.603 114.321L115.721 113.495H121.997L122.131 114.423L122.375 116.124L123.02 120.603Z" fill="#F8BD8C"/>
<path d="M122.376 116.124C121.903 116.751 121.205 117.282 120.291 117.371C118.396 117.559 116.547 115.81 115.546 114.715L115.603 114.321C115.689 114.356 115.785 114.391 115.893 114.426C116.661 114.679 117.835 114.94 119.396 114.939C120.528 114.937 121.392 114.7 122.017 114.426L122.131 114.424L122.376 116.124Z" fill="#EAB186"/>
<path d="M118.576 115.64C122.496 115.64 125.674 111.281 125.674 105.904C125.674 100.526 122.496 96.167 118.576 96.167C114.656 96.167 111.478 100.526 111.478 105.904C111.478 111.281 114.656 115.64 118.576 115.64Z" fill="#F8BD8C"/>
<path d="M113.653 107.606C114.02 108.616 113.703 109.681 112.944 109.983C112.184 110.287 111.272 109.715 110.905 108.705C110.538 107.696 110.856 106.631 111.615 106.328C112.374 106.025 113.286 106.597 113.653 107.606Z" fill="#F8BD8C"/>
<path d="M124.455 107.608C124.089 108.617 124.406 109.682 125.165 109.985C125.925 110.287 126.837 109.715 127.203 108.705C127.569 107.696 127.252 106.631 126.492 106.328C125.733 106.025 124.821 106.598 124.455 107.608Z" fill="#F8BD8C"/>
<path d="M113.678 104.001C113.528 104.001 113.387 103.909 113.325 103.756C113.242 103.551 113.333 103.314 113.528 103.228C115.372 102.408 116.772 103.172 116.831 103.205C117.018 103.309 117.089 103.554 116.99 103.75C116.89 103.945 116.66 104.02 116.472 103.917C116.418 103.888 115.316 103.307 113.828 103.97C113.778 103.99 113.728 104.001 113.678 104.001Z" fill="#1A1A1A"/>
<path d="M120.489 104.001C120.34 104.001 120.198 103.909 120.136 103.756C120.053 103.551 120.145 103.314 120.34 103.228C122.183 102.408 123.584 103.172 123.643 103.205C123.83 103.309 123.901 103.554 123.801 103.75C123.702 103.945 123.472 104.02 123.284 103.917C123.23 103.888 122.128 103.307 120.64 103.97C120.591 103.99 120.54 104.001 120.489 104.001Z" fill="#1A1A1A"/>
<path d="M115.721 106.093C115.721 106.552 115.441 106.923 115.096 106.923C114.75 106.923 114.47 106.551 114.47 106.093C114.47 105.633 114.75 105.262 115.096 105.262C115.441 105.262 115.721 105.634 115.721 106.093Z" fill="#1A1A1A"/>
<path d="M122.623 106.093C122.623 106.552 122.343 106.923 121.997 106.923C121.652 106.923 121.372 106.551 121.372 106.093C121.372 105.633 121.652 105.262 121.997 105.262C122.343 105.262 122.623 105.634 122.623 106.093Z" fill="#1A1A1A"/>
<path d="M117.778 97.0412C117.778 97.0412 113.601 103.091 113.004 106.236C112.408 109.381 108.997 108.398 108.656 108.488C108.315 108.577 110.703 98.4728 110.703 98.4728L117.778 95.3428V97.0412Z" fill="#D1D1D3"/>
<path d="M117.778 94.9507V95.3422V97.0415C118.712 99.0251 119.888 100.889 121.293 102.54C122.783 104.291 124.642 105.817 126.461 107.171C126.77 107.401 127.224 107.652 127.509 107.909C127.253 106.38 126.786 104.854 126.5 103.33C126.244 101.959 126.079 100.503 125.663 99.1428C125.536 98.9418 117.778 94.9507 117.778 94.9507Z" fill="#D1D1D3"/>
<path d="M114.216 116.498C114.216 116.498 113.83 117.268 113.83 117.996C113.83 118.725 114.448 120.669 112.826 120.75C111.205 120.831 105.883 124.394 104.49 125.447C103.098 126.5 103.484 128.767 103.484 128.767C103.484 128.767 106.341 158.105 106.804 158.59C107.267 159.076 113.926 152.091 116.416 152.395C118.905 152.699 118.114 153.266 119.118 153.185C120.122 153.104 120.508 152.294 120.817 152.334C121.126 152.375 122.168 152.577 122.67 152.942C123.172 153.306 125.102 152.739 126.415 153.954C127.727 155.168 132.977 159.217 132.977 159.217C132.977 159.217 133.672 153.467 132.514 151.686C131.356 149.904 132.977 134.192 132.514 133.625C132.051 133.058 131.665 123.583 131.665 123.583C131.665 123.583 126.782 120.931 125.218 120.87C123.654 120.809 124.059 116.983 124.059 116.983L114.216 116.498Z" fill="#1A1A1A"/>
<path d="M118.575 112.621C118.213 112.621 117.838 112.555 117.47 112.418C117.425 112.402 117.403 112.351 117.419 112.306C117.435 112.26 117.486 112.237 117.53 112.254C118.619 112.659 119.78 112.409 120.353 111.646C120.381 111.607 120.436 111.6 120.474 111.629C120.512 111.658 120.519 111.713 120.49 111.752C120.068 112.315 119.354 112.621 118.575 112.621Z" fill="#1A1A1A"/>
<path d="M125.295 112.543C125.278 112.543 125.26 112.543 125.242 112.542C124.8 112.524 124.421 112.294 124.202 111.912C124.184 111.88 124.194 111.84 124.225 111.822C124.256 111.804 124.296 111.814 124.314 111.846C124.511 112.189 124.851 112.395 125.247 112.41C125.663 112.429 126.062 112.227 126.293 111.888C126.644 111.374 126.697 110.613 126.421 110.079C126.231 109.71 125.91 109.508 125.518 109.508C125.482 109.508 125.453 109.478 125.453 109.442C125.453 109.406 125.482 109.376 125.518 109.376C125.961 109.376 126.323 109.604 126.536 110.018C126.833 110.593 126.776 111.412 126.4 111.964C126.153 112.324 125.734 112.543 125.295 112.543Z" fill="#1A1A1A"/>
<path d="M111.837 112.543C111.398 112.543 110.978 112.324 110.732 111.963C110.403 111.481 110.377 110.81 110.665 110.254C110.92 109.76 111.376 109.465 111.885 109.465C111.921 109.465 111.95 109.495 111.95 109.531C111.95 109.567 111.921 109.597 111.885 109.597C111.418 109.597 111.015 109.859 110.78 110.315C110.514 110.829 110.537 111.446 110.839 111.888C111.07 112.227 111.471 112.428 111.885 112.411C112.282 112.395 112.623 112.188 112.819 111.846C112.837 111.815 112.877 111.804 112.908 111.822C112.939 111.841 112.95 111.881 112.932 111.912C112.713 112.295 112.333 112.525 111.891 112.542C111.872 112.543 111.855 112.543 111.837 112.543Z" fill="#1A1A1A"/>
<path d="M118.621 109.007H118.517C118.173 109.007 117.894 108.713 117.894 108.353V106.445C117.894 106.386 117.941 106.336 117.998 106.336C118.055 106.336 118.102 106.386 118.102 106.445V108.244C118.102 108.545 118.335 108.789 118.621 108.789C118.678 108.789 118.725 108.838 118.725 108.898C118.725 108.957 118.678 109.007 118.621 109.007Z" fill="#1A1A1A"/>
<path d="M115.355 157.008L111.619 154.707L111.881 153.932C112.067 153.663 112.277 153.349 112.035 153.117C111.786 152.878 111.385 152.825 111.069 152.988L106.894 155.141L103.941 157.591C105.859 159.509 107.276 159.656 108.14 159.431C108.23 159.472 108.32 159.513 108.413 159.55L111.616 160.802C111.906 160.958 112.282 160.884 112.473 160.634C112.612 160.453 112.697 160.146 112.099 159.778L112.697 160.146C113.004 160.311 113.401 160.228 113.596 159.959C113.777 159.722 113.652 159.366 113.308 159.102L113.772 159.333C114.107 159.513 114.549 159.407 114.732 159.086C114.89 158.807 114.766 158.465 114.477 158.288L113.818 157.883L114.585 157.969C114.953 158.138 115.459 158.2 115.64 157.852C115.796 157.551 115.658 157.196 115.355 157.008Z" fill="#F8BD8C"/>
<path d="M104.491 125.447C104.491 125.447 96.3401 133.274 95.58 134.455C94.8642 135.568 94.3863 135.837 93.8877 136.232C93.3891 136.627 93.5432 136.948 91.8457 139.797C90.5793 141.922 89.8219 145.446 90.6927 147.882C91.5938 150.401 93.9933 152.122 96.2171 153.35C98.6279 154.68 99.0884 155.111 101.012 156.298C102.936 157.486 103.44 157.711 104.491 158.85C105.118 159.53 106.61 159.854 107.509 160.149C107.905 160.279 108.39 159.83 108.506 159.413L110.251 153.41C110.251 153.41 108.744 149.635 105.728 148.103C104.008 147.228 101.999 146.315 101.016 145.435C100.218 144.721 103.106 143.203 103.705 142.68C104.198 142.249 106.105 140.509 106.445 140.391C106.785 140.272 107.804 135.316 107.804 135.242C107.804 135.168 104.491 125.447 104.491 125.447Z" fill="#1A1A1A"/>
<path d="M118.666 172.308C118.665 172.308 118.663 172.308 118.661 172.308C118.566 172.306 118.49 172.225 118.493 172.128C118.504 171.734 118.754 162.465 118.996 161.387C119.271 160.159 121.463 157.847 121.556 157.749C121.623 157.679 121.732 157.677 121.801 157.745C121.869 157.812 121.872 157.923 121.805 157.993C121.783 158.017 119.587 160.333 119.334 161.465C119.099 162.51 118.842 172.041 118.84 172.138C118.837 172.233 118.76 172.308 118.666 172.308Z" fill="#999999"/>
<path d="M104.952 141.839C104.901 141.839 104.851 141.816 104.816 141.773C104.757 141.696 104.77 141.587 104.845 141.526C105.864 140.708 106.771 139.712 107.541 138.564C107.674 138.367 107.801 138.134 107.935 137.888C108.25 137.309 108.577 136.712 109.056 136.41C109.138 136.36 109.244 136.385 109.294 136.468C109.344 136.55 109.319 136.658 109.238 136.709C108.835 136.961 108.532 137.518 108.238 138.057C108.1 138.311 107.969 138.55 107.828 138.761C107.038 139.937 106.107 140.96 105.06 141.801C105.028 141.827 104.99 141.839 104.952 141.839Z" fill="#333333"/>
<path d="M110.218 151.326C110.154 151.326 110.091 151.29 110.062 151.227C110.057 151.217 109.532 150.146 108.383 149.647C107.14 149.108 106.781 148.751 106.766 148.736C106.699 148.668 106.699 148.556 106.766 148.488C106.834 148.419 106.944 148.419 107.011 148.488C107.014 148.491 107.356 148.819 108.519 149.324C109.791 149.876 110.35 151.025 110.374 151.075C110.415 151.161 110.379 151.267 110.293 151.309C110.268 151.321 110.243 151.326 110.218 151.326Z" fill="#333333"/>
<path d="M131.662 155.307C131.648 155.307 131.634 155.305 131.62 155.301C131.528 155.278 131.471 155.184 131.493 155.089C131.495 155.08 131.704 154.164 131.421 152.493L131.36 152.137C131.206 151.239 131.2 151.204 131.3 150.733C131.34 150.546 131.395 150.29 131.461 149.855C131.7 148.301 130.313 142.852 130.299 142.797C130.274 142.703 130.33 142.607 130.422 142.583C130.515 142.558 130.609 142.615 130.634 142.708C130.692 142.936 132.053 148.283 131.803 149.909C131.735 150.354 131.679 150.615 131.639 150.806C131.552 151.21 131.552 151.21 131.701 152.076L131.762 152.432C132.058 154.184 131.839 155.132 131.829 155.171C131.811 155.253 131.74 155.307 131.662 155.307Z" fill="#333333"/>
</g>
</g>
<defs>
<clipPath id="clip0_704_618">
<rect width="261" height="325" rx="16" fill="white"/>
</clipPath>
<clipPath id="clip1_704_618">
<rect width="246" height="102" fill="white" transform="translate(9 76)"/>
</clipPath>
</defs>
</svg>
