<svg width="261" height="325" viewBox="0 0 261 325" fill="none" xmlns="http://www.w3.org/2000/svg">
<g clip-path="url(#clip0_704_700)">
<rect width="261" height="325" rx="16" fill="#ECFEEB"/>
<rect x="61.9131" y="167" width="7.33452" height="7.33452" rx="2" transform="rotate(12.2732 61.9131 167)" fill="#009344" fill-opacity="0.29"/>
<rect x="58.5591" y="177" width="7.33452" height="7.33452" rx="2" transform="rotate(12.2732 58.5591 177)" fill="#009344" fill-opacity="0.29"/>
<rect x="50.5591" y="167.696" width="7.33452" height="7.33452" rx="2" transform="rotate(12.2732 50.5591 167.696)" fill="#009344" fill-opacity="0.29"/>
<rect x="199.913" y="265" width="7.33452" height="7.33452" rx="2" transform="rotate(12.2732 199.913 265)" fill="#009344" fill-opacity="0.29"/>
<rect x="196.559" y="275" width="7.33452" height="7.33452" rx="2" transform="rotate(12.2732 196.559 275)" fill="#009344" fill-opacity="0.29"/>
<rect x="188.559" y="265.696" width="7.33452" height="7.33452" rx="2" transform="rotate(12.2732 188.559 265.696)" fill="#009344" fill-opacity="0.29"/>
<rect x="-16.5625" y="277" width="44.3966" height="44.3966" rx="2" transform="rotate(12.2732 -16.5625 277)" fill="#009344" fill-opacity="0.19"/>
<rect x="236.438" y="180" width="44.3966" height="44.3966" rx="2" transform="rotate(12.2732 236.438 180)" fill="#009344" fill-opacity="0.19"/>
<g clip-path="url(#clip1_704_700)">
<path d="M134.016 270.088C134.784 267.641 139.378 266.489 142.931 266.542C143.498 262.167 143.44 257.732 142.76 253.37C139.226 253.505 134.294 252.533 133.705 249.877C133.144 247.378 136.54 244.094 139.633 242.358C137.924 238.285 135.651 234.471 132.879 231.027C129.863 232.908 125.159 234.521 123.31 232.514C121.573 230.621 122.867 226.077 124.677 223.034C121.157 220.352 117.275 218.18 113.147 216.581C111.481 219.721 108.212 223.464 105.606 222.646C103.159 221.878 101.998 217.286 102.042 213.751C97.6514 213.172 93.2014 213.221 88.8266 213.894C88.9771 217.421 88.0109 222.338 85.3517 222.913C82.837 223.473 79.5476 220.075 77.8018 216.987C73.7224 218.686 69.9024 220.946 66.4526 223.701C68.342 226.721 69.96 231.413 67.9512 233.253C66.0641 234.984 61.5055 233.685 58.4513 231.874C55.7731 235.382 53.6073 239.251 52.0184 243.367C55.17 245.034 58.9228 248.29 58.1079 250.888C57.3402 253.335 52.7459 254.487 49.1928 254.434C48.6251 258.81 48.6854 263.247 49.3718 267.609C52.9055 267.473 57.8372 268.446 58.4189 271.099C58.9793 273.598 55.5837 276.882 52.4932 278.61C54.1963 282.682 56.4635 286.498 59.2284 289.944C62.2473 288.055 66.9489 286.45 68.7982 288.457C70.5427 290.352 69.2483 294.896 67.4306 297.937C70.9507 300.619 74.8327 302.791 78.9611 304.39C80.6373 301.244 83.8954 297.507 86.5018 298.325C88.9572 299.095 90.1098 303.685 90.0656 307.22C94.4603 307.787 98.9122 307.731 103.289 307.053C103.146 303.529 104.104 298.609 106.764 298.034C109.278 297.475 112.568 300.873 114.314 303.961C118.397 302.265 122.22 300.006 125.671 297.249C123.771 294.234 122.155 289.534 124.164 287.694C126.051 285.963 130.618 287.265 133.672 289.076C136.352 285.569 138.521 281.7 140.113 277.586C136.938 275.937 133.203 272.678 134.016 270.088ZM86.6668 290.425C80.7261 288.562 75.4696 284.984 71.562 280.145C67.6544 275.306 65.2712 269.423 64.7138 263.239C64.1563 257.055 65.4498 250.849 68.4304 245.405C71.4111 239.961 75.9451 235.524 81.4592 232.655C86.9733 229.785 93.2197 228.613 99.4086 229.285C105.598 229.958 111.451 232.445 116.229 236.433C121.006 240.42 124.494 245.729 126.25 251.688C128.006 257.646 127.952 263.987 126.095 269.909C123.604 277.849 118.051 284.471 110.657 288.319C103.262 292.166 94.633 292.924 86.6668 290.425Z" fill="#02934D"/>
<path d="M103.73 236.029C108.582 237.553 112.875 240.476 116.066 244.43C119.257 248.384 121.202 253.19 121.656 258.242C122.11 263.293 121.053 268.363 118.617 272.809C116.181 277.256 112.477 280.88 107.972 283.223C103.467 285.566 98.3647 286.523 93.3093 285.973C88.2538 285.423 83.4725 283.391 79.57 280.133C75.6674 276.876 72.8189 272.539 71.3846 267.671C69.9503 262.804 69.9945 257.624 71.5118 252.787C73.5545 246.304 78.0938 240.899 84.1337 237.757C90.1736 234.616 97.2209 233.994 103.73 236.029ZM104.336 234.096C99.0991 232.454 93.4946 232.396 88.2309 233.93C82.9672 235.464 78.2807 238.521 74.7641 242.714C71.2476 246.908 69.0588 252.05 68.4746 257.489C67.8904 262.929 68.9371 268.422 71.4822 273.275C74.0274 278.127 77.9567 282.12 82.7733 284.749C87.5899 287.379 93.0774 288.526 98.542 288.046C104.007 287.566 109.203 285.481 113.473 282.054C117.744 278.626 120.897 274.011 122.534 268.792C124.73 261.793 124.046 254.205 120.633 247.698C117.22 241.192 111.358 236.299 104.336 234.096Z" fill="#02934D"/>
<path d="M149.068 182.394C149.615 180.651 152.883 179.832 155.411 179.869C155.81 176.757 155.768 173.604 155.286 170.503C152.757 170.58 149.282 169.916 148.854 168.025C148.426 166.133 150.867 163.915 153.069 162.683C151.85 159.788 150.233 157.076 148.265 154.625C146.102 155.956 142.774 157.105 141.457 155.683C140.14 154.26 141.147 151.105 142.437 148.943C139.942 147.045 137.193 145.506 134.27 144.372C133.079 146.608 130.764 149.258 128.913 148.677C127.062 148.096 126.345 144.87 126.374 142.356C123.253 141.944 120.089 141.977 116.979 142.454C117.058 144.984 116.399 148.449 114.511 148.874C112.623 149.3 110.381 146.848 109.147 144.66C106.244 145.86 103.527 147.465 101.079 149.428C102.418 151.588 103.575 154.909 102.144 156.217C100.712 157.526 97.5383 156.487 95.374 155.234C93.4718 157.716 91.9312 160.454 90.7977 163.368C93.0449 164.551 95.7032 166.872 95.1243 168.718C94.5455 170.563 91.3121 171.272 88.7915 171.238C88.3775 174.357 88.4112 177.519 88.8915 180.63C91.4206 180.553 94.8956 181.217 95.3235 183.109C95.7513 185 93.3099 187.218 91.108 188.45C92.3268 191.342 93.9408 194.053 95.9042 196.505C98.0698 195.166 101.395 194.026 102.712 195.448C104.029 196.87 103.022 200.025 101.741 202.19C104.234 204.089 106.984 205.628 109.908 206.761C111.098 204.525 113.413 201.876 115.264 202.456C117.116 203.037 117.832 206.263 117.803 208.777C120.922 209.187 124.083 209.153 127.191 208.677C127.109 206.154 127.771 202.682 129.664 202.267C131.557 201.851 133.788 204.283 135.028 206.481C137.928 205.271 140.644 203.663 143.098 201.705C141.759 199.545 140.602 196.224 142.025 194.913C143.449 193.602 146.614 194.613 148.787 195.895C150.686 193.41 152.226 190.672 153.364 187.761C151.158 186.555 148.492 184.231 149.068 182.394ZM115.397 196.887C111.174 195.562 107.437 193.019 104.659 189.579C101.882 186.139 100.188 181.957 99.7913 177.561C99.3951 173.166 100.314 168.754 102.433 164.884C104.552 161.014 107.775 157.86 111.695 155.821C115.614 153.781 120.055 152.947 124.454 153.425C128.853 153.903 133.014 155.672 136.41 158.506C139.807 161.341 142.286 165.114 143.534 169.35C144.782 173.586 144.744 178.093 143.424 182.302C141.653 187.947 137.706 192.654 132.45 195.389C127.193 198.124 121.059 198.663 115.397 196.887Z" fill="#02934D"/>
<path d="M127.538 158.181C130.991 159.257 134.048 161.33 136.323 164.137C138.597 166.945 139.987 170.361 140.316 173.952C140.644 177.544 139.898 181.151 138.17 184.315C136.442 187.479 133.81 190.06 130.609 191.73C127.407 193.399 123.779 194.083 120.183 193.695C116.588 193.307 113.187 191.864 110.41 189.549C107.634 187.234 105.607 184.15 104.586 180.689C103.565 177.228 103.596 173.544 104.675 170.104C106.133 165.493 109.366 161.651 113.666 159.419C117.966 157.188 122.98 156.751 127.61 158.203M128.042 156.825C124.32 155.642 120.332 155.587 116.583 156.666C112.834 157.745 109.493 159.91 106.982 162.887C104.471 165.864 102.904 169.518 102.479 173.388C102.054 177.258 102.79 181.168 104.595 184.624C106.399 188.08 109.191 190.927 112.615 192.802C116.04 194.678 119.944 195.499 123.833 195.162C127.721 194.824 131.42 193.343 134.46 190.905C137.5 188.468 139.745 185.184 140.91 181.47C142.471 176.494 141.984 171.1 139.558 166.473C137.131 161.847 132.963 158.369 127.971 156.802L128.042 156.825Z" fill="#02934D"/>
<path d="M203.171 233.824C203.715 232.089 206.983 231.27 209.504 231.304C209.907 228.193 209.864 225.04 209.378 221.939C206.849 222.015 203.374 221.352 202.946 219.46C202.518 217.569 204.962 215.342 207.161 214.118C205.948 211.221 204.331 208.508 202.357 206.061C200.194 207.392 196.874 208.543 195.56 207.113C194.245 205.682 195.248 202.543 196.529 200.379C194.034 198.481 191.286 196.939 188.364 195.799C187.174 198.036 184.857 200.693 183.005 200.112C181.154 199.531 180.438 196.305 180.469 193.784C177.349 193.38 174.188 193.417 171.079 193.892C171.16 196.414 170.499 199.887 168.606 200.302C166.712 200.717 164.481 198.286 163.242 196.088C160.342 197.298 157.625 198.906 155.171 200.864C156.51 203.024 157.668 206.345 156.244 207.655C154.821 208.966 151.655 207.956 149.485 206.666C147.586 209.15 146.048 211.889 144.916 214.803C147.164 215.986 149.824 218.3 149.245 220.145C148.667 221.99 145.433 222.699 142.905 222.662C142.503 225.774 142.545 228.927 143.031 232.028C145.56 231.951 149.04 232.625 149.46 234.514C149.88 236.403 147.446 238.624 145.247 239.848C146.462 242.746 148.079 245.461 150.049 247.914C152.214 246.575 155.542 245.426 156.849 246.854C158.155 248.282 157.161 251.423 155.88 253.588C158.373 255.489 161.121 257.03 164.044 258.167C165.234 255.931 167.549 253.281 169.401 253.862C171.252 254.443 171.968 257.669 171.939 260.183C175.062 260.591 178.226 260.555 181.338 260.077C181.256 257.555 181.907 254.088 183.803 253.665C185.699 253.242 187.935 255.683 189.167 257.879C192.07 256.675 194.788 255.071 197.243 253.113C195.896 250.951 194.738 247.63 196.17 246.321C197.601 245.013 200.759 246.021 202.932 247.303C204.831 244.819 206.369 242.08 207.5 239.166C205.253 237.983 202.592 235.669 203.171 233.824ZM169.509 248.285C165.286 246.96 161.55 244.417 158.772 240.977C155.994 237.538 154.3 233.355 153.904 228.96C153.508 224.564 154.427 220.152 156.546 216.283C158.665 212.413 161.888 209.259 165.807 207.219C169.727 205.179 174.167 204.346 178.567 204.824C182.966 205.302 187.127 207.07 190.523 209.905C193.919 212.739 196.398 216.513 197.647 220.749C198.895 224.984 198.857 229.492 197.536 233.701C195.766 239.345 191.818 244.053 186.562 246.788C181.306 249.523 175.172 250.061 169.509 248.285Z" fill="#02934D"/>
<path d="M181.638 209.618C185.096 210.703 188.155 212.785 190.429 215.601C192.703 218.418 194.091 221.842 194.415 225.441C194.739 229.04 193.987 232.652 192.252 235.82C190.517 238.989 187.878 241.571 184.669 243.241C181.46 244.911 177.824 245.594 174.222 245.202C170.62 244.811 167.213 243.363 164.433 241.042C161.652 238.722 159.622 235.632 158.6 232.164C157.578 228.696 157.61 225.005 158.691 221.559C160.14 216.938 163.372 213.084 167.676 210.844C171.979 208.605 177.002 208.164 181.638 209.618ZM182.07 208.24C178.347 207.07 174.362 207.028 170.619 208.117C166.876 209.206 163.543 211.379 161.041 214.36C158.54 217.341 156.983 220.997 156.566 224.865C156.15 228.732 156.893 232.638 158.702 236.089C160.511 239.54 163.305 242.38 166.729 244.25C170.154 246.12 174.055 246.936 177.941 246.595C181.827 246.255 185.521 244.772 188.558 242.335C191.595 239.898 193.837 236.617 195.001 232.905C195.775 230.442 196.055 227.849 195.824 225.276C195.593 222.703 194.856 220.199 193.656 217.908C192.455 215.617 190.815 213.583 188.827 211.923C186.84 210.263 184.545 209.009 182.073 208.232L182.07 208.24Z" fill="#02934D"/>
</g>
</g>
<defs>
<clipPath id="clip0_704_700">
<rect width="261" height="325" rx="16" fill="white"/>
</clipPath>
<clipPath id="clip1_704_700">
<rect width="147.114" height="169.236" fill="white" transform="translate(87.6411 129.746) rotate(17.4155)"/>
</clipPath>
</defs>
</svg>
