<svg width="54" height="54" viewBox="0 0 54 54" fill="none" xmlns="http://www.w3.org/2000/svg">
<path d="M52.9616 25.9594C52.8252 25.9594 52.6902 25.9862 52.5642 26.0384C52.4381 26.0905 52.3237 26.167 52.2272 26.2635C52.1308 26.3599 52.0543 26.4744 52.0021 26.6004C51.9499 26.7264 51.9231 26.8615 51.9231 26.9979C51.9234 32.6504 50.0023 38.1352 46.475 42.5522C42.9477 46.9692 38.0237 50.056 32.5111 51.3061C26.9985 52.5563 21.2247 51.8954 16.1371 49.4321C11.0495 46.9688 6.95034 42.8492 4.51224 37.7495C2.07415 32.6498 1.44195 26.8727 2.71937 21.3664C3.9968 15.8601 7.10798 10.9515 11.5424 7.4461C15.9768 3.94073 21.471 2.04679 27.1235 2.07507C32.7761 2.10335 38.2511 4.05217 42.6502 7.60173H38.271C37.9956 7.60173 37.7314 7.71114 37.5367 7.90589C37.3419 8.10064 37.2325 8.36478 37.2325 8.64019C37.2325 8.91561 37.3419 9.17975 37.5367 9.3745C37.7314 9.56925 37.9956 9.67866 38.271 9.67866H45.3577C45.6328 9.6776 45.8963 9.56785 46.0908 9.37333C46.2854 9.17881 46.3951 8.91528 46.3962 8.64019V1.5535C46.3962 1.27809 46.2868 1.01395 46.092 0.8192C45.8973 0.62445 45.6331 0.515042 45.3577 0.515042C45.0823 0.515042 44.8181 0.62445 44.6234 0.8192C44.4286 1.01395 44.3192 1.27809 44.3192 1.5535V6.28844C38.9858 1.82787 32.1372 -0.403173 25.1998 0.0600234C18.2624 0.523219 11.7712 3.64494 7.07814 8.77496C2.38509 13.905 -0.147933 20.6478 0.00668381 27.5989C0.161301 34.55 2.99163 41.1735 7.90815 46.0897C11.6842 49.8658 16.4951 52.4373 21.7326 53.4791C26.9701 54.5209 32.3989 53.9862 37.3325 51.9426C42.2661 49.899 46.4829 46.4384 49.4497 41.9983C52.4165 37.5581 54.0001 32.338 54.0001 26.9979C54.0001 26.8615 53.9733 26.7264 53.9211 26.6004C53.8689 26.4744 53.7924 26.3599 53.696 26.2635C53.5995 26.167 53.4851 26.0905 53.359 26.0384C53.233 25.9862 53.098 25.9594 52.9616 25.9594Z" fill="#7FB640"/>
<path d="M32.7363 19.5455L27.4446 34.084C27.3976 34.2122 27.3763 34.3484 27.382 34.4849C27.3877 34.6213 27.4203 34.7553 27.4779 34.8791C27.5354 35.0029 27.6169 35.1142 27.7175 35.2065C27.8181 35.2988 27.936 35.3703 28.0643 35.417C28.1926 35.4637 28.3289 35.4846 28.4653 35.4786C28.6018 35.4725 28.7356 35.4396 28.8593 35.3817C28.983 35.3238 29.094 35.2421 29.1861 35.1412C29.2781 35.0404 29.3494 34.9223 29.3957 34.7939L34.6875 20.2554C34.7816 19.9967 34.7691 19.7111 34.6527 19.4616C34.5363 19.2121 34.3256 19.019 34.0668 18.9249C33.8081 18.8307 33.5225 18.8432 33.273 18.9596C33.0235 19.076 32.8304 19.2868 32.7363 19.5455Z" fill="#7FB640"/>
<path d="M18.236 25.1197C18.2374 24.6159 18.1388 24.1168 17.946 23.6514C17.7532 23.1859 17.4701 22.7633 17.1129 22.408C15.6637 20.9578 13.1385 20.9578 11.6893 22.408C11.332 22.7632 11.0487 23.1858 10.8558 23.6513C10.6629 24.1167 10.5643 24.6159 10.5657 25.1197C10.5657 25.3951 10.6751 25.6593 10.8698 25.854C11.0646 26.0488 11.3287 26.1582 11.6042 26.1582C11.8796 26.1582 12.1437 26.0488 12.3385 25.854C12.5332 25.6593 12.6426 25.3951 12.6426 25.1197C12.6421 24.8887 12.6873 24.6599 12.7758 24.4465C12.8642 24.2331 12.994 24.0393 13.1578 23.8764C13.4925 23.5562 13.9379 23.3775 14.4011 23.3775C14.8643 23.3775 15.3097 23.5562 15.6444 23.8764C15.974 24.2061 16.1591 24.6531 16.1591 25.1192C16.1591 25.5853 15.974 26.0324 15.6444 26.362L10.8699 31.1365C10.7247 31.2817 10.6258 31.4668 10.5857 31.6682C10.5456 31.8696 10.5662 32.0784 10.6447 32.2682C10.7233 32.4579 10.8564 32.6201 11.0272 32.7342C11.198 32.8483 11.3988 32.9092 11.6042 32.9092H17.1976C17.473 32.9092 17.7371 32.7998 17.9319 32.6051C18.1266 32.4103 18.236 32.1462 18.236 31.8707C18.236 31.5953 18.1266 31.3312 17.9319 31.1364C17.7371 30.9417 17.473 30.8323 17.1976 30.8323H14.1111L17.1129 27.8305C17.47 27.4754 17.7532 27.0529 17.946 26.5876C18.1388 26.1223 18.2374 25.6234 18.236 25.1197Z" fill="#7FB640"/>
<path d="M24.1558 32.909C24.2922 32.9091 24.4273 32.8822 24.5533 32.8301C24.6793 32.7779 24.7938 32.7014 24.8902 32.605C24.9867 32.5085 25.0631 32.394 25.1153 32.268C25.1675 32.142 25.1943 32.007 25.1943 31.8706V30.322H25.7303C26.0057 30.322 26.2698 30.2126 26.4646 30.0178C26.6593 29.8231 26.7687 29.5589 26.7687 29.2835C26.7687 29.0081 26.6593 28.7439 26.4646 28.5492C26.2698 28.3545 26.0057 28.245 25.7303 28.245H25.1943V22.3226C25.1942 22.099 25.122 21.8815 24.9885 21.7023C24.8549 21.5231 24.6671 21.3917 24.4529 21.3277C24.2388 21.2637 24.0097 21.2705 23.7997 21.347C23.5897 21.4236 23.41 21.5658 23.2872 21.7526L18.7227 28.7136C18.6199 28.8702 18.5614 29.0518 18.5534 29.2389C18.5454 29.4261 18.5882 29.612 18.6772 29.7768C18.7663 29.9417 18.8982 30.0794 19.0591 30.1754C19.22 30.2713 19.4039 30.322 19.5913 30.322H23.1174V31.8706C23.1173 32.007 23.1442 32.142 23.1963 32.268C23.2485 32.394 23.325 32.5085 23.4215 32.605C23.5179 32.7014 23.6324 32.7779 23.7584 32.8301C23.8844 32.8822 24.0194 32.9091 24.1558 32.909ZM21.514 28.245L23.1174 25.8V28.245H21.514Z" fill="#7FB640"/>
<path d="M38.287 31.8707C38.287 32.1461 38.3964 32.4102 38.5912 32.605C38.7859 32.7997 39.0501 32.9092 39.3255 32.9092C39.6009 32.9092 39.865 32.7997 40.0598 32.605C40.2545 32.4102 40.3639 32.1461 40.3639 31.8707V29.7329C40.3607 28.4925 40.6034 27.2638 41.0781 26.1179C41.5528 24.972 42.2501 23.9316 43.1295 23.0569C43.2747 22.9116 43.3736 22.7266 43.4137 22.5252C43.4538 22.3238 43.4332 22.115 43.3546 21.9252C43.276 21.7355 43.1429 21.5733 42.9722 21.4592C42.8014 21.3451 42.6006 21.2842 42.3952 21.2842H36.2562C35.9808 21.2842 35.7167 21.3936 35.5219 21.5883C35.3272 21.7831 35.2178 22.0472 35.2178 22.3226C35.2178 22.5981 35.3272 22.8622 35.5219 23.0569C35.7167 23.2517 35.9808 23.3611 36.2562 23.3611H40.2057C38.9488 25.2479 38.2809 27.4657 38.287 29.7329V31.8707Z" fill="#7FB640"/>
</svg>
