<svg width="85" height="13" viewBox="0 0 85 13" fill="none" xmlns="http://www.w3.org/2000/svg">
<path d="M7 0L8.5716 4.83688H13.6574L9.5429 7.82624L11.1145 12.6631L7 9.67376L2.8855 12.6631L4.4571 7.82624L0.342604 4.83688H5.4284L7 0Z" fill="#F9B402"/>
<path d="M24.5 0L25.9593 4.83688H30.6819L26.8613 7.82624L28.3206 12.6631L24.5 9.67376L20.6794 12.6631L22.1387 7.82624L18.3181 4.83688H23.0407L24.5 0Z" fill="#F9B402"/>
<path d="M42.5 0L43.9593 4.83688H48.6819L44.8613 7.82624L46.3206 12.6631L42.5 9.67376L38.6794 12.6631L40.1387 7.82624L36.3181 4.83688H41.0407L42.5 0Z" fill="#F9B402"/>
<path d="M60.5 0L61.9593 4.83688H66.6819L62.8613 7.82624L64.3206 12.6631L60.5 9.67376L56.6794 12.6631L58.1387 7.82624L54.3181 4.83688H59.0407L60.5 0Z" fill="#F9B402"/>
<path d="M78 0L79.5716 4.83688H84.6574L80.5429 7.82624L82.1145 12.6631L78 9.67376L73.8855 12.6631L75.4571 7.82624L71.3426 4.83688H76.4284L78 0Z" fill="#F9B402"/>
</svg>
