<svg width="15" height="19" viewBox="0 0 15 19" fill="none" xmlns="http://www.w3.org/2000/svg">
<path d="M13.125 3.8H11.25C11.25 1.7005 9.57187 0 7.5 0C5.42813 0 3.75 1.7005 3.75 3.8H1.875C0.84375 3.8 0 4.655 0 5.7V17.1C0 18.145 0.84375 19 1.875 19H13.125C14.1562 19 15 18.145 15 17.1V5.7C15 4.655 14.1562 3.8 13.125 3.8ZM7.5 1.9C8.53125 1.9 9.375 2.755 9.375 3.8H5.625C5.625 2.755 6.46875 1.9 7.5 1.9ZM13.125 17.1H1.875V5.7H3.75V7.6C3.75 8.1225 4.17188 8.55 4.6875 8.55C5.20312 8.55 5.625 8.1225 5.625 7.6V5.7H9.375V7.6C9.375 8.1225 9.79688 8.55 10.3125 8.55C10.8281 8.55 11.25 8.1225 11.25 7.6V5.7H13.125V17.1Z" fill="#107B8C"/>
</svg>
