<svg width="58" height="31" viewBox="0 0 58 31" fill="none" xmlns="http://www.w3.org/2000/svg">
<path d="M50.08 21.0546C49.6497 21.0546 49.2673 20.7677 49.1558 20.3374L44.6305 3.68183C44.5668 3.42682 44.5986 3.17181 44.7261 2.94867C44.8536 2.72554 45.0607 2.56615 45.3157 2.5024L52.2789 0.637618C52.7887 0.494174 53.3146 0.797001 53.458 1.32297L57.9514 18.0104C58.0151 18.2654 57.9833 18.5204 57.8558 18.7435C57.7283 18.9667 57.5212 19.126 57.2662 19.1898L50.319 21.0227C50.2393 21.0386 50.1596 21.0546 50.08 21.0546ZM46.7497 4.11217L50.7651 18.9029L55.8481 17.5641L51.8486 2.74147L46.7497 4.11217Z" fill="#7FB640"/>
<path d="M46.8142 20.0824C45.667 20.0824 44.5357 19.7477 43.5478 19.0942L34.1626 12.8623C33.2384 12.2567 32.0274 12.2407 31.1033 12.8305L27.534 15.1256C26.8011 15.5878 25.9088 15.7153 25.0802 15.4762C24.2516 15.2371 23.5664 14.6474 23.2 13.8505C22.6582 12.6551 22.9291 11.2685 23.9011 10.3919L30.0516 4.74974C31.6291 3.29936 33.8599 2.80527 35.8994 3.42686L40.6 4.86131C41.6675 5.18008 42.7829 5.19602 43.8505 4.90913L45.8104 4.36722C46.0653 4.30347 46.3203 4.33535 46.5434 4.46285C46.7664 4.59036 46.9258 4.79756 46.9895 5.05257L50.5747 18.2335C50.7181 18.7276 50.4313 19.2536 49.9373 19.413L48.6148 19.8274C48.0252 19.9868 47.4197 20.0824 46.8142 20.0824ZM32.617 10.4557C33.5252 10.4557 34.4494 10.7266 35.2302 11.2526L44.6153 17.4844C45.6192 18.1539 46.862 18.3292 48.0252 17.9626L48.4555 17.8192L45.3802 6.47108L44.3604 6.75797C42.9423 7.15643 41.4445 7.14049 40.0263 6.69422L35.3258 5.25977C33.9395 4.82943 32.4099 5.18008 31.3423 6.16825L25.1917 11.8104C24.8412 12.1292 24.7456 12.6233 24.9368 13.0377C25.0642 13.3246 25.3033 13.5317 25.606 13.6114C25.9088 13.6911 26.2115 13.6593 26.4824 13.4839L30.0516 11.1888C30.8483 10.7107 31.7247 10.4557 32.617 10.4557Z" fill="#7FB640"/>
<path d="M13.3205 21.0064C13.1771 21.0064 13.0497 20.9746 12.9063 20.9108L8.52439 18.8548C8.0623 18.6316 7.83922 18.0897 8.03043 17.6116L12.9381 5.41878C13.1293 5.02032 13.5596 4.78125 13.9898 4.845L17.32 5.33909C18.1486 5.4666 19.009 5.37097 19.8057 5.08408L26.7689 2.54989C27.7249 2.19925 28.7766 2.21518 29.7326 2.5977L32.3777 3.66557C32.8716 3.85683 33.1106 4.43061 32.9194 4.92469C32.7123 5.41878 32.1546 5.65786 31.6607 5.4666L29.0156 4.39873C28.5057 4.19153 27.948 4.19153 27.4381 4.36685L20.4909 6.90104C19.3914 7.2995 18.2123 7.42701 17.065 7.25169L14.4678 6.86917L10.1815 17.5L13.7348 19.1576C14.2128 19.3807 14.42 19.9545 14.1969 20.4486C14.0376 20.7992 13.687 21.0064 13.3205 21.0064Z" fill="#7FB640"/>
<path d="M14.3882 24.736C13.7986 24.736 13.225 24.5607 12.731 24.2101C11.4404 23.2856 11.1217 21.4846 12.0459 20.1777L13.2728 18.4563C13.719 17.8347 14.3882 17.4044 15.1371 17.2769C15.9019 17.1494 16.6668 17.3247 17.2882 17.771C18.5788 18.6954 18.8975 20.4964 17.9733 21.7874L16.7464 23.5088C16.3003 24.1463 15.631 24.5607 14.8821 24.6882C14.7228 24.7201 14.5635 24.736 14.3882 24.736ZM15.6151 19.1736C15.5673 19.1736 15.5036 19.1736 15.4558 19.1895C15.2008 19.2373 14.9777 19.3648 14.8343 19.572L13.6074 21.2933C13.3047 21.7237 13.4003 22.3134 13.8305 22.6322C14.0376 22.7756 14.2926 22.8394 14.5475 22.7915C14.8025 22.7437 15.0255 22.6162 15.169 22.409L16.3959 20.6877C16.6986 20.2574 16.603 19.6676 16.1728 19.3489C16.0135 19.2214 15.8222 19.1736 15.6151 19.1736Z" fill="#7FB640"/>
<path d="M17.0333 27.8761C16.4437 27.8761 15.8382 27.7008 15.3283 27.3342C13.9899 26.3939 13.6712 24.5291 14.6272 23.2062L18.2921 18.0103C19.2322 16.6715 21.0805 16.3527 22.419 17.309C23.7575 18.2494 24.0761 20.1142 23.1201 21.437L19.4553 26.6329C18.8816 27.4458 17.9575 27.8761 17.0333 27.8761ZM20.714 18.6957C20.3954 18.6957 20.0767 18.855 19.8695 19.126L16.1888 24.3219C15.8542 24.7841 15.9657 25.4376 16.4278 25.7563C16.8899 26.091 17.5432 25.9795 17.8618 25.5172L21.5267 20.3214C21.8613 19.8591 21.7498 19.2057 21.2877 18.8869C21.1283 18.7594 20.9053 18.6957 20.714 18.6957Z" fill="#7FB640"/>
<path d="M21.1602 28.9599C20.5707 28.9599 19.9652 28.7846 19.4553 28.418C18.1168 27.4777 17.7981 25.6129 18.7542 24.29L21.3674 20.5923C22.3075 19.2535 24.1718 18.9348 25.4943 19.8911C26.1476 20.3533 26.5619 21.0227 26.7053 21.8036C26.8328 22.5846 26.6575 23.3656 26.1954 24.0191L23.5822 27.7168C23.0086 28.5137 22.0844 28.9599 21.1602 28.9599ZM23.7894 21.2617C23.7256 21.2617 23.6778 21.2617 23.6141 21.2777C23.3432 21.3255 23.1042 21.4689 22.9448 21.6921L20.3317 25.3898C20.1723 25.6129 20.1086 25.8839 20.1564 26.1548C20.2042 26.4258 20.3476 26.6648 20.5707 26.8242C21.0328 27.1589 21.6861 27.0474 22.0047 26.5851L24.6179 22.8875C24.7773 22.6643 24.841 22.3934 24.7932 22.1224C24.7454 21.8515 24.602 21.6124 24.3789 21.453C24.2036 21.3255 23.9965 21.2617 23.7894 21.2617Z" fill="#7FB640"/>
<path d="M24.7615 30.9997C24.14 30.9997 23.5345 30.8084 23.0087 30.4418C21.6384 29.4696 21.3197 27.573 22.2757 26.2023L24.3312 23.2855C24.7933 22.6161 25.4944 22.1858 26.3071 22.0424C27.1038 21.8989 27.9164 22.0902 28.5856 22.5524C29.2549 23.0146 29.6851 23.7159 29.8285 24.5287C29.9719 25.3257 29.7807 26.1385 29.3186 26.8079L27.2631 29.7246C26.7851 30.394 26.0999 30.8244 25.2873 30.9678C25.112 30.9837 24.9367 30.9997 24.7615 30.9997ZM26.8329 23.9231C26.7692 23.9231 26.7054 23.9231 26.6417 23.939C26.3549 23.9868 26.084 24.1462 25.9246 24.4012L23.8692 27.3179C23.5186 27.812 23.6301 28.5133 24.14 28.864C24.379 29.0393 24.6818 29.103 24.9686 29.0552C25.2554 29.0074 25.5263 28.848 25.6856 28.593L27.7411 25.6763C27.9164 25.4372 27.9801 25.1344 27.9323 24.8475C27.8845 24.5606 27.7252 24.3056 27.4862 24.1303C27.279 24.0028 27.056 23.9231 26.8329 23.9231Z" fill="#7FB640"/>
<path d="M33.2855 29.932C32.9508 29.932 32.6322 29.8682 32.3135 29.7248L27.7563 27.6369C27.2783 27.4137 27.0552 26.8399 27.2783 26.3618C27.5014 25.8677 28.075 25.6605 28.553 25.8836L33.1102 27.9716C33.2855 28.0512 33.5085 28.0034 33.6201 27.8281C33.7157 27.7006 33.6997 27.5572 33.6838 27.4934C33.6679 27.4297 33.6201 27.3021 33.4767 27.2225L30.9432 25.8518C30.4811 25.5967 30.3058 25.007 30.5448 24.5448C30.7997 24.0826 31.3893 23.9073 31.8673 24.1623L34.4008 25.533C34.9904 25.8518 35.4206 26.4096 35.564 27.0471C35.7234 27.7006 35.58 28.3859 35.1975 28.9279C34.7514 29.5813 34.0344 29.932 33.2855 29.932Z" fill="#7FB640"/>
<path d="M36.9193 28.5935C36.5209 28.5935 36.1066 28.4978 35.7083 28.3066L33.2066 27.0793C32.7286 26.8402 32.5215 26.2665 32.7605 25.7883C32.9995 25.3102 33.5731 25.103 34.0511 25.342L36.5528 26.5693C36.9193 26.7446 37.3335 26.633 37.5726 26.2983C37.7 26.1071 37.7478 25.8839 37.7 25.6608C37.6522 25.4377 37.5088 25.2464 37.3176 25.1348L29.972 20.8634C29.5099 20.5924 29.3506 20.0027 29.6215 19.5405C29.8923 19.0783 30.4819 18.9189 30.944 19.1899L38.3055 23.4613C38.9588 23.8438 39.4368 24.4814 39.5962 25.2305C39.7555 25.9796 39.6121 26.7605 39.1819 27.3821C38.6401 28.1631 37.7956 28.5935 36.9193 28.5935Z" fill="#7FB640"/>
<path d="M39.5004 25.9952C39.0064 25.9952 38.5125 25.8677 38.0663 25.5967L32.2982 22.2178C31.8361 21.9468 31.6767 21.3571 31.9476 20.8949C32.2185 20.4327 32.8081 20.2733 33.2702 20.5443L39.0383 23.9232C39.2614 24.0507 39.5004 24.0826 39.7553 24.0188C39.9943 23.9551 40.2015 23.7957 40.313 23.5725C40.552 23.1422 40.4086 22.6003 39.9943 22.3453L32.7762 17.9144C32.3141 17.6275 32.1866 17.0378 32.4575 16.5916C32.7443 16.1453 33.3339 16.0018 33.78 16.2728L40.9982 20.7196C42.3048 21.5165 42.735 23.19 42.002 24.5288C41.6196 25.2142 41.0141 25.6923 40.2652 25.8995C40.0103 25.9633 39.7553 25.9952 39.5004 25.9952Z" fill="#7FB640"/>
<path d="M42.3997 23.3175C41.7782 23.3175 41.1727 23.1421 40.631 22.8074L37.8106 21.0223C37.3645 20.7355 37.2211 20.1457 37.5079 19.6835C37.7947 19.2213 38.3843 19.0938 38.8464 19.3807L41.6667 21.1658C41.9854 21.373 42.3678 21.4367 42.7343 21.3411C43.1007 21.2455 43.4194 21.0223 43.6106 20.6876C43.9771 20.0501 43.7859 19.2373 43.1804 18.8229L38.0975 15.4599C37.6513 15.173 37.5398 14.5673 37.8266 14.1211C38.1134 13.6748 38.7189 13.5473 39.165 13.8501L44.2321 17.2131C45.698 18.1853 46.1442 20.1457 45.2678 21.6599C44.8057 22.4409 44.0727 22.9987 43.1804 23.2059C42.9255 23.2856 42.6546 23.3175 42.3997 23.3175Z" fill="#7FB640"/>
<path d="M8.12594 20.8313C8.0144 20.8313 7.88693 20.8154 7.77539 20.7675L0.605058 18.0102C0.366047 17.9146 0.174838 17.7393 0.0632997 17.5002C-0.0482388 17.2611 -0.0482388 17.0061 0.0473656 16.767L6.26165 0.621525C6.46879 0.127438 7.01055 -0.127575 7.50451 0.0636844L15.0732 2.75726C15.3281 2.85289 15.5193 3.02821 15.6309 3.28322C15.7424 3.5223 15.7424 3.80919 15.6309 4.04826L14.7386 6.16805L9.83088 18.3449L9.01824 20.2416C8.8589 20.6082 8.50835 20.8313 8.12594 20.8313ZM2.2144 16.5598L7.61605 18.6318L8.0622 17.6118L12.954 5.43489C12.954 5.41895 13.4638 4.22358 13.4638 4.22358L7.74352 2.19942L2.2144 16.5598Z" fill="#7FB640"/>
</svg>
