<svg width="18" height="14" viewBox="0 0 18 14" fill="none" xmlns="http://www.w3.org/2000/svg">
<path d="M17.3571 0H0.642857C0.287277 0 0 0.284375 0 0.636364V13.3636C0 13.7156 0.287277 14 0.642857 14H17.3571C17.7127 14 18 13.7156 18 13.3636V0.636364C18 0.284375 17.7127 0 17.3571 0ZM16.5536 2.20341V12.5682H1.44643V2.20341L0.891964 1.77585L1.68147 0.771591L2.54129 1.43381H15.4607L16.3205 0.771591L17.11 1.77585L16.5536 2.20341ZM15.4607 1.43182L9 6.40341L2.53929 1.43182L1.67946 0.769602L0.889955 1.77386L1.44442 2.20142L8.30692 7.48324C8.50428 7.63501 8.74707 7.7174 8.99699 7.7174C9.2469 7.7174 9.4897 7.63501 9.68705 7.48324L16.5536 2.20341L17.108 1.77585L16.3185 0.771591L15.4607 1.43182Z" fill="black"/>
</svg>
