<svg width="53" height="41" viewBox="0 0 53 41" fill="none" xmlns="http://www.w3.org/2000/svg">
<path d="M25.6164 5.47131C25.6164 3.81954 24.2726 2.47559 22.6207 2.47559C20.9694 2.47559 19.626 3.81943 19.626 5.47131C19.626 7.1232 20.9694 8.46704 22.6207 8.46704C24.2726 8.46704 25.6164 7.1232 25.6164 5.47131ZM20.7394 5.47131C20.7394 4.4334 21.5833 3.58887 22.6208 3.58887C23.6587 3.58887 24.5033 4.43329 24.5033 5.47131C24.5033 6.50934 23.6588 7.35376 22.6208 7.35376C21.5833 7.35376 20.7394 6.50934 20.7394 5.47131Z" fill="#7FB640"/>
<path d="M23.0378 14.1274C23.5527 13.5457 28.0692 8.36318 28.0692 5.53311C28.0692 2.52959 25.6251 0.0859375 22.621 0.0859375C19.6175 0.0859375 17.1738 2.52948 17.1738 5.53311C17.1738 8.36307 21.6893 13.5457 22.2042 14.1273L22.6209 14.5981L23.0378 14.1274ZM18.2872 5.53322C18.2872 3.14356 20.2313 1.19933 22.6211 1.19933C25.0113 1.19933 26.956 3.14345 26.956 5.53322C26.956 7.38517 24.1315 11.1158 22.6211 12.9063C21.1109 11.1161 18.2872 7.3865 18.2872 5.53322Z" fill="#7FB640"/>
<path d="M8.45226 31.4907H3.08691V32.604H8.45226V31.4907Z" fill="#7FB640"/>
<path d="M1.79 31.4907H0.0361328V32.604H1.79V31.4907Z" fill="#7FB640"/>
<path d="M8.45218 34.5317H5.21387V35.645H8.45218V34.5317Z" fill="#7FB640"/>
<path d="M19.4834 23.186H16.6309V24.2993H19.4834V23.186Z" fill="#7FB640"/>
<path d="M2.7666 11.9V22.4993H3.98609H7.1399L13.0188 26.9222C13.0012 27.0768 12.9867 27.2336 12.9763 27.3927C11.2972 28.8519 10.2585 30.8546 10.2585 33.0621V35.3978H12.279C12.4449 37.2144 13.4138 38.8012 14.827 39.8011H7.02902V40.9144H27.7361V39.8011H21.8225C22.5287 39.3016 23.1237 38.6557 23.5635 37.9074H27.3029L29.0866 36.9868C29.5783 37.2543 30.1415 37.4065 30.7393 37.4065H38.7982L39.0612 37.4062L39.2282 37.2034C39.2378 37.1917 39.4253 36.9679 39.7718 36.6115C40.2114 37.9382 41.0984 39.0569 42.2418 39.8011H32.8571V40.9144H52.9636V39.8011H48.8497C50.5116 38.7165 51.613 36.842 51.613 34.7139C51.613 33.3658 51.1593 32.0619 50.3462 31.0055C50.9275 30.931 51.5254 30.8901 52.1391 30.8901C52.6056 30.8901 52.7602 30.572 52.7963 30.4745C52.982 29.9749 52.5412 29.5947 51.8739 29.0193C51.7237 28.8897 51.5818 28.7675 51.4996 28.6849C50.1598 27.3439 48.4728 26.479 46.6427 26.1687L42.0807 14.9894H43.4558V14.4675H43.57C44.5494 14.4675 45.346 13.6708 45.346 12.6916V12.6534C45.346 11.6741 44.5494 10.8774 43.57 10.8774H43.4558V10.3555H39.6052C38.3264 10.3555 37.2859 11.3959 37.2859 12.6748V13.7524C37.2859 13.7942 37.2881 13.8353 37.2921 13.8759H36.6138L34.2459 11.5078H31.4647V12.6211H33.7847L36.1527 14.9892H38.3863L37.1506 18.7337L38.8191 28.6172C37.9988 29.4182 37.3282 30.375 36.8578 31.4432H30.5383C30.2385 30.8287 29.9958 30.1888 29.8129 29.5265C28.9916 26.5506 29.6189 23.9222 30.1528 22.4572C30.7336 22.3109 31.1652 21.7856 31.1652 21.1602C31.1652 19.3372 29.6821 17.8541 27.8591 17.8541H16.4003C15.1197 17.8541 14.0778 18.8959 14.0778 20.1766C14.0778 20.6198 14.2048 21.0331 14.4212 21.3859H13.3658V11.9H2.7666ZM3.87988 21.386V13.0133H12.2525V21.386H3.98609H3.87988ZM11.3718 33.062C11.3718 29.2231 15.095 26.0998 19.6713 26.0998H21.7744C24.8024 26.0998 27.2659 28.1536 27.2659 30.6781V33.3711V33.9277V34.2844H24.3725C24.0906 31.1956 21.4863 28.7679 18.3257 28.7679C15.1645 28.7679 12.5598 31.1956 12.2779 34.2844H11.3719V33.062H11.3718ZM13.3979 34.2844C13.6755 31.8107 15.7791 29.8812 18.3256 29.8812C20.8717 29.8812 22.9748 31.8107 23.2523 34.2844H13.3979ZM19.967 35.3977C19.7343 36.0817 19.0872 36.5757 18.3256 36.5757C17.5636 36.5757 16.9161 36.0816 16.6833 35.3977H19.967ZM18.3245 39.801C15.7784 39.801 13.6753 37.8714 13.3978 35.3977H15.5316C15.7913 36.7025 16.9451 37.689 18.3256 37.689C19.7055 37.689 20.859 36.7025 21.1186 35.3977H23.2523C23.1973 35.8881 23.071 36.3572 22.883 36.794H20.91V37.9073H22.2186C21.3096 39.0593 19.9024 39.801 18.3245 39.801ZM27.0327 36.794H24.0736C24.2251 36.3491 24.3267 35.8819 24.3709 35.3977H27.5921C27.7335 35.6998 27.9167 35.978 28.1344 36.2255L27.0327 36.794ZM50.4999 34.7138C50.4999 37.4482 48.2749 39.6726 45.54 39.6726C43.1972 39.6726 41.1614 37.9982 40.6859 35.7326C41.2376 35.2345 41.9362 34.6575 42.7638 34.0787C42.717 34.2831 42.6917 34.4953 42.6917 34.7136C42.6917 36.2841 43.9694 37.5619 45.54 37.5619C47.1106 37.5619 48.3883 36.2841 48.3883 34.7136C48.3883 33.4782 47.5977 32.4244 46.496 32.0307C47.3009 31.704 48.1598 31.4263 49.0676 31.2272C49.9809 32.154 50.4999 33.4092 50.4999 34.7138ZM44.2925 33.5105L45.0455 34.9689L46.0346 34.4582L45.2818 32.9998C45.3663 32.9871 45.452 32.9785 45.54 32.9785C46.4967 32.9785 47.275 33.7569 47.275 34.7136C47.275 35.6704 46.4967 36.4487 45.54 36.4487C44.5832 36.4487 43.8049 35.6704 43.8049 34.7136C43.8049 34.2465 43.9913 33.8228 44.2925 33.5105ZM43.5701 11.9907C43.9356 11.9907 44.2329 12.2879 44.2329 12.6534V12.6916C44.2329 13.057 43.9356 13.3542 43.5701 13.3542H43.4559V11.9907H43.5701ZM38.3993 13.7525V12.6749C38.3993 12.0098 38.9402 11.4689 39.6053 11.4689H42.3426V13.8761H39.5942H38.5227C38.4546 13.876 38.3993 13.8206 38.3993 13.7525ZM38.2944 18.8206L39.5584 14.9898H40.8786L45.3898 26.0449C45.2994 26.0424 45.2093 26.0383 45.1185 26.0383C43.1501 26.0383 41.3081 26.6842 39.8073 27.7824L38.2944 18.8206ZM45.1186 27.1515C47.2309 27.1515 49.2173 27.9755 50.7116 29.4713C50.8105 29.5704 50.9452 29.6879 51.0901 29.8133C47.2904 30.078 44.1669 31.7302 42.1526 33.135C40.2379 34.4704 38.9848 35.7957 38.5433 36.2931H30.7393C29.631 36.2931 28.6988 35.5236 28.4464 34.4896H32.6256L32.6211 34.4842L37.2169 34.4839L37.2819 34.0018C37.8094 30.0965 41.1784 27.1515 45.1186 27.1515ZM36.4534 32.5566C36.3761 32.823 36.3101 33.0943 36.2572 33.3708L31.7322 33.371C31.5296 33.1063 31.34 32.8345 31.163 32.5567H36.4534V32.5566ZM30.3641 33.371L28.3791 33.3711V30.6781C28.3791 27.5399 25.4162 24.9865 21.7743 24.9865H19.6712C17.6341 24.9865 15.7478 25.5464 14.2056 26.4937C14.5281 24.6551 15.3472 23.2297 15.8458 22.4996H28.9608C28.4206 24.1579 27.9131 26.8267 28.7399 29.8227C29.0886 31.0862 29.6334 32.2754 30.3641 33.371ZM16.4003 18.9675H27.8592C29.0683 18.9675 30.052 19.9512 30.052 21.1603C30.052 21.2847 29.9508 21.386 29.8263 21.386H16.4003C15.7335 21.386 15.191 20.8435 15.191 20.1767C15.191 19.51 15.7335 18.9675 16.4003 18.9675ZM14.5293 22.4993C14.0763 23.2683 13.5495 24.3648 13.2345 25.6912L8.99174 22.4993H13.3658H14.5293Z" fill="#7FB640"/>
<path d="M11.2597 14.3403H8.06641V15.4536H11.2597V14.3403Z" fill="#7FB640"/>
<path d="M31.2244 39.8008H29.2959V40.9141H31.2244V39.8008Z" fill="#7FB640"/>
<path d="M5.74899 39.8008H3.98633V40.9141H5.74899V39.8008Z" fill="#7FB640"/>
</svg>
