<svg width="36" height="30" viewBox="0 0 36 30" fill="none" xmlns="http://www.w3.org/2000/svg">
<path d="M31.5 15.636V13.5C31.5 9.9196 30.0777 6.4858 27.546 3.95406C25.0142 1.42232 21.5805 0 18 0C14.4196 0 10.9858 1.42232 8.45411 3.95406C5.92236 6.4858 4.50005 9.9196 4.50005 13.5V15.636C2.92679 16.3287 1.63925 17.5409 0.85298 19.0696C0.0667122 20.5983 -0.170561 22.3506 0.180884 24.0334C0.532329 25.7161 1.45116 27.227 2.78355 28.3132C4.11595 29.3994 5.78103 29.9949 7.50005 30H10.5V15H7.50005V13.5C7.50005 10.7152 8.60629 8.0445 10.5754 6.07538C12.5446 4.10625 15.2153 3 18 3C20.7848 3 23.4555 4.10625 25.4247 6.07538C27.3938 8.0445 28.5 10.7152 28.5 13.5V15H25.5V27H19.5V30H28.5C30.2191 29.9949 31.8841 29.3994 33.2165 28.3132C34.5489 27.227 35.4678 25.7161 35.8192 24.0334C36.1707 22.3506 35.9334 20.5983 35.1471 19.0696C34.3608 17.5409 33.0733 16.3287 31.5 15.636ZM7.50005 27C6.30657 27 5.16198 26.5259 4.31807 25.682C3.47415 24.8381 3.00005 23.6935 3.00005 22.5C3.00005 21.3065 3.47415 20.1619 4.31807 19.318C5.16198 18.4741 6.30657 18 7.50005 18V27ZM28.5 27V18C29.6935 18 30.8381 18.4741 31.682 19.318C32.5259 20.1619 33 21.3065 33 22.5C33 23.6935 32.5259 24.8381 31.682 25.682C30.8381 26.5259 29.6935 27 28.5 27Z" fill="#333949"/>
</svg>
