<svg width="19" height="17" viewBox="0 0 19 17" fill="none" xmlns="http://www.w3.org/2000/svg">
<path d="M13.4375 0.625C11.915 0.625 10.4537 1.33375 9.5 2.45375C8.54625 1.33375 7.085 0.625 5.5625 0.625C2.8675 0.625 0.75 2.7425 0.75 5.4375C0.75 8.745 3.725 11.44 8.23125 15.535L9.5 16.6813L10.7688 15.5263C15.275 11.44 18.25 8.745 18.25 5.4375C18.25 2.7425 16.1325 0.625 13.4375 0.625ZM9.5875 14.2312L9.5 14.3188L9.4125 14.2312C5.2475 10.46 2.5 7.96625 2.5 5.4375C2.5 3.6875 3.8125 2.375 5.5625 2.375C6.91 2.375 8.2225 3.24125 8.68625 4.44H10.3225C10.7775 3.24125 12.09 2.375 13.4375 2.375C15.1875 2.375 16.5 3.6875 16.5 5.4375C16.5 7.96625 13.7525 10.46 9.5875 14.2312Z" fill="#3FA000"/>
</svg>
