<svg width="40" height="45" viewBox="0 0 40 45" fill="none" xmlns="http://www.w3.org/2000/svg">
<path d="M13.6293 44.1457C13.6325 44.152 13.6367 44.1583 13.6399 44.1657C13.6451 44.1763 13.6504 44.1868 13.6568 44.1974C13.6947 44.2733 13.7348 44.3492 13.7749 44.4252C13.8877 44.6445 14.1082 44.8006 14.3666 44.8228C14.376 44.8238 14.3855 44.8238 14.394 44.8238C14.4056 44.8249 14.4182 44.826 14.4309 44.826H14.4319C14.453 44.826 14.4741 44.8249 14.4942 44.8228C14.4984 44.8228 14.5016 44.8228 14.5058 44.8217C14.5258 44.8196 14.5469 44.8165 14.5669 44.8122C14.5712 44.8112 14.5754 44.8112 14.5796 44.8101C14.5996 44.8059 14.6197 44.8006 14.6397 44.7943C14.6429 44.7933 14.6471 44.7922 14.6503 44.7911C14.6714 44.7848 14.6925 44.7764 14.7125 44.7679C14.7146 44.7669 14.7157 44.7669 14.7178 44.7658C14.818 44.7236 14.9097 44.6604 14.9846 44.5749L15.0194 44.5359C15.0542 44.4958 15.089 44.4568 15.1238 44.4167L15.1259 44.4136C19.0146 40.064 23.1563 37.1067 26.8108 34.4963C28.164 33.5302 29.4412 32.6179 30.6509 31.6793C33.6937 29.3189 36.7249 26.5334 38.2932 22.1723C38.8638 20.5871 39.2108 18.8954 39.3542 16.9991C39.7887 11.2289 38.5959 5.48611 35.9033 0.393022C35.7904 0.179975 35.5816 0.0354823 35.3432 0.00595104C35.1049 -0.0246349 34.8665 0.063959 34.7041 0.242201C33.9426 1.08068 33.0746 1.9181 32.0484 2.80509C31.7394 3.07193 31.7056 3.5381 31.9725 3.84607C32.2393 4.15509 32.7055 4.18884 33.0134 3.92201C33.7728 3.26704 34.451 2.63423 35.0659 2.00775C37.2965 6.6199 38.2689 11.7425 37.8819 16.8883C37.7701 18.3649 37.5275 19.7033 37.1425 20.9573C37.0856 20.9362 37.0276 20.9172 36.9696 20.8972C36.9179 20.8793 36.8662 20.8613 36.8135 20.8434C36.6827 20.7991 36.5519 20.7569 36.4211 20.7158C36.3969 20.7084 36.3716 20.7 36.3473 20.6915C36.1933 20.6441 36.0372 20.5977 35.8822 20.5534C35.8326 20.5397 35.782 20.5259 35.7324 20.5122C35.6227 20.4817 35.513 20.4521 35.4034 20.4236C35.3464 20.4089 35.2884 20.3941 35.2314 20.3793C35.1217 20.3519 35.0121 20.3256 34.9013 20.2992C34.8507 20.2876 34.799 20.2749 34.7484 20.2633C34.5912 20.2275 34.4341 20.1937 34.2769 20.161C34.2506 20.1558 34.2232 20.1505 34.1968 20.1452C34.0628 20.1178 33.93 20.0925 33.796 20.0672C33.7391 20.0566 33.6832 20.0471 33.6262 20.0366C33.5197 20.0176 33.4132 19.9997 33.3056 19.9817C33.2465 19.9722 33.1875 19.9627 33.1294 19.9533C33.0145 19.9353 32.9006 19.9185 32.7856 19.9016C32.7392 19.8952 32.6928 19.8879 32.6464 19.8815C32.4903 19.8594 32.3332 19.8393 32.1771 19.8204C32.1317 19.8151 32.0853 19.8098 32.04 19.8045C31.925 19.7908 31.8111 19.7782 31.6972 19.7666C31.6381 19.7602 31.5791 19.755 31.52 19.7486C31.4156 19.7381 31.3122 19.7297 31.2078 19.7202C31.1509 19.7149 31.0939 19.7107 31.0369 19.7054C30.9125 19.6959 30.787 19.6864 30.6636 19.678C30.6309 19.6759 30.5982 19.6727 30.5655 19.6706C30.4126 19.6611 30.2607 19.6527 30.1088 19.6453C30.0561 19.6432 30.0034 19.6411 29.9506 19.639C29.8473 19.6347 29.7428 19.6305 29.6405 19.6274C29.5825 19.6252 29.5245 19.6242 29.4665 19.6221C29.3642 19.6189 29.263 19.6168 29.1617 19.6158C29.11 19.6147 29.0584 19.6136 29.0067 19.6136C28.859 19.6115 28.7124 19.6115 28.5669 19.6115C28.5405 19.6115 28.5141 19.6126 28.4878 19.6126C28.3654 19.6136 28.2431 19.6147 28.1228 19.6168C28.0701 19.6179 28.0174 19.6189 27.9657 19.62C27.8697 19.6221 27.7737 19.6242 27.6788 19.6274C27.625 19.6295 27.5723 19.6305 27.5185 19.6326C27.4162 19.6368 27.315 19.6411 27.2137 19.6453C27.1736 19.6474 27.1325 19.6484 27.0924 19.6506C26.9542 19.6579 26.8182 19.6653 26.6832 19.6748C26.6463 19.6769 26.6104 19.6801 26.5746 19.6822C26.4733 19.6896 26.3731 19.697 26.274 19.7043C26.2255 19.7086 26.178 19.7117 26.1305 19.7159C26.0409 19.7233 25.9523 19.7318 25.8637 19.7402C25.8184 19.7444 25.7741 19.7486 25.7298 19.7529C25.6232 19.7634 25.5188 19.774 25.4155 19.7856C25.3923 19.7877 25.3691 19.7908 25.3469 19.7929C25.2225 19.8067 25.1001 19.8225 24.9799 19.8372C24.943 19.8415 24.9082 19.8467 24.8723 19.852C24.8164 19.8594 24.7605 19.8668 24.7057 19.8742C24.7078 19.872 24.7099 19.8699 24.712 19.8678C24.9208 19.6601 25.1339 19.4544 25.349 19.2498C25.4155 19.1876 25.4819 19.1264 25.5484 19.0642C25.7023 18.9207 25.8574 18.7783 26.0135 18.6381C26.0915 18.5685 26.1696 18.4988 26.2487 18.4292C26.4048 18.2911 26.563 18.154 26.7233 18.0179C26.795 17.9567 26.8667 17.8945 26.9395 17.8344C27.1694 17.6414 27.4014 17.4505 27.6377 17.2627C27.8592 17.0866 28.0838 16.9115 28.3053 16.7428C30.6319 14.973 32.4534 13.121 33.719 11.2384C33.9468 10.8998 33.8561 10.441 33.5186 10.2143C33.1801 9.98646 32.7213 10.0772 32.4945 10.4147C31.3713 12.0853 29.7566 13.7443 27.6946 15.3495C27.6883 15.32 27.682 15.2894 27.6767 15.2588C27.6693 15.2251 27.663 15.1913 27.6556 15.1565C27.6482 15.1228 27.6408 15.089 27.6345 15.0542C27.6271 15.0184 27.6187 14.9825 27.6113 14.9456C27.6039 14.9108 27.5955 14.876 27.5881 14.8401C27.5797 14.8032 27.5712 14.7663 27.5628 14.7283C27.5544 14.6925 27.5459 14.6556 27.5375 14.6186C27.5291 14.5807 27.5196 14.5438 27.5111 14.5047C27.5016 14.4668 27.4921 14.4277 27.4837 14.3898C27.4742 14.3518 27.4658 14.3138 27.4563 14.2748C27.4457 14.2337 27.4352 14.1915 27.4246 14.1493C27.413 14.104 27.4014 14.0586 27.3898 14.0133C27.3719 13.9447 27.354 13.8761 27.335 13.8055C27.3244 13.7665 27.3139 13.7274 27.3034 13.6884C27.2917 13.6452 27.2801 13.603 27.2675 13.5587C27.2559 13.5186 27.2443 13.4785 27.2337 13.4385C27.2211 13.3952 27.2095 13.352 27.1968 13.3087C27.1852 13.2676 27.1726 13.2254 27.1599 13.1832C27.1473 13.14 27.1346 13.0978 27.1209 13.0545C27.1082 13.0124 27.0945 12.9691 27.0819 12.9269C27.0682 12.8837 27.0544 12.8404 27.0407 12.7961C27.027 12.7529 27.0133 12.7107 26.9996 12.6675C26.9859 12.6232 26.9711 12.5799 26.9564 12.5356C26.9416 12.4924 26.9268 12.4481 26.9121 12.4049C26.8973 12.3606 26.8825 12.3163 26.8667 12.272C26.8519 12.2277 26.8361 12.1844 26.8203 12.1401C26.8045 12.0958 26.7887 12.0505 26.7718 12.0051C26.756 11.9619 26.7402 11.9176 26.7243 11.8733C26.7075 11.8279 26.6906 11.7815 26.6726 11.7362C26.6558 11.6929 26.64 11.6497 26.6231 11.6054C26.6051 11.559 26.5872 11.5126 26.5682 11.4662C26.5514 11.4229 26.5345 11.3797 26.5166 11.3365C26.4976 11.289 26.4775 11.2415 26.4575 11.1941C26.4396 11.1519 26.4227 11.1097 26.4048 11.0675C26.3837 11.0179 26.3626 10.9684 26.3404 10.9188C26.3225 10.8787 26.3056 10.8386 26.2877 10.7975C26.2634 10.7427 26.2381 10.6878 26.2139 10.633C26.198 10.5982 26.1822 10.5634 26.1664 10.5286C26.1253 10.44 26.0841 10.3524 26.0409 10.2638C26.0282 10.2385 26.0156 10.2132 26.004 10.189C25.9723 10.1246 25.9407 10.0613 25.908 9.997C25.8901 9.9622 25.8721 9.9274 25.8532 9.89259C25.8257 9.8388 25.7973 9.78501 25.7688 9.73228C25.7487 9.69431 25.7277 9.6574 25.7076 9.61943C25.6855 9.57935 25.6644 9.53927 25.6422 9.50025C25.9365 9.28826 26.2307 9.07732 26.5239 8.86638C27.2886 8.31689 28.0796 7.74947 28.8453 7.18837C29.1744 6.94685 29.245 6.4849 29.0035 6.15689C28.762 5.82783 28.3 5.75716 27.972 5.99869C27.2126 6.55556 26.4248 7.12087 25.6633 7.66825C25.1866 8.01103 24.7078 8.3538 24.231 8.69974C20.8497 11.1477 17.326 13.816 14.665 17.1478C13.4121 18.7161 12.4576 20.2918 11.7467 21.9667V21.9677C10.9652 23.8071 10.4906 25.7751 10.3366 27.817C10.0877 31.1298 10.3756 34.4362 11.1761 37.6161C10.0075 36.0784 8.8305 34.6957 7.72308 33.3963C3.73636 28.7167 0.588118 25.02 1.70503 18.5136C2.38531 14.5533 4.06859 10.864 6.59456 7.779C8.00995 10.1795 9.70378 12.195 11.6318 14.4879C11.9408 14.856 12.2572 15.2314 12.5789 15.6174C12.8404 15.9307 13.3055 15.9729 13.6188 15.7113C13.932 15.4497 13.9742 14.9846 13.7126 14.6714C13.3899 14.2843 13.0725 13.9067 12.7624 13.5376C10.6446 11.0169 8.81468 8.84001 7.37187 6.14951C7.25796 5.93751 7.04808 5.79408 6.80972 5.7656C6.57031 5.73712 6.333 5.82677 6.17269 6.00607C3.08456 9.44751 1.03636 13.6874 0.250618 18.2647C-0.983366 25.4524 2.53085 29.5773 6.59984 34.354C8.88429 37.054 11.483 40.1041 13.6293 44.1457ZM30.0434 30.2818C29.9907 30.267 29.9369 30.2533 29.8842 30.2396C29.8367 30.227 29.7892 30.2143 29.7428 30.2017C29.6785 30.1848 29.6131 30.17 29.5488 30.1542C29.5045 30.1436 29.4612 30.1331 29.4169 30.1226C29.3431 30.1057 29.2703 30.0899 29.1965 30.074C29.1607 30.0667 29.1248 30.0582 29.0889 30.0508C28.8696 30.0055 28.6481 29.9654 28.4266 29.9295C28.3897 29.9232 28.3538 29.919 28.3169 29.9127C28.242 29.9011 28.1682 29.8895 28.0933 29.8789C28.0501 29.8726 28.0058 29.8673 27.9625 29.862C27.895 29.8526 27.8275 29.8441 27.76 29.8357C27.7136 29.8304 27.6662 29.8251 27.6198 29.8199C27.5554 29.8125 27.4911 29.8051 27.4257 29.7977C27.3772 29.7924 27.3287 29.7882 27.2791 29.784C27.2169 29.7777 27.1536 29.7713 27.0914 29.7661C27.0407 29.7618 26.9912 29.7576 26.9405 29.7545C26.8794 29.7492 26.8182 29.745 26.757 29.7408C26.7064 29.7376 26.6558 29.7344 26.6052 29.7313C26.544 29.727 26.4839 29.7239 26.4227 29.7207C26.3721 29.7176 26.3204 29.7154 26.2698 29.7133C26.2096 29.7102 26.1495 29.7081 26.0905 29.7059C26.0388 29.7038 25.9882 29.7028 25.9365 29.7007C25.8774 29.6986 25.8173 29.6975 25.7582 29.6954C25.7066 29.6943 25.6559 29.6933 25.6042 29.6933C25.5452 29.6922 25.4872 29.6912 25.4281 29.6912C25.3764 29.6912 25.3258 29.6912 25.2741 29.6912C25.2161 29.6912 25.1581 29.6912 25.1001 29.6912C25.0484 29.6912 24.9968 29.6922 24.9461 29.6933C24.8892 29.6943 24.8312 29.6954 24.7742 29.6965C24.7225 29.6975 24.6719 29.6986 24.6202 29.6996C24.5633 29.7007 24.5063 29.7028 24.4504 29.7049C24.3987 29.707 24.3471 29.7081 24.2964 29.7102C24.2405 29.7123 24.1846 29.7144 24.1298 29.7176C24.0781 29.7197 24.0275 29.7228 23.9769 29.7249C23.921 29.7281 23.8661 29.7313 23.8113 29.7344C23.7607 29.7376 23.71 29.7408 23.6605 29.7439C23.6056 29.7471 23.5508 29.7513 23.497 29.7545C23.4464 29.7576 23.3968 29.7618 23.3472 29.765C23.2934 29.7692 23.2396 29.7734 23.1859 29.7777C23.1363 29.7819 23.0867 29.7861 23.0371 29.7903C22.9834 29.7945 22.9306 29.7998 22.8779 29.8051C22.8294 29.8093 22.7798 29.8146 22.7313 29.8188C22.6785 29.8241 22.6269 29.8293 22.5741 29.8346C22.5256 29.8399 22.4771 29.8441 22.4296 29.8494C22.378 29.8547 22.3263 29.861 22.2746 29.8663C22.2271 29.8715 22.1807 29.8768 22.1333 29.8821C22.0816 29.8884 22.0299 29.8947 21.9782 29.9011C21.9329 29.9063 21.8865 29.9127 21.8411 29.9179C21.7894 29.9243 21.7388 29.9317 21.6882 29.938C21.6428 29.9443 21.5985 29.9496 21.5532 29.9559C21.5036 29.9622 21.4541 29.9696 21.4055 29.977C21.3612 29.9833 21.3169 29.9897 21.2726 29.996C21.222 30.0034 21.1735 30.0108 21.1229 30.0181C21.0818 30.0245 21.0396 30.0308 20.9984 30.0371C20.9446 30.0456 20.8909 30.054 20.8381 30.0624C20.8023 30.0677 20.7664 30.074 20.7305 30.0793C20.6704 30.0888 20.6114 30.0993 20.5523 30.1088C20.5238 30.1131 20.4953 30.1183 20.4679 30.1226C20.3814 30.1373 20.296 30.1521 20.2127 30.1679C20.1621 30.1774 20.1146 30.1911 20.0693 30.209C19.7507 30.3367 19.5535 30.6742 19.6168 31.0254C19.6579 31.2511 19.7971 31.4346 19.9828 31.5379C20.1273 31.6192 20.2992 31.6518 20.4743 31.6213C20.5987 31.5991 20.7263 31.577 20.856 31.5548C20.8761 31.5517 20.8961 31.5485 20.9172 31.5443C21.0438 31.5232 21.1725 31.5031 21.3032 31.4831C21.3243 31.4799 21.3465 31.4768 21.3686 31.4736C21.5047 31.4536 21.6428 31.4335 21.7831 31.4145C21.7894 31.4135 21.7968 31.4124 21.8032 31.4114C21.9434 31.3924 22.0858 31.3745 22.2303 31.3565C22.244 31.3544 22.2577 31.3534 22.2714 31.3513C22.4149 31.3344 22.5615 31.3175 22.7081 31.3027C22.7302 31.3006 22.7524 31.2985 22.7745 31.2964C22.9232 31.2817 23.073 31.2669 23.2249 31.2542C23.2386 31.2532 23.2523 31.2521 23.266 31.2511C23.421 31.2384 23.5771 31.2268 23.7353 31.2163C23.7396 31.2163 23.7438 31.2152 23.748 31.2152C23.9041 31.2047 24.0623 31.1962 24.2216 31.1899C24.2437 31.1888 24.2669 31.1878 24.2891 31.1867C24.4441 31.1804 24.6012 31.1751 24.7584 31.1709C24.7795 31.1709 24.7995 31.1699 24.8206 31.1699C25.1455 31.1635 25.4735 31.1635 25.8036 31.172C25.8247 31.173 25.8468 31.173 25.8679 31.173C26.0261 31.1772 26.1854 31.1836 26.3446 31.192C26.37 31.1931 26.3963 31.1952 26.4216 31.1962C26.5841 31.2057 26.7454 31.2163 26.9078 31.23C26.9184 31.231 26.9289 31.2321 26.9395 31.2331C27.0977 31.2468 27.2559 31.2627 27.4141 31.2806C27.4331 31.2827 27.451 31.2848 27.47 31.2869C27.6282 31.3049 27.7853 31.326 27.9435 31.3492C27.972 31.3534 28.0005 31.3576 28.029 31.3618C28.1851 31.385 28.3412 31.4114 28.4962 31.4399C28.5036 31.4409 28.511 31.443 28.5173 31.4441C27.6968 32.0516 26.8414 32.6622 25.9544 33.2961C22.417 35.8231 18.4303 38.6718 14.6081 42.7946C12.3859 38.1909 11.4155 33.0715 11.8026 27.9362C11.925 26.3099 12.2677 24.7352 12.8235 23.246C12.8605 23.2639 12.8974 23.2818 12.9332 23.2998C12.9533 23.3093 12.9733 23.3198 12.9934 23.3293C13.0229 23.3441 13.0514 23.3588 13.0798 23.3736C13.1252 23.3968 13.1716 23.4211 13.2159 23.4453C13.2201 23.4474 13.2254 23.4506 13.2296 23.4527C13.2655 23.4717 13.3003 23.4917 13.3361 23.5107C13.3825 23.5371 13.43 23.5624 13.4753 23.5888C13.5112 23.6088 13.546 23.6299 13.5819 23.651C13.6272 23.6774 13.6715 23.7048 13.7158 23.7311C13.7464 23.7501 13.7759 23.7681 13.8065 23.787C13.8128 23.7913 13.8192 23.7955 13.8255 23.7986C13.8666 23.825 13.9078 23.8503 13.9478 23.8767C13.9742 23.8936 14.0006 23.9115 14.0269 23.9284C14.0343 23.9336 14.0428 23.9389 14.0501 23.9442C14.0913 23.9716 14.1314 23.999 14.1725 24.0275C14.2041 24.0486 14.2347 24.0708 14.2653 24.0918C14.3075 24.1214 14.3486 24.152 14.3898 24.1826C14.4182 24.2036 14.4478 24.2247 14.4762 24.2458C14.5184 24.2775 14.5606 24.3102 14.6028 24.3429C14.6281 24.3629 14.6545 24.3829 14.6798 24.403C14.7262 24.4399 14.7705 24.4768 14.8159 24.5137C14.8306 24.5264 14.8454 24.538 14.8602 24.5496C14.8791 24.5654 14.8971 24.5812 14.916 24.597C14.9572 24.6318 14.9973 24.6656 15.0373 24.7004C15.0605 24.7204 15.0827 24.7405 15.1059 24.7616C15.1428 24.7943 15.1787 24.827 15.2145 24.8597C15.2356 24.8786 15.2557 24.8976 15.2768 24.9166C15.2841 24.9229 15.2905 24.9293 15.2978 24.9367C15.3284 24.9651 15.359 24.9936 15.3885 25.0231C15.4044 25.039 15.4202 25.0537 15.436 25.0695C15.4508 25.0843 15.4655 25.0991 15.4803 25.1138C15.5088 25.1423 15.5373 25.1697 15.5647 25.1982C15.5721 25.2056 15.5805 25.214 15.5879 25.2214C15.6079 25.2415 15.628 25.2625 15.6469 25.2826C15.6786 25.3153 15.7102 25.348 15.7408 25.3817C15.7619 25.4049 15.783 25.4281 15.8051 25.4513C15.8347 25.484 15.8642 25.5157 15.8937 25.5484C15.9148 25.5716 15.9349 25.5948 15.956 25.618C15.9844 25.6496 16.0119 25.6823 16.0393 25.714C16.0593 25.7372 16.0794 25.7604 16.0984 25.7836C16.1258 25.8163 16.1521 25.8479 16.1785 25.8795C16.1975 25.9027 16.2154 25.9249 16.2344 25.9481C16.2608 25.9808 16.2861 26.0135 16.3114 26.0451C16.3283 26.0673 16.3462 26.0894 16.3631 26.1116C16.3884 26.1443 16.4137 26.178 16.438 26.2107C16.4538 26.2318 16.4696 26.2529 16.4854 26.274C16.5107 26.3088 16.536 26.3436 16.5614 26.3784C16.573 26.3953 16.5856 26.4111 16.5962 26.428C16.6035 26.4375 16.6099 26.448 16.6173 26.4575C16.6394 26.4892 16.6605 26.5197 16.6816 26.5503C16.6869 26.5577 16.6921 26.5661 16.6974 26.5735C16.709 26.5904 16.7206 26.6073 16.7312 26.6242C16.7533 26.6568 16.7755 26.6895 16.7966 26.7222C16.8092 26.7412 16.8208 26.7592 16.8324 26.7781C16.8535 26.8108 16.8735 26.8425 16.8946 26.8752C16.9041 26.891 16.9147 26.9068 16.9242 26.9226C16.9294 26.9311 16.9337 26.9384 16.9389 26.9469C16.9569 26.9754 16.9737 27.0038 16.9906 27.0313C16.9959 27.0408 17.0022 27.0502 17.0075 27.0597C17.017 27.0756 17.0254 27.0903 17.0349 27.1061C17.0528 27.1367 17.0718 27.1673 17.0887 27.1979C17.1003 27.2169 17.1109 27.2359 17.1214 27.2559C17.1372 27.2844 17.153 27.3129 17.1689 27.3403C17.1794 27.3603 17.19 27.3793 17.2016 27.3993C17.2163 27.4257 17.2311 27.4521 17.2448 27.4785C17.2553 27.4974 17.2648 27.5164 17.2754 27.5354C17.2828 27.5491 17.2891 27.5628 17.2965 27.5765C17.2775 27.6145 17.2585 27.6535 17.2385 27.6926C17.2005 27.7685 17.1625 27.8455 17.1246 27.9225C17.1003 27.972 17.075 28.0216 17.0507 28.0712C17.0275 28.1176 17.0064 28.1661 16.9832 28.2125C16.9463 28.2885 16.9105 28.3654 16.8746 28.4414C16.8282 28.5395 16.7828 28.6386 16.7375 28.7367C16.7027 28.8126 16.6679 28.8896 16.6331 28.9656C16.5877 29.0658 16.5434 29.167 16.4991 29.2672C16.4664 29.3421 16.4327 29.418 16.4 29.494C16.3557 29.5984 16.3114 29.7028 16.2682 29.8072C16.2376 29.88 16.207 29.9538 16.1764 30.0266C16.1743 30.0329 16.1711 30.0382 16.169 30.0435C16.1627 30.0593 16.1553 30.0751 16.149 30.0909C16.1131 30.1795 16.0783 30.2681 16.0435 30.3567C16.0161 30.4252 15.9887 30.4927 15.9623 30.5613C15.9391 30.6214 15.9159 30.6815 15.8927 30.7427C15.8684 30.806 15.8442 30.8703 15.8199 30.9336C15.7988 30.9895 15.7777 31.0454 15.7566 31.1002C15.6902 31.2806 15.6248 31.461 15.5605 31.6424C15.4771 31.8807 15.3959 32.1201 15.3179 32.3606C15.2905 32.4429 15.2652 32.5272 15.2388 32.6095C15.1882 32.7677 15.1386 32.9249 15.0901 33.0841C15.0595 33.1843 15.031 33.2856 15.0015 33.3858C14.9593 33.5281 14.9182 33.6705 14.8781 33.814C14.8485 33.9215 14.8201 34.0281 14.7916 34.1356C14.7547 34.2738 14.7178 34.412 14.683 34.5501C14.6555 34.6598 14.6281 34.7695 14.6018 34.8792C14.568 35.0174 14.5353 35.1545 14.5026 35.2926C14.4773 35.4023 14.452 35.5131 14.4277 35.6227C14.3971 35.762 14.3666 35.9022 14.3381 36.0425C14.3159 36.1511 14.2938 36.2598 14.2716 36.3684C14.2432 36.5118 14.2157 36.6553 14.1894 36.7987C14.1693 36.9052 14.1503 37.0107 14.1314 37.1172C14.1229 37.1647 14.1134 37.2122 14.106 37.2596C14.1039 37.2744 14.1029 37.2892 14.1008 37.3039C14.0744 37.4621 14.0459 37.6203 14.0217 37.7785C13.9594 38.1814 14.2358 38.559 14.6387 38.6212C15.0416 38.6835 15.4191 38.4071 15.4814 38.0042C15.5141 37.7943 15.5499 37.5845 15.5868 37.3746C15.6048 37.2712 15.6237 37.1679 15.6427 37.0645C15.668 36.9295 15.6934 36.7935 15.7197 36.6585C15.7408 36.553 15.7619 36.4475 15.7841 36.342C15.8115 36.2102 15.84 36.0773 15.8695 35.9455C15.8927 35.839 15.9169 35.7314 15.9423 35.6249C15.9728 35.4941 16.0034 35.3643 16.0351 35.2336C16.0614 35.127 16.0868 35.0205 16.1142 34.914C16.1479 34.7832 16.1827 34.6524 16.2175 34.5217C16.245 34.4172 16.2734 34.3139 16.3019 34.2095C16.3399 34.0734 16.3789 33.9384 16.419 33.8034C16.4475 33.7053 16.4749 33.6083 16.5044 33.5113C16.5498 33.3615 16.5972 33.2128 16.6447 33.0641C16.671 32.9818 16.6953 32.8995 16.7227 32.8183C16.7955 32.5947 16.8714 32.3722 16.9484 32.1497C16.9505 32.1433 16.9527 32.1381 16.9548 32.1317C17.46 30.69 18.0738 29.2735 18.7773 27.9225C18.7804 27.9172 18.7825 27.9119 18.7846 27.9067C18.8469 27.7875 18.9112 27.6693 18.9745 27.5512C19.0219 27.4626 19.0684 27.373 19.1169 27.2844C19.1833 27.1642 19.2519 27.0439 19.3194 26.9247C19.3679 26.8383 19.4164 26.7518 19.466 26.6653C19.5419 26.5345 19.6189 26.4058 19.6969 26.2761C19.7412 26.2023 19.7845 26.1274 19.8288 26.0536C19.9522 25.8511 20.0777 25.6496 20.2043 25.4513C20.3108 25.2847 20.4184 25.1202 20.528 24.9546C20.5628 24.9018 20.5998 24.8491 20.6356 24.7964C20.7105 24.6846 20.7854 24.5738 20.8624 24.4631C20.9067 24.3998 20.951 24.3376 20.9953 24.2743C21.0649 24.1752 21.1355 24.075 21.2062 23.9758C21.2547 23.9083 21.3043 23.8419 21.3528 23.7754C21.4214 23.6816 21.4899 23.5877 21.5606 23.4938C21.6123 23.4253 21.665 23.3567 21.7167 23.2882C21.7852 23.1975 21.8538 23.1078 21.9244 23.0182C21.9782 22.9486 22.0341 22.879 22.089 22.8093C22.1586 22.7218 22.2271 22.6343 22.2978 22.5478C22.3548 22.4782 22.4117 22.4086 22.4687 22.339C22.5383 22.2535 22.6089 22.1692 22.6796 22.0848C22.7387 22.0152 22.7977 21.9456 22.8568 21.8759C22.9021 21.8232 22.9475 21.7705 22.9928 21.7177L23.2048 21.664C23.2913 21.6429 23.382 21.6207 23.4748 21.6007C23.5054 21.5933 23.5381 21.587 23.5698 21.5806C23.6341 21.5669 23.6974 21.5532 23.7638 21.5395C23.8039 21.5311 23.8461 21.5237 23.8862 21.5152C23.9473 21.5036 24.0075 21.492 24.0697 21.4804C24.115 21.472 24.1625 21.4646 24.2089 21.4562C24.2701 21.4456 24.3312 21.4351 24.3935 21.4245C24.443 21.4161 24.4937 21.4087 24.5443 21.4013C24.6076 21.3918 24.6698 21.3813 24.7341 21.3718C24.7869 21.3644 24.8407 21.357 24.8944 21.3497C24.9588 21.3412 25.0231 21.3317 25.0885 21.3233C25.1444 21.3159 25.2014 21.3096 25.2583 21.3022C25.3248 21.2938 25.3912 21.2864 25.4598 21.2779C25.5178 21.2716 25.5768 21.2653 25.6359 21.259C25.7044 21.2516 25.7741 21.2442 25.8437 21.2379C25.9038 21.2315 25.966 21.2263 26.0272 21.221C26.0978 21.2147 26.1685 21.2083 26.2402 21.202C26.3025 21.1967 26.3668 21.1915 26.4301 21.1872C26.5028 21.182 26.5756 21.1767 26.6494 21.1714C26.7138 21.1672 26.7792 21.163 26.8446 21.1588C26.9194 21.1545 26.9943 21.1503 27.0692 21.1461C27.1357 21.1429 27.2032 21.1387 27.2696 21.1356C27.3455 21.1324 27.4225 21.1292 27.4995 21.1261C27.5681 21.124 27.6356 21.1208 27.7052 21.1187C27.7832 21.1166 27.8623 21.1145 27.9414 21.1124C28.011 21.1102 28.0796 21.1092 28.1503 21.1081C28.2304 21.1071 28.3106 21.106 28.3918 21.105C28.4625 21.1039 28.5321 21.1039 28.6027 21.1039C28.6839 21.1039 28.7662 21.1039 28.8495 21.105C28.9202 21.105 28.9919 21.106 29.0636 21.1071C29.148 21.1081 29.2324 21.1102 29.3167 21.1124C29.3874 21.1145 29.4591 21.1155 29.5309 21.1176C29.6173 21.1197 29.7049 21.124 29.7914 21.1271C29.862 21.1303 29.9316 21.1324 30.0034 21.1356C30.093 21.1398 30.1837 21.1451 30.2744 21.1503C30.343 21.1545 30.4126 21.1577 30.4811 21.1619C30.575 21.1683 30.6699 21.1746 30.7648 21.182C30.8313 21.1872 30.8967 21.1915 30.9631 21.1967C31.0665 21.2052 31.1709 21.2147 31.2743 21.2242C31.3323 21.2294 31.3892 21.2336 31.4472 21.24C31.5907 21.2537 31.7341 21.2695 31.8775 21.2864C31.8965 21.2885 31.9155 21.2906 31.9334 21.2927C32.0959 21.3117 32.2593 21.3328 32.4228 21.3549C32.4713 21.3613 32.5198 21.3697 32.5683 21.376C32.6833 21.3918 32.7983 21.4087 32.9122 21.4267C32.9733 21.4361 33.0356 21.4467 33.0967 21.4572C33.198 21.4741 33.3003 21.4899 33.4016 21.5079C33.4691 21.5195 33.5355 21.5332 33.603 21.5458C33.699 21.5638 33.7939 21.5817 33.8899 21.6007C33.9595 21.6144 34.0291 21.6302 34.0998 21.645C34.1926 21.664 34.2843 21.684 34.3771 21.704C34.4478 21.7199 34.5185 21.7367 34.5902 21.7536C34.6809 21.7747 34.7716 21.7958 34.8612 21.8179C34.933 21.8359 35.0047 21.8549 35.0753 21.8728C35.1639 21.896 35.2525 21.9192 35.3411 21.9434C35.4128 21.9635 35.4846 21.9835 35.5563 22.0046C35.6438 22.0299 35.7303 22.0552 35.8178 22.0816C35.8896 22.1038 35.9602 22.1259 36.0319 22.1481C36.1184 22.1755 36.2039 22.2029 36.2893 22.2314C36.36 22.2546 36.4306 22.2799 36.5013 22.3042C36.5487 22.321 36.5962 22.3379 36.6437 22.3548C35.1924 25.8447 32.6443 28.2378 30.0434 30.2818ZM13.8972 20.9151C14.4288 19.9543 15.0626 19.0156 15.8115 18.078C18.1877 15.1027 21.338 12.6411 24.4304 10.3841C24.4684 10.4537 24.5053 10.5243 24.5422 10.594C24.5538 10.6161 24.5643 10.6383 24.5759 10.6604C24.6023 10.711 24.6276 10.7617 24.6529 10.8133C24.6677 10.8429 24.6814 10.8724 24.6962 10.9009C24.7173 10.9452 24.7394 10.9884 24.7605 11.0327C24.7753 11.0643 24.7911 11.097 24.8059 11.1287C24.8248 11.1698 24.8449 11.212 24.8639 11.2531C24.8786 11.2869 24.8944 11.3196 24.9092 11.3533C24.9271 11.3934 24.9451 11.4345 24.963 11.4746C24.9778 11.5084 24.9925 11.5432 25.0073 11.5769C25.0242 11.617 25.041 11.6571 25.0579 11.6972C25.0727 11.732 25.0864 11.7657 25.1012 11.8005C25.118 11.8406 25.1339 11.8807 25.1497 11.9208C25.1634 11.9545 25.1771 11.9893 25.1908 12.0231C25.2066 12.0642 25.2225 12.1043 25.2383 12.1454C25.2509 12.1792 25.2646 12.2118 25.2773 12.2456C25.2931 12.2888 25.3089 12.331 25.3248 12.3732C25.3364 12.4038 25.348 12.4354 25.3596 12.466C25.3796 12.5209 25.3986 12.5747 25.4186 12.6295C25.4323 12.6664 25.445 12.7044 25.4576 12.7413C25.4756 12.794 25.4946 12.8468 25.5125 12.8995C25.523 12.9311 25.5336 12.9617 25.5441 12.9934C25.5578 13.0345 25.5716 13.0756 25.5853 13.1168C25.5958 13.1505 25.6064 13.1832 25.6169 13.217C25.6296 13.256 25.6412 13.294 25.6538 13.3319C25.6644 13.3657 25.6749 13.3994 25.6855 13.4332C25.6971 13.4701 25.7087 13.5081 25.7192 13.545C25.7298 13.5787 25.7393 13.6125 25.7487 13.6452C25.7593 13.6821 25.7709 13.719 25.7814 13.7559C25.7909 13.7897 25.8004 13.8224 25.8099 13.8551C25.8205 13.8909 25.83 13.9278 25.8405 13.9637C25.85 13.9964 25.8584 14.0291 25.8679 14.0618C25.8785 14.0987 25.888 14.1345 25.8975 14.1704C25.9059 14.202 25.9143 14.2326 25.9228 14.2632C25.9333 14.3012 25.9428 14.3392 25.9523 14.3771C25.9597 14.4056 25.9671 14.4341 25.9744 14.4615C25.985 14.5047 25.9955 14.5469 26.0061 14.5902C26.0114 14.6123 26.0177 14.6345 26.023 14.6566C26.0388 14.7199 26.0535 14.7821 26.0683 14.8443C26.0736 14.8665 26.0789 14.8886 26.0841 14.9108C26.0936 14.9509 26.1031 14.9909 26.1116 15.031C26.1179 15.0563 26.1232 15.0817 26.1284 15.107C26.1369 15.1428 26.1443 15.1787 26.1527 15.2135C26.158 15.2399 26.1643 15.2652 26.1696 15.2905C26.1769 15.3232 26.1843 15.3569 26.1907 15.3886C26.1959 15.4149 26.2012 15.4413 26.2075 15.4666C26.2139 15.4983 26.2202 15.5299 26.2265 15.5605C26.2318 15.5858 26.2371 15.6111 26.2413 15.6354C26.2476 15.666 26.2539 15.6965 26.2592 15.7261C26.2634 15.7503 26.2687 15.7746 26.2729 15.7978C26.2793 15.8284 26.2845 15.859 26.2898 15.8885C26.294 15.9106 26.2982 15.9317 26.3025 15.9539C26.3088 15.9855 26.3141 16.0161 26.3193 16.0467C26.3225 16.0657 26.3267 16.0847 26.3299 16.1026C26.3362 16.1374 26.3425 16.1711 26.3478 16.2049C26.3499 16.2186 26.3531 16.2323 26.3552 16.246C26.3636 16.2924 26.371 16.3378 26.3784 16.3821C26.1801 16.5435 25.9839 16.7069 25.7899 16.8725C25.5758 17.055 25.3638 17.2395 25.155 17.4262C24.8343 17.712 24.52 18.0021 24.211 18.2974C23.8651 18.6275 23.5276 18.964 23.1975 19.3057C22.7967 19.7202 22.4064 20.142 22.031 20.5702C20.9025 21.8591 19.8689 23.2333 18.9608 24.6551C18.8205 24.8744 18.6834 25.0949 18.5484 25.3184C18.503 25.3923 18.4609 25.4672 18.4166 25.542C18.3269 25.6918 18.2383 25.8416 18.1508 25.9935C18.1402 26.0114 18.1286 26.0293 18.1191 26.0483L18.117 26.0462C18.1065 26.0293 18.0949 26.0124 18.0843 25.9945C18.0664 25.966 18.0474 25.9375 18.0284 25.9091C18.0094 25.8795 17.9894 25.849 17.9694 25.8194C17.9599 25.8057 17.9514 25.792 17.9419 25.7783C17.9303 25.7614 17.9187 25.7445 17.9082 25.7277C17.886 25.696 17.8639 25.6644 17.8418 25.6327C17.8217 25.6032 17.8006 25.5747 17.7795 25.5452C17.7774 25.542 17.7743 25.5378 17.7721 25.5347C17.769 25.5304 17.7669 25.5273 17.7637 25.5231C17.7458 25.4977 17.7268 25.4735 17.7089 25.4482C17.6878 25.4186 17.6656 25.3891 17.6445 25.3596C17.6266 25.3353 17.6076 25.31 17.5886 25.2858C17.5749 25.2678 17.5612 25.2499 17.5475 25.2309C17.5327 25.2109 17.518 25.1908 17.5021 25.1718C17.4747 25.137 17.4462 25.1012 17.4188 25.0664C17.3967 25.039 17.3756 25.0115 17.3534 24.9841C17.3534 24.9841 17.3513 24.982 17.3503 24.9799C17.3144 24.9356 17.2775 24.8913 17.2395 24.847C17.2089 24.8101 17.1773 24.7732 17.1457 24.7363C17.1288 24.7162 17.1109 24.6962 17.0929 24.6751C17.0729 24.6519 17.0528 24.6287 17.0318 24.6044C17.0064 24.5759 16.9811 24.5485 16.9558 24.5201C16.9305 24.4916 16.9041 24.4631 16.8778 24.4346C16.8757 24.4325 16.8735 24.4304 16.8714 24.4283C16.8672 24.4241 16.863 24.4188 16.8588 24.4146C16.8314 24.3851 16.8029 24.3555 16.7744 24.3249C16.7428 24.2912 16.7101 24.2574 16.6774 24.2237C16.6605 24.2058 16.6426 24.1878 16.6246 24.1699C16.6088 24.1541 16.593 24.1383 16.5772 24.1224C16.5476 24.0929 16.5181 24.0623 16.4875 24.0328C16.4569 24.0022 16.4243 23.9716 16.3926 23.941C16.3715 23.921 16.3515 23.9009 16.3304 23.8809C16.3283 23.8799 16.3272 23.8777 16.3251 23.8767C16.3135 23.8651 16.3009 23.8545 16.2893 23.8429C16.2566 23.8124 16.2239 23.7828 16.1901 23.7522C16.1543 23.7195 16.1184 23.6868 16.0825 23.6552C16.0646 23.6394 16.0477 23.6236 16.0298 23.6077C16.0256 23.6035 16.0203 23.5993 16.015 23.5951C16.0034 23.5845 15.9918 23.5751 15.9802 23.5645C15.9433 23.5329 15.9064 23.5002 15.8684 23.4685C15.8336 23.439 15.7978 23.4084 15.7619 23.3789C15.7461 23.3652 15.7303 23.3525 15.7144 23.3388L15.7102 23.3356C15.6891 23.3177 15.6659 23.3008 15.6448 23.2829C15.6079 23.2534 15.5721 23.2249 15.5341 23.1954C15.494 23.1637 15.4529 23.1331 15.4118 23.1015C15.3949 23.0888 15.378 23.0762 15.3611 23.0625C15.34 23.0467 15.3179 23.0308 15.2957 23.014C15.2535 22.9823 15.2093 22.9517 15.166 22.9201C15.127 22.8927 15.089 22.8652 15.05 22.8378C15.0405 22.8315 15.031 22.8241 15.0215 22.8178L15.0184 22.8157C14.9835 22.7914 14.9477 22.7682 14.9118 22.744C14.8728 22.7176 14.8348 22.6912 14.7948 22.6649C14.7589 22.6417 14.722 22.6185 14.6861 22.5952C14.6608 22.5784 14.6355 22.5626 14.6091 22.5467C14.5828 22.5299 14.5564 22.513 14.53 22.4972C14.4731 22.4624 14.4151 22.4276 14.3571 22.3938C14.3233 22.3738 14.2896 22.3527 14.2558 22.3337C14.2537 22.3326 14.2526 22.3316 14.2505 22.3305L14.2484 22.3295C14.1577 22.2767 14.066 22.2261 13.9732 22.1755C13.9552 22.166 13.9373 22.1565 13.9194 22.147C13.9067 22.1396 13.893 22.1333 13.8803 22.1259C13.8487 22.109 13.8171 22.0932 13.7854 22.0763C13.7496 22.0574 13.7148 22.0384 13.6778 22.0204C13.6409 22.0015 13.603 21.9846 13.566 21.9656C13.5091 21.9382 13.4543 21.9097 13.3962 21.8823C13.5544 21.5585 13.72 21.2358 13.8972 20.9151Z" fill="#7FB640"/>
<path d="M30.4346 5.81202C30.5949 5.81202 30.7552 5.76034 30.8913 5.65382L30.9219 5.62956C31.2414 5.37644 31.2952 4.91238 31.0421 4.59281C30.789 4.27324 30.3239 4.21945 30.0054 4.47257L29.9779 4.49472C29.6573 4.74679 29.6025 5.21085 29.8545 5.53148C30.0001 5.71605 30.2163 5.81202 30.4346 5.81202Z" fill="#7FB640"/>
<path d="M33.8602 9.34606C33.9003 9.37243 33.9436 9.39563 33.9879 9.41462C34.0321 9.43255 34.0786 9.44626 34.126 9.4568C34.1735 9.4663 34.222 9.47051 34.2705 9.47051C34.4646 9.47051 34.6555 9.39141 34.7926 9.25431C34.9297 9.1172 35.0088 8.92735 35.0088 8.73223C35.0088 8.68477 35.0035 8.63626 34.994 8.58774C34.9845 8.54134 34.9708 8.49493 34.9518 8.44958C34.9339 8.40528 34.9107 8.36309 34.8843 8.32302C34.8569 8.28188 34.8263 8.24391 34.7926 8.21016C34.6207 8.0393 34.3665 7.9602 34.126 8.00872C34.0786 8.01821 34.0321 8.03192 33.9879 8.05091C33.9436 8.06884 33.9003 8.09204 33.8602 8.11841C33.8202 8.14583 33.7822 8.17641 33.7484 8.21016C33.7147 8.24391 33.683 8.28188 33.6567 8.32302C33.6303 8.36309 33.6071 8.40528 33.5881 8.44958C33.5702 8.49493 33.5565 8.54134 33.547 8.58774C33.5364 8.63626 33.5322 8.68477 33.5322 8.73223C33.5322 8.92735 33.6113 9.1172 33.7484 9.25431C33.7822 9.28806 33.8202 9.3197 33.8602 9.34606Z" fill="#7FB640"/>
</svg>
