<svg width="35" height="35" viewBox="0 0 35 35" fill="none" xmlns="http://www.w3.org/2000/svg">
<path d="M24.164 32.0838C24.5513 32.086 24.9352 32.0111 25.2932 31.8634C25.6513 31.7156 25.9763 31.4981 26.2494 31.2234L30.2015 27.2713C30.4731 26.998 30.6256 26.6284 30.6256 26.2432C30.6256 25.8579 30.4731 25.4883 30.2015 25.215L24.3681 19.3817C24.0949 19.1101 23.7253 18.9576 23.34 18.9576C22.9548 18.9576 22.5851 19.1101 22.3119 19.3817L19.9786 21.7005C18.3631 21.2697 16.8669 20.4768 15.6036 19.3817C14.5114 18.1163 13.7189 16.6209 13.2848 15.0067L15.6036 12.6734C15.8752 12.4001 16.0276 12.0305 16.0276 11.6452C16.0276 11.26 15.8752 10.8904 15.6036 10.6171L9.77023 4.78378C9.49699 4.51217 9.12738 4.35971 8.74211 4.35971C8.35683 4.35971 7.98722 4.51217 7.71398 4.78378L3.77648 8.75045C3.50178 9.02351 3.28421 9.34855 3.13649 9.7066C2.98876 10.0647 2.91383 10.4485 2.91606 10.8359C3.04837 16.4392 5.28742 21.7869 9.1869 25.813C13.2129 29.7124 18.5606 31.9515 24.164 32.0838ZM8.7494 7.89003L12.5265 11.6671L10.6452 13.5484C10.4671 13.7153 10.3336 13.9242 10.2572 14.1561C10.1807 14.388 10.1637 14.6353 10.2077 14.8755C10.7528 17.3114 11.9068 19.5693 13.5619 21.438C15.4291 23.0951 17.6876 24.2495 20.1244 24.7921C20.3609 24.8416 20.606 24.8315 20.8376 24.7627C21.0693 24.694 21.2802 24.5688 21.4515 24.3984L23.3327 22.4734L27.1098 26.2505L24.1931 29.1671C19.3569 29.0426 14.7424 27.1125 11.2577 23.7567C7.89323 20.2706 5.95758 15.65 5.83273 10.8067L8.7494 7.89003ZM29.1661 16.0421H32.0827C32.1205 14.3082 31.8069 12.5845 31.1607 10.975C30.5145 9.36551 29.5491 7.90352 28.3227 6.67713C27.0963 5.45074 25.6343 4.48536 24.0248 3.83915C22.4154 3.19295 20.6917 2.8793 18.9577 2.91712V5.83378C20.3109 5.78697 21.6593 6.01901 22.919 6.51546C24.1787 7.01191 25.3228 7.76217 26.2803 8.71959C27.2377 9.67702 27.9879 10.8211 28.4844 12.0809C28.9808 13.3406 29.2129 14.6889 29.1661 16.0421Z" fill="#B5B5B5"/>
<path d="M18.958 11.6667C22.0205 11.6667 23.333 12.9792 23.333 16.0417H26.2497C26.2497 11.3458 23.6538 8.75 18.958 8.75V11.6667Z" fill="#B5B5B5"/>
</svg>
