<svg width="26" height="26" viewBox="0 0 26 26" fill="none" xmlns="http://www.w3.org/2000/svg">
<path d="M13 0.5C6.1 0.5 0.5 6.1 0.5 13C0.5 19.9 6.1 25.5 13 25.5C19.9 25.5 25.5 19.9 25.5 13C25.5 6.1 19.9 0.5 13 0.5ZM7.1875 21.125C8.825 19.95 10.825 19.25 13 19.25C15.175 19.25 17.175 19.95 18.8125 21.125C17.175 22.3 15.175 23 13 23C10.825 23 8.825 22.3 7.1875 21.125ZM20.675 19.4C18.5625 17.75 15.9 16.75 13 16.75C10.1 16.75 7.4375 17.75 5.325 19.4C3.875 17.6625 3 15.4375 3 13C3 7.475 7.475 3 13 3C18.525 3 23 7.475 23 13C23 15.4375 22.125 17.6625 20.675 19.4Z" fill="#6CAB43"/>
<path d="M13 5.5C10.5875 5.5 8.625 7.4625 8.625 9.875C8.625 12.2875 10.5875 14.25 13 14.25C15.4125 14.25 17.375 12.2875 17.375 9.875C17.375 7.4625 15.4125 5.5 13 5.5ZM13 11.75C11.9625 11.75 11.125 10.9125 11.125 9.875C11.125 8.8375 11.9625 8 13 8C14.0375 8 14.875 8.8375 14.875 9.875C14.875 10.9125 14.0375 11.75 13 11.75Z" fill="#6CAB43"/>
</svg>
